{
.appVersion = "1356";
DisplayStrings = (
"/gravecomb",
"/abrevegrave",
"/brevecomb/brevecomb_acutecomb",
"/circumflexcomb/circumflexcomb_acutecomb",
"/gravecomb/circumflexcomb/circumflexcomb_gravecomb",
"/hookabovecomb/hookabovecomb/circumflexcomb/circumflexcomb_hookabovecomb",
"/tildecomb/circumflexcomb_tildecomb",
"/hookabovecomb/circumflexcomb_hookabovecomb",
"/gravecomb/circumflexcomb_gravecomb",
"A/Abreveacute",
"E/Ecircumflexacute",
"/circumflexcomb",
"/brevecomb",
"/tildecomb/Etilde",
"G/Gcommaaccent",
"I/Idotbelow",
"K/Kcommaaccent",
"L/Lcommaaccent",
"N/Ncommaaccent",
"O/Ocircumflexacute",
"R/Rcommaaccent",
"T/Tcedilla",
"U/Udotbelow",
"W/Wacute",
"Y/Ycircumflex",
"a/abreveacute",
"e/ecircumflexacute",
"g/gcommaaccent",
"i/idotbelow",
"/idotless/ihookabove",
"k/kcommaaccent",
"l/lcommaaccent",
"n/ncommaaccent",
"o/ocircumflexacute",
"u/uhookabove",
"u/uhorn",
"w/wacute",
"y/ycircumflex",
"CcZzDd/lcaron",
"/caron",
"/caron.alt",
"/caroncomb.alt",
"/caron/caroncomb",
"S/Scaron",
"t/tcaron",
"/tcedilla",
"h/hcircumflex",
"t/uni021B",
"G/Gbreve",
"L/Lcaron",
"/L.1/Lcaron.1",
"s/sacute",
"r/racute",
"R/Racute",
"e/ecircumflexdotbelow",
"",
"",
"",
"",
"",
"",
"/brevecomb_acutecomb.case",
"/circumflexcomb_gravecomb.case",
"/circumflexcomb_hookabovecomb.case",
"/circumflexcomb_tildecomb.case",
"/divisionslash",
"/foursuperior"
);
copyright = "\\2512013 by Robert E. Leuschke. All rights reserved.";
customParameters = (
{
name = description;
value = "©2013 by Robert E. Leuschke. All rights reserved.";
},
{
name = trademark;
value = "StyleScript Pro is a trademark of Robert E. Leuschke.";
},
{
name = licenseURL;
value = "http://www.typesetit.com/license.html";
},
{
name = license;

glyphs = (
{
glyphname = quotedbl;
lastChange = "2021-05-05 07:33:14 +0000";
layers = (
{
layerId = "68CC9319-F234-4FBF-AF6F-F394745E3D3F";
paths = (
{
closed = 1;
nodes = (
"241 497 OFFCURVE",
"246 498 OFFCURVE",
"246 501 CURVE",
"280 688 LINE",
"280 689 LINE SMOOTH",
"280 698 OFFCURVE",
"260 703 OFFCURVE",
"240 703 CURVE SMOOTH",
"222 703 OFFCURVE",
"203 699 OFFCURVE",
"204 689 CURVE SMOOTH",
"204 688 LINE",
"228 501 LINE",
"228 501 OFFCURVE",
"232 497 OFFCURVE",
"237 497 CURVE SMOOTH"
);
},
{
closed = 1;
nodes = (
"118 497 OFFCURVE",
"123 498 OFFCURVE",
"123 501 CURVE",
"157 688 LINE",
"157 689 LINE SMOOTH",
"157 698 OFFCURVE",
"137 703 OFFCURVE",
"117 703 CURVE SMOOTH",
"99 703 OFFCURVE",
"80 699 OFFCURVE",
"81 689 CURVE SMOOTH",
"81 688 LINE",
"105 501 LINE",
"105 501 OFFCURVE",
"109 497 OFFCURVE",
"114 497 CURVE SMOOTH"
);
}
);
width = 364;
}
);
note = quotedbl;
unicode = 0022;
},
{
glyphname = numbersign;
lastChange = "2021-05-05 07:33:14 +0000";
layers = (
{
layerId = "68CC9319-F234-4FBF-AF6F-F394745E3D3F";
paths = (
{
closed = 1;
nodes = (
"171 -6 OFFCURVE",
"179 -2 OFFCURVE",
"181 7 CURVE SMOOTH",
"217 211 LINE",
"371 211 LINE",
"336 15 LINE",
"336 12 LINE SMOOTH",
"336 0 OFFCURVE",
"348 -6 OFFCURVE",
"360 -6 CURVE SMOOTH",
"369 -6 OFFCURVE",
"377 -2 OFFCURVE",
"379 7 CURVE SMOOTH",
"415 211 LINE",
"535 211 LINE SMOOTH",
"546 211 OFFCURVE",
"553 222 OFFCURVE",
"556 228 CURVE SMOOTH",
"557 231 OFFCURVE",
"558 234 OFFCURVE",
"558 238 CURVE SMOOTH",
"558 245 OFFCURVE",
"554 253 OFFCURVE",
"544 253 CURVE SMOOTH",
"423 253 LINE",
"447 389 LINE",
"562 389 LINE SMOOTH",
"573 389 OFFCURVE",
"580 400 OFFCURVE",
"582 407 CURVE SMOOTH",
"583 410 OFFCURVE",
"584 413 OFFCURVE",
"584 417 CURVE SMOOTH",
"584 424 OFFCURVE",
"581 431 OFFCURVE",
"571 431 CURVE SMOOTH",
"455 431 LINE",
"484 595 LINE",
"484 598 LINE SMOOTH",
"484 610 OFFCURVE",
"472 616 OFFCURVE",
"460 616 CURVE SMOOTH",
"451 616 OFFCURVE",
"443 612 OFFCURVE",
"441 603 CURVE SMOOTH",
"410 431 LINE",
"257 431 LINE",
"286 595 LINE",
"286 598 LINE SMOOTH",
"286 610 OFFCURVE",
"274 616 OFFCURVE",
"262 616 CURVE SMOOTH",
"253 616 OFFCURVE",
"245 612 OFFCURVE",
"243 603 CURVE SMOOTH",
"212 431 LINE",
"84 431 LINE SMOOTH",
"73 431 OFFCURVE",
"66 420 OFFCURVE",
"63 413 CURVE SMOOTH",
"62 410 OFFCURVE",
"61 407 OFFCURVE",
"61 404 CURVE SMOOTH",
"61 396 OFFCURVE",
"65 389 OFFCURVE",
"75 389 CURVE SMOOTH",
"205 389 LINE",
"180 253 LINE",
"58 253 LINE SMOOTH",
"46 253 OFFCURVE",
"39 241 OFFCURVE",
"37 235 CURVE SMOOTH",
"36 232 OFFCURVE",
"35 229 OFFCURVE",
"35 225 CURVE SMOOTH",
"35 218 OFFCURVE",
"38 211 OFFCURVE",
"48 211 CURVE SMOOTH",
"173 211 LINE",
"138 15 LINE",
"138 12 LINE SMOOTH",
"138 0 OFFCURVE",
"150 -6 OFFCURVE",
"162 -6 CURVE SMOOTH"
);
},
{
closed = 1;
nodes = (
"249 389 LINE",
"403 389 LINE",
"378 253 LINE",
"225 253 LINE"
);
}
);
width = 611;
}
);
note = numbersign;
unicode = 0023;
},
{
glyphname = dollar;
lastChange = "2021-05-05 07:33:19 +0000";
layers = (
{
layerId = "68CC9319-F234-4FBF-AF6F-F394745E3D3F";
paths = (
{
closed = 1;
nodes = (
"182 -79 OFFCURVE",
"191 -85 OFFCURVE",
"199 -85 CURVE SMOOTH",
"207 -85 OFFCURVE",
"215 -80 OFFCURVE",
"216 -69 CURVE SMOOTH",
"222 -13 LINE",
"365 -7 OFFCURVE",
"447 63 OFFCURVE",
"455 154 CURVE SMOOTH",
"455 159 OFFCURVE",
"456 164 OFFCURVE",
"456 169 CURVE SMOOTH",
"456 239 OFFCURVE",
"414 272 OFFCURVE",
"313 334 CURVE SMOOTH",
"261 366 LINE",
"292 669 LINE",
"344 664 OFFCURVE",
"366 624 OFFCURVE",
"366 579 CURVE SMOOTH",
"366 570 OFFCURVE",
"365 560 OFFCURVE",
"363 551 CURVE SMOOTH",
"362 546 OFFCURVE",
"362 541 OFFCURVE",
"362 537 CURVE SMOOTH",
"362 516 OFFCURVE",
"374 506 OFFCURVE",
"387 506 CURVE SMOOTH",
"405 506 OFFCURVE",
"428 526 OFFCURVE",
"428 562 CURVE SMOOTH",
"428 654 OFFCURVE",
"372 694 OFFCURVE",
"295 698 CURVE",
"301 749 LINE SMOOTH",
"302 759 OFFCURVE",
"293 765 OFFCURVE",
"285 765 CURVE SMOOTH",
"277 765 OFFCURVE",
"269 760 OFFCURVE",
"268 749 CURVE SMOOTH",
"263 698 LINE",
"232 695 OFFCURVE",
"201 686 OFFCURVE",
"172 671 CURVE SMOOTH",
"102 634 OFFCURVE",
"63 568 OFFCURVE",
"63 502 CURVE SMOOTH",
"63 462 OFFCURVE",
"77 422 OFFCURVE",
"107 388 CURVE SMOOTH",
"136 354 OFFCURVE",
"178 326 OFFCURVE",
"221 299 CURVE",
"192 26 LINE",
"124 38 OFFCURVE",
"65 79 OFFCURVE",
"65 148 CURVE SMOOTH",
"65 152 OFFCURVE",
"65 157 OFFCURVE",
"66 162 CURVE SMOOTH",
"67 173 OFFCURVE",
"76 194 OFFCURVE",
"82 199 CURVE SMOOTH",
"86 202 OFFCURVE",
"87 205 OFFCURVE",
"87 207 CURVE SMOOTH",
"87 211 OFFCURVE",
"83 213 OFFCURVE",
"78 213 CURVE SMOOTH",
"31 213 OFFCURVE",
"4 171 OFFCURVE",
"4 124 CURVE SMOOTH",
"4 51 OFFCURVE",
"56 -4 OFFCURVE",
"164 -13 CURVE SMOOTH",
"172 -14 OFFCURVE",
"180 -14 OFFCURVE",
"188 -14 CURVE",
"183 -69 LINE SMOOTH"
);
},
{
closed = 1;
nodes = (
"252 279 LINE",
"322 234 OFFCURVE",
"386 191 OFFCURVE",
"386 130 CURVE SMOOTH",
"386 123 OFFCURVE",
"385 115 OFFCURVE",
"383 107 CURVE SMOOTH",
"377 81 OFFCURVE",
"353 48 OFFCURVE",
"309 33 CURVE SMOOTH",
"287 25 OFFCURVE",
"262 22 OFFCURVE",
"237 22 CURVE SMOOTH",
"225 22 LINE"
);
},
{
closed = 1;
nodes = (
"210 402 OFFCURVE",
"191 417 OFFCURVE",
"177 434 CURVE SMOOTH",
"156 458 OFFCURVE",
"147 488 OFFCURVE",
"147 518 CURVE SMOOTH",
"147 585 OFFCURVE",
"193 652 OFFCURVE",
"259 666 CURVE",
"230 387 LINE"
);
}
);
width = 500;
}
);
note = dollar;
unicode = 0024;
},
{
glyphname = percent;
lastChange = "2021-05-05 07:33:14 +0000";
layers = (
{
layerId = "68CC9319-F234-4FBF-AF6F-F394745E3D3F";
paths = (
{
closed = 1;
nodes = (
"93 -9 OFFCURVE",
"105 -4 OFFCURVE",
"110 5 CURVE SMOOTH",
"200 171 OFFCURVE",
"356 421 OFFCURVE",
"455 586 CURVE",
"456 587 OFFCURVE",
"456 589 OFFCURVE",
"456 590 CURVE SMOOTH",
"456 597 OFFCURVE",
"442 601 OFFCURVE",
"426 601 CURVE SMOOTH",
"408 601 OFFCURVE",
"389 596 OFFCURVE",
"384 587 CURVE",
"354 562 OFFCURVE",
"318 543 OFFCURVE",
"276 543 CURVE SMOOTH",
"257 543 OFFCURVE",
"236 547 OFFCURVE",
"214 557 CURVE",
"200 572 OFFCURVE",
"180 581 OFFCURVE",
"153 581 CURVE SMOOTH",
"76 581 OFFCURVE",
"30 508 OFFCURVE",
"30 444 CURVE SMOOTH",
"30 392 OFFCURVE",
"59 346 OFFCURVE",
"126 346 CURVE SMOOTH",
"197 346 OFFCURVE",
"240 420 OFFCURVE",
"240 485 CURVE SMOOTH",
"240 498 OFFCURVE",
"238 511 OFFCURVE",
"234 523 CURVE",
"247 520 OFFCURVE",
"261 519 OFFCURVE",
"276 519 CURVE SMOOTH",
"302 519 OFFCURVE",
"328 523 OFFCURVE",
"354 531 CURVE",
"265 368 OFFCURVE",
"148 154 OFFCURVE",
"68 6 CURVE SMOOTH",
"67 4 OFFCURVE",
"66 2 OFFCURVE",
"66 1 CURVE SMOOTH",
"66 -6 OFFCURVE",
"74 -9 OFFCURVE",
"82 -9 CURVE SMOOTH"
);
},
{
closed = 1;
nodes = (
"432 38 OFFCURVE",
"476 112 OFFCURVE",
"476 177 CURVE SMOOTH",
"476 227 OFFCURVE",
"449 272 OFFCURVE",
"389 272 CURVE SMOOTH",
"312 272 OFFCURVE",
"266 199 OFFCURVE",
"266 135 CURVE SMOOTH",
"266 84 OFFCURVE",
"295 38 OFFCURVE",
"362 38 CURVE SMOOTH"
);
},
{
closed = 1;
nodes = (
"332 63 OFFCURVE",
"319 97 OFFCURVE",
"319 135 CURVE SMOOTH",
"319 187 OFFCURVE",
"342 247 OFFCURVE",
"386 247 CURVE SMOOTH",
"411 247 OFFCURVE",
"424 211 OFFCURVE",
"424 171 CURVE SMOOTH",
"424 120 OFFCURVE",
"403 63 OFFCURVE",
"360 63 CURVE SMOOTH"
);
},
{
closed = 1;
nodes = (
"96 372 OFFCURVE",
"83 406 OFFCURVE",
"83 444 CURVE SMOOTH",
"83 496 OFFCURVE",
"106 556 OFFCURVE",
"150 556 CURVE SMOOTH",
"175 556 OFFCURVE",
"188 520 OFFCURVE",
"188 480 CURVE SMOOTH",
"188 429 OFFCURVE",
"167 372 OFFCURVE",
"124 372 CURVE SMOOTH"
);
}
);
width = 480;
}
);
note = percent;
unicode = 0025;
},
{
glyphname = ampersand;
lastChange = "2021-05-05 07:33:14 +0000";
layers = (
{
layerId = "68CC9319-F234-4FBF-AF6F-F394745E3D3F";
paths = (
{
closed = 1;
nodes = (
"275 -36 OFFCURVE",
"279 -36 OFFCURVE",
"283 -36 CURVE SMOOTH",
"482 -30 OFFCURVE",
"612 118 OFFCURVE",
"612 211 CURVE SMOOTH",
"612 243 OFFCURVE",
"597 268 OFFCURVE",
"565 279 CURVE",
"593 285 OFFCURVE",
"628 294 OFFCURVE",
"658 307 CURVE SMOOTH",
"702 326 OFFCURVE",
"731 359 OFFCURVE",
"731 391 CURVE SMOOTH",
"731 449 OFFCURVE",
"679 473 OFFCURVE",
"627 473 CURVE SMOOTH",
"600 473 OFFCURVE",
"573 466 OFFCURVE",
"553 455 CURVE SMOOTH",
"545 450 OFFCURVE",
"540 443 OFFCURVE",
"540 438 CURVE SMOOTH",
"540 436 OFFCURVE",
"542 434 OFFCURVE",
"545 434 CURVE SMOOTH",
"546 434 LINE SMOOTH",
"562 434 OFFCURVE",
"587 440 OFFCURVE",
"615 440 CURVE SMOOTH",
"623 440 OFFCURVE",
"630 440 OFFCURVE",
"638 439 CURVE SMOOTH",
"671 436 OFFCURVE",
"693 421 OFFCURVE",
"693 402 CURVE SMOOTH",
"693 391 OFFCURVE",
"686 378 OFFCURVE",
"670 365 CURVE SMOOTH",
"627 330 OFFCURVE",
"531 309 OFFCURVE",
"490 299 CURVE SMOOTH",
"413 280 OFFCURVE",
"309 233 OFFCURVE",
"309 168 CURVE SMOOTH",
"309 163 OFFCURVE",
"309 157 OFFCURVE",
"311 151 CURVE SMOOTH",
"316 139 OFFCURVE",
"324 135 OFFCURVE",
"332 135 CURVE SMOOTH",
"345 135 OFFCURVE",
"358 146 OFFCURVE",
"358 163 CURVE SMOOTH",
"358 167 OFFCURVE",
"357 171 OFFCURVE",
"356 175 CURVE SMOOTH",
"354 181 OFFCURVE",
"353 187 OFFCURVE",
"353 193 CURVE SMOOTH",
"353 242 OFFCURVE",
"426 260 OFFCURVE",
"485 268 CURVE SMOOTH",
"486 268 LINE SMOOTH",
"489 268 OFFCURVE",
"494 268 OFFCURVE",
"501 269 CURVE SMOOTH",
"506 270 OFFCURVE",
"510 270 OFFCURVE",
"515 270 CURVE SMOOTH",
"551 270 OFFCURVE",
"573 248 OFFCURVE",
"573 216 CURVE SMOOTH",
"573 96 OFFCURVE",
"396 37 OFFCURVE",
"272 37 CURVE SMOOTH",
"250 37 OFFCURVE",
"229 39 OFFCURVE",
"211 43 CURVE SMOOTH",
"150 57 OFFCURVE",
"120 99 OFFCURVE",
"120 147 CURVE SMOOTH",
"120 181 OFFCURVE",
"135 219 OFFCURVE",
"164 251 CURVE SMOOTH",
"224 319 OFFCURVE",
"330 335 OFFCURVE",
"428 335 CURVE SMOOTH",
"443 335 LINE SMOOTH",
"456 335 OFFCURVE",
"483 370 OFFCURVE",
"483 392 CURVE SMOOTH",
"483 402 OFFCURVE",
"477 409 OFFCURVE",
"462 409 CURVE SMOOTH",
"459 409 LINE",
"423 401 OFFCURVE",
"391 397 OFFCURVE",
"364 397 CURVE SMOOTH",
"274 397 OFFCURVE",
"236 437 OFFCURVE",
"236 485 CURVE SMOOTH",
"236 553 OFFCURVE",
"316 636 OFFCURVE",
"440 636 CURVE SMOOTH",
"448 636 OFFCURVE",
"457 636 OFFCURVE",
"466 635 CURVE SMOOTH",
"496 632 OFFCURVE",
"509 621 OFFCURVE",
"509 608 CURVE SMOOTH",
"509 593 OFFCURVE",
"492 574 OFFCURVE",
"464 563 CURVE SMOOTH",
"446 555 OFFCURVE",
"432 554 OFFCURVE",
"430 549 CURVE",
"430 548 LINE SMOOTH",
"430 541 OFFCURVE",
"442 534 OFFCURVE",
"457 534 CURVE SMOOTH",
"462 534 OFFCURVE",
"466 535 OFFCURVE",
"471 536 CURVE SMOOTH",
"517 550 OFFCURVE",
"539 580 OFFCURVE",
"539 611 CURVE SMOOTH",
"539 647 OFFCURVE",
"508 682 OFFCURVE",
"448 688 CURVE SMOOTH",
"440 689 OFFCURVE",
"431 689 OFFCURVE",
"422 689 CURVE SMOOTH",
"311 689 OFFCURVE",
"172 627 OFFCURVE",
"164 518 CURVE SMOOTH",
"164 514 OFFCURVE",
"164 510 OFFCURVE",
"164 506 CURVE SMOOTH",
"164 400 OFFCURVE",
"268 392 OFFCURVE",
"337 379 CURVE",
"217 361 OFFCURVE",
"84 292 OFFCURVE",
"61 175 CURVE SMOOTH",
"59 163 OFFCURVE",
"57 150 OFFCURVE",
"57 138 CURVE SMOOTH",
"57 94 OFFCURVE",
"73 55 OFFCURVE",
"94 31 CURVE SMOOTH",
"134 -14 OFFCURVE",
"199 -36 OFFCURVE",
"271 -36 CURVE SMOOTH"
);
}
);
width = 738;
}
);
note = ampersand;
unicode = 0026;
},
{
glyphname = quotesingle;
lastChange = "2021-05-05 07:33:14 +0000";
layers = (
{
layerId = "68CC9319-F234-4FBF-AF6F-F394745E3D3F";
paths = (
{
closed = 1;
nodes = (
"34 500 OFFCURVE",
"38 502 OFFCURVE",
"43 506 CURVE SMOOTH",
"79 539 OFFCURVE",
"102 602 OFFCURVE",
"102 656 CURVE SMOOTH",
"102 686 OFFCURVE",
"89 711 OFFCURVE",
"49 711 CURVE SMOOTH",
"22 711 OFFCURVE",
"1 690 OFFCURVE",
"1 663 CURVE SMOOTH",
"1 636 OFFCURVE",
"22 615 OFFCURVE",
"49 615 CURVE SMOOTH",
"55 615 OFFCURVE",
"61 616 OFFCURVE",
"66 618 CURVE",
"66 615 OFFCURVE",
"67 612 OFFCURVE",
"67 608 CURVE SMOOTH",
"67 588 OFFCURVE",
"59 554 OFFCURVE",
"28 515 CURVE SMOOTH",
"26 513 OFFCURVE",
"25 510 OFFCURVE",
"25 507 CURVE SMOOTH",
"25 503 OFFCURVE",
"27 500 OFFCURVE",
"31 500 CURVE SMOOTH"
);
}
);
width = 105;
}
);
note = quotesingle;
unicode = 0027;
},
{
glyphname = parenleft;
lastChange = "2021-05-05 07:33:14 +0000";
layers = (
{
layerId = "68CC9319-F234-4FBF-AF6F-F394745E3D3F";
paths = (
{
closed = 1;
nodes = (
"291 -74 OFFCURVE",
"297 -66 OFFCURVE",
"297 -60 CURVE SMOOTH",
"297 -55 OFFCURVE",
"293 -50 OFFCURVE",
"285 -50 CURVE SMOOTH",
"166 -50 OFFCURVE",
"139 128 OFFCURVE",
"139 271 CURVE SMOOTH",
"139 283 OFFCURVE",
"140 295 OFFCURVE",
"140 307 CURVE SMOOTH",
"144 452 OFFCURVE",
"194 655 OFFCURVE",
"340 655 CURVE SMOOTH",
"346 655 OFFCURVE",
"354 661 OFFCURVE",
"354 665 CURVE SMOOTH",
"354 668 OFFCURVE",
"350 671 OFFCURVE",
"339 671 CURVE SMOOTH",
"119 671 OFFCURVE",
"60 439 OFFCURVE",
"60 257 CURVE SMOOTH",
"60 249 OFFCURVE",
"60 241 OFFCURVE",
"60 234 CURVE SMOOTH",
"64 90 OFFCURVE",
"111 -74 OFFCURVE",
"283 -74 CURVE SMOOTH"
);
}
);
width = 289;
}
);
note = parenleft;
unicode = 0028;
},
{
glyphname = parenright;
lastChange = "2021-05-05 07:33:14 +0000";
layers = (
{
layerId = "68CC9319-F234-4FBF-AF6F-F394745E3D3F";
paths = (
{
closed = 1;
nodes = (
"191 -74 OFFCURVE",
"247 90 OFFCURVE",
"261 234 CURVE SMOOTH",
"263 259 OFFCURVE",
"265 284 OFFCURVE",
"265 311 CURVE SMOOTH",
"265 481 OFFCURVE",
"209 671 OFFCURVE",
"11 671 CURVE SMOOTH",
"-1 671 OFFCURVE",
"-5 668 OFFCURVE",
"-5 665 CURVE SMOOTH",
"-5 660 OFFCURVE",
"2 655 OFFCURVE",
"8 655 CURVE SMOOTH",
"146 655 OFFCURVE",
"186 474 OFFCURVE",
"186 332 CURVE SMOOTH",
"186 324 OFFCURVE",
"186 315 OFFCURVE",
"186 307 CURVE SMOOTH",
"181 160 OFFCURVE",
"147 -50 OFFCURVE",
"19 -50 CURVE SMOOTH",
"10 -50 OFFCURVE",
"6 -55 OFFCURVE",
"6 -60 CURVE SMOOTH",
"6 -67 OFFCURVE",
"11 -74 OFFCURVE",
"19 -74 CURVE SMOOTH"
);
}
);
width = 289;
}
);
note = parenright;
unicode = 0029;
},
{
glyphname = asterisk;
lastChange = "2021-05-05 07:33:14 +0000";
layers = (
{
layerId = "68CC9319-F234-4FBF-AF6F-F394745E3D3F";
paths = (
{
closed = 1;
nodes = (
"244 232 OFFCURVE",
"252 234 OFFCURVE",
"259 238 CURVE SMOOTH",
"273 246 OFFCURVE",
"278 259 OFFCURVE",
"278 273 CURVE SMOOTH",
"278 282 OFFCURVE",
"276 291 OFFCURVE",
"273 299 CURVE SMOOTH",
"262 334 OFFCURVE",
"251 369 OFFCURVE",
"251 406 CURVE SMOOTH",
"251 411 LINE",
"282 402 OFFCURVE",
"309 364 OFFCURVE",
"327 339 CURVE SMOOTH",
"338 323 OFFCURVE",
"353 306 OFFCURVE",
"375 306 CURVE SMOOTH",
"399 306 OFFCURVE",
"414 327 OFFCURVE",
"414 349 CURVE SMOOTH",
"414 375 OFFCURVE",
"390 385 OFFCURVE",
"367 390 CURVE SMOOTH",
"330 397 OFFCURVE",
"292 406 OFFCURVE",
"259 425 CURVE",
"283 447 OFFCURVE",
"328 451 OFFCURVE",
"358 454 CURVE SMOOTH",
"377 456 OFFCURVE",
"399 461 OFFCURVE",
"410 479 CURVE SMOOTH",
"414 485 OFFCURVE",
"415 491 OFFCURVE",
"415 498 CURVE SMOOTH",
"415 513 OFFCURVE",
"406 527 OFFCURVE",
"392 535 CURVE SMOOTH",
"386 538 OFFCURVE",
"381 539 OFFCURVE",
"376 539 CURVE SMOOTH",
"359 539 OFFCURVE",
"344 528 OFFCURVE",
"333 515 CURVE SMOOTH",
"308 487 OFFCURVE",
"282 458 OFFCURVE",
"249 439 CURVE",
"248 444 OFFCURVE",
"247 449 OFFCURVE",
"247 454 CURVE SMOOTH",
"247 484 OFFCURVE",
"264 518 OFFCURVE",
"275 542 CURVE SMOOTH",
"280 553 OFFCURVE",
"286 567 OFFCURVE",
"286 580 CURVE SMOOTH",
"286 586 OFFCURVE",
"284 593 OFFCURVE",
"281 599 CURVE SMOOTH",
"274 612 OFFCURVE",
"261 618 OFFCURVE",
"248 618 CURVE SMOOTH",
"240 618 OFFCURVE",
"232 616 OFFCURVE",
"224 612 CURVE SMOOTH",
"211 605 OFFCURVE",
"206 593 OFFCURVE",
"206 579 CURVE SMOOTH",
"206 570 OFFCURVE",
"208 561 OFFCURVE",
"211 552 CURVE SMOOTH",
"222 517 OFFCURVE",
"232 480 OFFCURVE",
"232 443 CURVE SMOOTH",
"232 438 LINE",
"201 447 OFFCURVE",
"175 485 OFFCURVE",
"157 510 CURVE SMOOTH",
"145 526 OFFCURVE",
"131 543 OFFCURVE",
"109 543 CURVE SMOOTH",
"85 543 OFFCURVE",
"70 522 OFFCURVE",
"70 500 CURVE SMOOTH",
"70 474 OFFCURVE",
"94 463 OFFCURVE",
"116 459 CURVE SMOOTH",
"154 451 OFFCURVE",
"192 442 OFFCURVE",
"226 423 CURVE",
"203 399 OFFCURVE",
"156 395 OFFCURVE",
"124 392 CURVE SMOOTH",
"105 390 OFFCURVE",
"83 386 OFFCURVE",
"72 367 CURVE SMOOTH",
"69 361 OFFCURVE",
"67 355 OFFCURVE",
"67 349 CURVE SMOOTH",
"67 334 OFFCURVE",
"77 320 OFFCURVE",
"90 312 CURVE SMOOTH",
"96 309 OFFCURVE",
"102 307 OFFCURVE",
"107 307 CURVE SMOOTH",
"123 307 OFFCURVE",
"138 318 OFFCURVE",
"149 331 CURVE SMOOTH",
"174 360 OFFCURVE",
"201 389 OFFCURVE",
"235 408 CURVE",
"236 405 OFFCURVE",
"236 401 OFFCURVE",
"236 397 CURVE SMOOTH",
"236 368 OFFCURVE",
"220 334 OFFCURVE",
"208 309 CURVE SMOOTH",
"203 298 OFFCURVE",
"197 284 OFFCURVE",
"197 271 CURVE SMOOTH",
"197 265 OFFCURVE",
"199 258 OFFCURVE",
"202 252 CURVE SMOOTH",
"209 238 OFFCURVE",
"223 232 OFFCURVE",
"237 232 CURVE SMOOTH"
);
}
);
width = 470;
}
);
note = asterisk;
unicode = 002A;
},
{
glyphname = plus;
lastChange = "2021-05-05 07:33:14 +0000";
layers = (
{
layerId = "68CC9319-F234-4FBF-AF6F-F394745E3D3F";
paths = (
{
closed = 1;
nodes = (
"244 130 OFFCURVE",
"247 131 OFFCURVE",
"250 132 CURVE SMOOTH",
"257 135 OFFCURVE",
"270 142 OFFCURVE",
"270 155 CURVE SMOOTH",
"270 284 LINE",
"399 284 LINE SMOOTH",
"411 284 OFFCURVE",
"419 296 OFFCURVE",
"422 303 CURVE SMOOTH",
"423 306 OFFCURVE",
"424 310 OFFCURVE",
"424 313 CURVE SMOOTH",
"424 322 OFFCURVE",
"420 330 OFFCURVE",
"409 330 CURVE SMOOTH",
"270 330 LINE",
"270 470 LINE SMOOTH",
"270 480 OFFCURVE",
"262 484 OFFCURVE",
"254 484 CURVE SMOOTH",
"250 484 OFFCURVE",
"246 483 OFFCURVE",
"243 482 CURVE SMOOTH",
"236 479 OFFCURVE",
"224 472 OFFCURVE",
"224 459 CURVE SMOOTH",
"224 330 LINE",
"95 330 LINE SMOOTH",
"82 330 OFFCURVE",
"75 318 OFFCURVE",
"72 311 CURVE SMOOTH",
"71 308 OFFCURVE",
"70 304 OFFCURVE",
"70 300 CURVE SMOOTH",
"70 292 OFFCURVE",
"74 284 OFFCURVE",
"84 284 CURVE SMOOTH",
"224 284 LINE",
"224 145 LINE SMOOTH",
"224 134 OFFCURVE",
"232 130 OFFCURVE",
"240 130 CURVE SMOOTH"
);
}
);
width = 479;
}
);
note = plus;
unicode = 002B;
},
{
glyphname = comma;
lastChange = "2021-05-05 07:33:14 +0000";
layers = (
{
layerId = "68CC9319-F234-4FBF-AF6F-F394745E3D3F";
paths = (
{
closed = 1;
nodes = (
"104 -114 OFFCURVE",
"108 -113 OFFCURVE",
"111 -110 CURVE SMOOTH",
"132 -91 OFFCURVE",
"160 -30 OFFCURVE",
"169 30 CURVE SMOOTH",
"169 33 OFFCURVE",
"170 35 OFFCURVE",
"170 38 CURVE SMOOTH",
"170 61 OFFCURVE",
"158 91 OFFCURVE",
"130 91 CURVE SMOOTH",
"93 91 OFFCURVE",
"77 65 OFFCURVE",
"77 41 CURVE SMOOTH",
"77 31 OFFCURVE",
"80 22 OFFCURVE",
"85 15 CURVE SMOOTH",
"96 0 OFFCURVE",
"104 0 OFFCURVE",
"123 -14 CURVE",
"115 -41 OFFCURVE",
"104 -76 OFFCURVE",
"93 -101 CURVE SMOOTH",
"92 -103 OFFCURVE",
"92 -105 OFFCURVE",
"92 -106 CURVE SMOOTH",
"92 -111 OFFCURVE",
"96 -114 OFFCURVE",
"101 -114 CURVE SMOOTH"
);
}
);
width = 199;
}
);
note = comma;
unicode = 002C;
},
{
glyphname = hyphen;
lastChange = "2021-05-05 07:33:14 +0000";
layers = (
{
layerId = "68CC9319-F234-4FBF-AF6F-F394745E3D3F";
paths = (
{
closed = 1;
nodes = (
"285 258 LINE SMOOTH",
"296 258 OFFCURVE",
"303 270 OFFCURVE",
"306 276 CURVE SMOOTH",
"307 279 OFFCURVE",
"308 282 OFFCURVE",
"308 286 CURVE SMOOTH",
"308 293 OFFCURVE",
"304 301 OFFCURVE",
"294 301 CURVE SMOOTH",
"91 301 LINE SMOOTH",
"80 301 OFFCURVE",
"73 289 OFFCURVE",
"70 283 CURVE SMOOTH",
"69 280 OFFCURVE",
"68 277 OFFCURVE",
"68 273 CURVE SMOOTH",
"68 265 OFFCURVE",
"71 258 OFFCURVE",
"81 258 CURVE SMOOTH"
);
}
);
width = 359;
}
);
note = hyphen;
unicode = 002D;
},
{
glyphname = period;
lastChange = "2021-05-05 07:33:14 +0000";
layers = (
{
layerId = "68CC9319-F234-4FBF-AF6F-F394745E3D3F";
paths = (
{
closed = 1;
nodes = (
"153 -5 OFFCURVE",
"174 16 OFFCURVE",
"174 43 CURVE SMOOTH",
"174 70 OFFCURVE",
"153 91 OFFCURVE",
"126 91 CURVE SMOOTH",
"99 91 OFFCURVE",
"78 70 OFFCURVE",
"78 43 CURVE SMOOTH",
"78 16 OFFCURVE",
"99 -5 OFFCURVE",
"126 -5 CURVE SMOOTH"
);
}
);
width = 199;
}
);
note = period;
unicode = 002E;
},
{
glyphname = slash;
lastChange = "2021-05-05 07:33:14 +0000";
layers = (
{
layerId = "68CC9319-F234-4FBF-AF6F-F394745E3D3F";
paths = (
{
closed = 1;
nodes = (
"53 -38 OFFCURVE",
"64 -34 OFFCURVE",
"69 -25 CURVE SMOOTH",
"430 638 LINE SMOOTH",
"432 641 OFFCURVE",
"432 644 OFFCURVE",
"432 646 CURVE SMOOTH",
"432 654 OFFCURVE",
"423 659 OFFCURVE",
"413 659 CURVE SMOOTH",
"403 659 OFFCURVE",
"392 654 OFFCURVE",
"387 645 CURVE SMOOTH",
"25 -17 LINE SMOOTH",
"23 -20 OFFCURVE",
"23 -22 OFFCURVE",
"23 -25 CURVE SMOOTH",
"23 -33 OFFCURVE",
"33 -38 OFFCURVE",
"44 -38 CURVE SMOOTH"
);
}
);
width = 456;
}
);
note = slash;
unicode = 002F;
},
{
glyphname = zero;
lastChange = "2021-05-05 07:33:19 +0000";
layers = (
{
layerId = "68CC9319-F234-4FBF-AF6F-F394745E3D3F";
paths = (
{
closed = 1;
nodes = (
"360 -10 OFFCURVE",
"443 197 OFFCURVE",
"443 380 CURVE SMOOTH",
"443 523 OFFCURVE",
"392 651 OFFCURVE",
"281 651 CURVE SMOOTH",
"269 651 OFFCURVE",
"256 649 OFFCURVE",
"243 646 CURVE SMOOTH",
"226 642 OFFCURVE",
"216 624 OFFCURVE",
"216 612 CURVE SMOOTH",
"216 605 OFFCURVE",
"219 599 OFFCURVE",
"227 599 CURVE SMOOTH",
"228 599 OFFCURVE",
"230 600 OFFCURVE",
"232 600 CURVE",
"239 602 OFFCURVE",
"245 603 OFFCURVE",
"252 603 CURVE SMOOTH",
"331 603 OFFCURVE",
"371 470 OFFCURVE",
"371 332 CURVE SMOOTH",
"371 180 OFFCURVE",
"323 21 OFFCURVE",
"230 21 CURVE SMOOTH",
"144 21 OFFCURVE",
"103 158 OFFCURVE",
"103 305 CURVE SMOOTH",
"103 477 OFFCURVE",
"157 663 OFFCURVE",
"256 667 CURVE SMOOTH",
"271 668 OFFCURVE",
"278 674 OFFCURVE",
"278 680 CURVE SMOOTH",
"278 685 OFFCURVE",
"273 689 OFFCURVE",
"262 689 CURVE SMOOTH",
"95 689 OFFCURVE",
"16 502 OFFCURVE",
"16 321 CURVE SMOOTH",
"16 153 OFFCURVE",
"84 -10 OFFCURVE",
"213 -10 CURVE SMOOTH"
);
}
);
width = 465;
}
);
note = zero;
unicode = 0030;
},
{
glyphname = one;
lastChange = "2021-05-05 07:33:14 +0000";
layers = (
{
layerId = "68CC9319-F234-4FBF-AF6F-F394745E3D3F";
paths = (
{
closed = 1;
nodes = (
"212 -10 OFFCURVE",
"273 3 OFFCURVE",
"274 29 CURVE",
"246 29 OFFCURVE",
"235 123 OFFCURVE",
"235 238 CURVE SMOOTH",
"235 323 OFFCURVE",
"241 420 OFFCURVE",
"251 496 CURVE SMOOTH",
"256 535 OFFCURVE",
"261 573 OFFCURVE",
"269 612 CURVE SMOOTH",
"271 620 OFFCURVE",
"271 628 OFFCURVE",
"271 636 CURVE SMOOTH",
"271 666 OFFCURVE",
"259 690 OFFCURVE",
"238 690 CURVE",
"238 690 OFFCURVE",
"208 676 OFFCURVE",
"187 662 CURVE SMOOTH",
"181 658 OFFCURVE",
"176 650 OFFCURVE",
"176 642 CURVE SMOOTH",
"176 638 OFFCURVE",
"177 633 OFFCURVE",
"180 629 CURVE",
"156 564 OFFCURVE",
"77 484 OFFCURVE",
"36 459 CURVE SMOOTH",
"31 456 OFFCURVE",
"29 453 OFFCURVE",
"29 450 CURVE SMOOTH",
"29 443 OFFCURVE",
"40 437 OFFCURVE",
"49 437 CURVE SMOOTH",
"51 437 OFFCURVE",
"53 437 OFFCURVE",
"55 438 CURVE SMOOTH",
"105 462 OFFCURVE",
"156 508 OFFCURVE",
"193 554 CURVE",
"193 536 OFFCURVE",
"192 516 OFFCURVE",
"191 496 CURVE SMOOTH",
"182 369 OFFCURVE",
"167 245 OFFCURVE",
"162 118 CURVE SMOOTH",
"162 109 OFFCURVE",
"161 100 OFFCURVE",
"161 92 CURVE SMOOTH",
"161 24 OFFCURVE",
"173 -10 OFFCURVE",
"193 -10 CURVE SMOOTH"
);
}
);
width = 332;
}
);
note = one;
unicode = 0031;
},
{
glyphname = two;
lastChange = "2021-05-05 07:33:14 +0000";
layers = (
{
layerId = "68CC9319-F234-4FBF-AF6F-F394745E3D3F";
paths = (
{
closed = 1;
nodes = (
"474 -35 OFFCURVE",
"480 -21 OFFCURVE",
"484 5 CURVE SMOOTH",
"485 10 OFFCURVE",
"485 15 OFFCURVE",
"485 20 CURVE SMOOTH",
"485 79 OFFCURVE",
"423 82 OFFCURVE",
"369 82 CURVE SMOOTH",
"352 82 LINE SMOOTH",
"304 82 OFFCURVE",
"170 65 OFFCURVE",
"91 56 CURVE",
"92 62 OFFCURVE",
"95 68 OFFCURVE",
"99 72 CURVE",
"187 187 OFFCURVE",
"298 251 OFFCURVE",
"396 363 CURVE SMOOTH",
"451 426 OFFCURVE",
"474 488 OFFCURVE",
"474 540 CURVE SMOOTH",
"474 632 OFFCURVE",
"404 696 OFFCURVE",
"307 696 CURVE SMOOTH",
"252 696 OFFCURVE",
"189 675 OFFCURVE",
"125 628 CURVE SMOOTH",
"85 598 OFFCURVE",
"51 557 OFFCURVE",
"46 534 CURVE",
"46 529 LINE SMOOTH",
"46 502 OFFCURVE",
"84 450 OFFCURVE",
"98 442 CURVE SMOOTH",
"103 439 OFFCURVE",
"107 438 OFFCURVE",
"109 438 CURVE SMOOTH",
"112 438 OFFCURVE",
"113 439 OFFCURVE",
"113 441 CURVE SMOOTH",
"113 443 OFFCURVE",
"111 446 OFFCURVE",
"109 448 CURVE SMOOTH",
"102 455 OFFCURVE",
"99 463 OFFCURVE",
"99 473 CURVE SMOOTH",
"99 538 OFFCURVE",
"239 661 OFFCURVE",
"320 661 CURVE SMOOTH",
"325 661 LINE SMOOTH",
"375 661 OFFCURVE",
"392 627 OFFCURVE",
"392 582 CURVE SMOOTH",
"392 532 OFFCURVE",
"370 469 OFFCURVE",
"344 429 CURVE SMOOTH",
"233 254 OFFCURVE",
"191 210 OFFCURVE",
"44 68 CURVE SMOOTH",
"28 53 OFFCURVE",
"22 39 OFFCURVE",
"22 24 CURVE SMOOTH",
"22 17 OFFCURVE",
"23 10 OFFCURVE",
"25 3 CURVE SMOOTH",
"28 -7 OFFCURVE",
"32 -20 OFFCURVE",
"43 -22 CURVE SMOOTH",
"49 -23 OFFCURVE",
"54 -23 OFFCURVE",
"59 -23 CURVE SMOOTH",
"73 -23 OFFCURVE",
"81 -19 OFFCURVE",
"85 -12 CURVE",
"152 -5 OFFCURVE",
"268 20 OFFCURVE",
"355 20 CURVE SMOOTH",
"378 20 OFFCURVE",
"399 18 OFFCURVE",
"416 14 CURVE SMOOTH",
"443 8 OFFCURVE",
"462 -10 OFFCURVE",
"466 -30 CURVE SMOOTH",
"467 -34 OFFCURVE",
"468 -35 OFFCURVE",
"469 -35 CURVE SMOOTH"
);
}
);
width = 493;
}
);
note = two;
unicode = 0032;
},
{
glyphname = three;
lastChange = "2021-05-05 07:33:14 +0000";
layers = (
{
layerId = "68CC9319-F234-4FBF-AF6F-F394745E3D3F";
paths = (
{
closed = 1;
nodes = (
"152 -17 OFFCURVE",
"158 -17 OFFCURVE",
"164 -17 CURVE SMOOTH",
"395 -17 OFFCURVE",
"495 102 OFFCURVE",
"495 201 CURVE SMOOTH",
"495 259 OFFCURVE",
"460 310 OFFCURVE",
"398 325 CURVE SMOOTH",
"372 331 OFFCURVE",
"342 335 OFFCURVE",
"310 336 CURVE",
"357 354 OFFCURVE",
"401 379 OFFCURVE",
"431 408 CURVE SMOOTH",
"480 454 OFFCURVE",
"501 503 OFFCURVE",
"501 546 CURVE SMOOTH",
"501 623 OFFCURVE",
"434 683 OFFCURVE",
"337 683 CURVE SMOOTH",
"283 683 OFFCURVE",
"220 665 OFFCURVE",
"154 621 CURVE SMOOTH",
"113 593 OFFCURVE",
"75 553 OFFCURVE",
"69 531 CURVE",
"68 529 OFFCURVE",
"68 527 OFFCURVE",
"68 524 CURVE SMOOTH",
"68 497 OFFCURVE",
"102 444 OFFCURVE",
"116 437 CURVE",
"121 433 OFFCURVE",
"125 432 OFFCURVE",
"127 432 CURVE SMOOTH",
"130 432 OFFCURVE",
"131 434 OFFCURVE",
"131 436 CURVE SMOOTH",
"131 439 OFFCURVE",
"130 442 OFFCURVE",
"128 444 CURVE SMOOTH",
"122 450 OFFCURVE",
"120 458 OFFCURVE",
"120 467 CURVE SMOOTH",
"120 531 OFFCURVE",
"269 646 OFFCURVE",
"351 646 CURVE SMOOTH",
"410 646 OFFCURVE",
"430 611 OFFCURVE",
"430 569 CURVE SMOOTH",
"430 531 OFFCURVE",
"413 487 OFFCURVE",
"392 460 CURVE SMOOTH",
"339 392 OFFCURVE",
"254 334 OFFCURVE",
"191 321 CURVE SMOOTH",
"187 320 OFFCURVE",
"184 313 OFFCURVE",
"184 309 CURVE SMOOTH",
"184 306 OFFCURVE",
"185 304 OFFCURVE",
"187 304 CURVE",
"187 304 OFFCURVE",
"223 309 OFFCURVE",
"241 314 CURVE",
"300 314 OFFCURVE",
"337 301 OFFCURVE",
"366 285 CURVE SMOOTH",
"399 267 OFFCURVE",
"414 238 OFFCURVE",
"414 207 CURVE SMOOTH",
"414 127 OFFCURVE",
"315 30 OFFCURVE",
"133 30 CURVE SMOOTH",
"129 30 OFFCURVE",
"125 30 OFFCURVE",
"120 30 CURVE SMOOTH",
"76 31 OFFCURVE",
"61 46 OFFCURVE",
"61 60 CURVE SMOOTH",
"61 81 OFFCURVE",
"93 104 OFFCURVE",
"129 122 CURVE SMOOTH",
"144 130 OFFCURVE",
"150 138 OFFCURVE",
"150 144 CURVE SMOOTH",
"150 152 OFFCURVE",
"142 158 OFFCURVE",
"132 158 CURVE SMOOTH",
"128 158 OFFCURVE",
"125 157 OFFCURVE",
"121 156 CURVE SMOOTH",
"66 138 OFFCURVE",
"16 113 OFFCURVE",
"16 67 CURVE SMOOTH",
"16 28 OFFCURVE",
"63 -15 OFFCURVE",
"146 -17 CURVE SMOOTH"
);
}
);
width = 520;
}
);
note = three;
unicode = 0033;
},
{
glyphname = four;
lastChange = "2021-05-05 07:33:14 +0000";
layers = (
{
layerId = "68CC9319-F234-4FBF-AF6F-F394745E3D3F";
paths = (
{
closed = 1;
nodes = (
"359 -10 OFFCURVE",
"422 5 OFFCURVE",
"423 30 CURVE",
"394 30 OFFCURVE",
"383 132 OFFCURVE",
"382 252 CURVE",
"412 252 OFFCURVE",
"438 248 OFFCURVE",
"459 241 CURVE SMOOTH",
"487 231 OFFCURVE",
"508 216 OFFCURVE",
"513 197 CURVE SMOOTH",
"514 193 OFFCURVE",
"516 191 OFFCURVE",
"518 191 CURVE SMOOTH",
"523 191 OFFCURVE",
"531 206 OFFCURVE",
"535 231 CURVE SMOOTH",
"536 236 OFFCURVE",
"536 241 OFFCURVE",
"536 246 CURVE SMOOTH",
"536 295 OFFCURVE",
"489 308 OFFCURVE",
"438 308 CURVE SMOOTH",
"420 308 OFFCURVE",
"401 306 OFFCURVE",
"384 304 CURVE",
"383 303 LINE",
"385 370 OFFCURVE",
"389 439 OFFCURVE",
"397 496 CURVE SMOOTH",
"402 535 OFFCURVE",
"408 573 OFFCURVE",
"416 612 CURVE SMOOTH",
"418 620 OFFCURVE",
"418 628 OFFCURVE",
"418 636 CURVE SMOOTH",
"418 666 OFFCURVE",
"406 690 OFFCURVE",
"384 690 CURVE",
"384 690 OFFCURVE",
"355 675 OFFCURVE",
"335 662 CURVE SMOOTH",
"328 657 OFFCURVE",
"322 650 OFFCURVE",
"322 641 CURVE SMOOTH",
"322 638 OFFCURVE",
"323 634 OFFCURVE",
"326 630 CURVE",
"277 530 OFFCURVE",
"62 296 OFFCURVE",
"20 269 CURVE",
"20 269 OFFCURVE",
"1 249 OFFCURVE",
"1 232 CURVE SMOOTH",
"1 222 OFFCURVE",
"5 214 OFFCURVE",
"18 213 CURVE SMOOTH",
"21 213 OFFCURVE",
"24 213 OFFCURVE",
"27 213 CURVE SMOOTH",
"81 213 OFFCURVE",
"207 242 OFFCURVE",
"317 250 CURVE",
"314 206 OFFCURVE",
"311 163 OFFCURVE",
"309 118 CURVE SMOOTH",
"309 109 OFFCURVE",
"309 101 OFFCURVE",
"309 93 CURVE SMOOTH",
"309 24 OFFCURVE",
"321 -10 OFFCURVE",
"340 -10 CURVE SMOOTH"
);
},
{
closed = 1;
nodes = (
"149 327 OFFCURVE",
"281 465 OFFCURVE",
"340 551 CURVE",
"340 533 OFFCURVE",
"339 515 OFFCURVE",
"338 496 CURVE SMOOTH",
"334 428 OFFCURVE",
"327 361 OFFCURVE",
"321 294 CURVE",
"250 284 OFFCURVE",
"145 269 OFFCURVE",
"66 268 CURVE"
);
}
);
width = 501;
}
);
note = four;
unicode = 0034;
},
{
glyphname = five;
lastChange = "2021-05-05 07:33:19 +0000";
layers = (
{
layerId = "68CC9319-F234-4FBF-AF6F-F394745E3D3F";
paths = (
{
closed = 1;
nodes = (
"202 -20 OFFCURVE",
"224 -18 OFFCURVE",
"248 -14 CURVE SMOOTH",
"409 13 OFFCURVE",
"498 131 OFFCURVE",
"498 235 CURVE SMOOTH",
"498 326 OFFCURVE",
"430 406 OFFCURVE",
"283 406 CURVE SMOOTH",
"244 406 OFFCURVE",
"202 404 OFFCURVE",
"162 397 CURVE",
"161 402 OFFCURVE",
"161 407 OFFCURVE",
"161 412 CURVE SMOOTH",
"161 417 OFFCURVE",
"161 423 OFFCURVE",
"162 428 CURVE SMOOTH",
"167 481 OFFCURVE",
"178 534 OFFCURVE",
"178 588 CURVE SMOOTH",
"178 600 LINE",
"245 600 OFFCURVE",
"302 588 OFFCURVE",
"345 584 CURVE SMOOTH",
"357 583 OFFCURVE",
"369 582 OFFCURVE",
"382 582 CURVE SMOOTH",
"436 582 OFFCURVE",
"493 595 OFFCURVE",
"493 652 CURVE SMOOTH",
"493 655 OFFCURVE",
"493 658 OFFCURVE",
"493 661 CURVE SMOOTH",
"491 687 OFFCURVE",
"484 701 OFFCURVE",
"479 701 CURVE SMOOTH",
"477 701 OFFCURVE",
"475 699 OFFCURVE",
"474 695 CURVE SMOOTH",
"468 675 OFFCURVE",
"447 659 OFFCURVE",
"420 649 CURVE SMOOTH",
"388 637 OFFCURVE",
"353 633 OFFCURVE",
"318 633 CURVE SMOOTH",
"244 633 OFFCURVE",
"171 651 OFFCURVE",
"124 651 CURVE SMOOTH",
"117 651 OFFCURVE",
"111 651 OFFCURVE",
"106 650 CURVE SMOOTH",
"92 648 OFFCURVE",
"87 638 OFFCURVE",
"87 628 CURVE SMOOTH",
"87 613 OFFCURVE",
"96 596 OFFCURVE",
"102 596 CURVE SMOOTH",
"103 596 LINE",
"107 596 LINE",
"111 578 OFFCURVE",
"113 556 OFFCURVE",
"113 532 CURVE SMOOTH",
"113 500 OFFCURVE",
"109 464 OFFCURVE",
"102 432 CURVE SMOOTH",
"98 416 OFFCURVE",
"92 390 OFFCURVE",
"85 374 CURVE SMOOTH",
"83 369 OFFCURVE",
"82 365 OFFCURVE",
"82 361 CURVE SMOOTH",
"82 352 OFFCURVE",
"88 347 OFFCURVE",
"104 347 CURVE SMOOTH",
"113 347 LINE",
"122 347 LINE",
"131 349 LINE SMOOTH",
"137 350 OFFCURVE",
"146 351 OFFCURVE",
"155 352 CURVE SMOOTH",
"178 355 OFFCURVE",
"201 357 OFFCURVE",
"224 357 CURVE SMOOTH",
"319 357 OFFCURVE",
"406 323 OFFCURVE",
"406 194 CURVE SMOOTH",
"406 109 OFFCURVE",
"344 21 OFFCURVE",
"240 7 CURVE SMOOTH",
"228 5 OFFCURVE",
"216 5 OFFCURVE",
"205 5 CURVE SMOOTH",
"117 5 OFFCURVE",
"69 56 OFFCURVE",
"69 109 CURVE SMOOTH",
"69 163 OFFCURVE",
"119 219 OFFCURVE",
"229 225 CURVE SMOOTH",
"241 226 OFFCURVE",
"247 229 OFFCURVE",
"247 233 CURVE SMOOTH",
"247 238 OFFCURVE",
"239 243 OFFCURVE",
"225 243 CURVE SMOOTH",
"221 243 LINE SMOOTH",
"77 243 OFFCURVE",
"8 165 OFFCURVE",
"8 99 CURVE SMOOTH",
"8 38 OFFCURVE",
"68 -20 OFFCURVE",
"182 -20 CURVE SMOOTH"
);
}
);
width = 520;
}
);
note = five;
unicode = 0035;
},
{
glyphname = six;
lastChange = "2021-05-05 07:33:14 +0000";
layers = (
{
layerId = "68CC9319-F234-4FBF-AF6F-F394745E3D3F";
paths = (
{
closed = 1;
nodes = (
"357 -26 OFFCURVE",
"446 90 OFFCURVE",
"446 244 CURVE SMOOTH",
"446 331 OFFCURVE",
"404 405 OFFCURVE",
"316 405 CURVE SMOOTH",
"310 405 OFFCURVE",
"304 405 OFFCURVE",
"298 404 CURVE SMOOTH",
"223 396 OFFCURVE",
"168 348 OFFCURVE",
"146 266 CURVE SMOOTH",
"142 251 OFFCURVE",
"141 239 OFFCURVE",
"141 228 CURVE SMOOTH",
"141 205 OFFCURVE",
"148 192 OFFCURVE",
"155 192 CURVE SMOOTH",
"161 192 OFFCURVE",
"166 200 OFFCURVE",
"167 217 CURVE SMOOTH",
"175 325 OFFCURVE",
"231 361 OFFCURVE",
"276 366 CURVE",
"284 366 LINE SMOOTH",
"339 366 OFFCURVE",
"365 302 OFFCURVE",
"365 227 CURVE SMOOTH",
"365 126 OFFCURVE",
"318 6 OFFCURVE",
"235 6 CURVE SMOOTH",
"134 6 OFFCURVE",
"112 165 OFFCURVE",
"112 282 CURVE SMOOTH",
"112 316 OFFCURVE",
"114 347 OFFCURVE",
"116 369 CURVE SMOOTH",
"140 581 OFFCURVE",
"231 659 OFFCURVE",
"297 659 CURVE SMOOTH",
"333 659 OFFCURVE",
"351 636 OFFCURVE",
"351 595 CURVE SMOOTH",
"351 570 OFFCURVE",
"344 538 OFFCURVE",
"330 501 CURVE SMOOTH",
"323 482 OFFCURVE",
"312 478 OFFCURVE",
"312 475 CURVE SMOOTH",
"312 473 OFFCURVE",
"314 472 OFFCURVE",
"320 470 CURVE SMOOTH",
"326 468 OFFCURVE",
"332 467 OFFCURVE",
"337 467 CURVE SMOOTH",
"362 467 OFFCURVE",
"385 485 OFFCURVE",
"390 500 CURVE SMOOTH",
"397 524 OFFCURVE",
"401 546 OFFCURVE",
"401 565 CURVE SMOOTH",
"401 638 OFFCURVE",
"353 682 OFFCURVE",
"281 682 CURVE SMOOTH",
"176 682 OFFCURVE",
"44 575 OFFCURVE",
"30 305 CURVE SMOOTH",
"30 296 OFFCURVE",
"29 286 OFFCURVE",
"29 276 CURVE SMOOTH",
"29 144 OFFCURVE",
"75 -26 OFFCURVE",
"227 -26 CURVE SMOOTH"
);
}
);
width = 463;
}
);
note = six;
unicode = 0036;
},
{
glyphname = seven;
lastChange = "2021-05-05 07:33:14 +0000";
layers = (
{
layerId = "68CC9319-F234-4FBF-AF6F-F394745E3D3F";
paths = (
{
closed = 1;
nodes = (
"128 -11 OFFCURVE",
"171 13 OFFCURVE",
"171 30 CURVE SMOOTH",
"171 31 LINE",
"154 31 OFFCURVE",
"145 63 OFFCURVE",
"145 90 CURVE SMOOTH",
"145 238 OFFCURVE",
"326 460 OFFCURVE",
"423 557 CURVE SMOOTH",
"436 569 OFFCURVE",
"441 581 OFFCURVE",
"441 595 CURVE SMOOTH",
"441 602 OFFCURVE",
"439 610 OFFCURVE",
"436 619 CURVE",
"434 622 OFFCURVE",
"433 627 OFFCURVE",
"430 631 CURVE",
"428 638 OFFCURVE",
"424 643 OFFCURVE",
"415 644 CURVE SMOOTH",
"409 644 LINE",
"405 644 LINE",
"402 645 OFFCURVE",
"399 645 OFFCURVE",
"396 645 CURVE SMOOTH",
"393 645 OFFCURVE",
"391 644 OFFCURVE",
"388 644 CURVE SMOOTH",
"326 638 OFFCURVE",
"211 612 OFFCURVE",
"126 612 CURVE SMOOTH",
"105 612 OFFCURVE",
"85 614 OFFCURVE",
"69 618 CURVE SMOOTH",
"45 624 OFFCURVE",
"29 642 OFFCURVE",
"24 661 CURVE SMOOTH",
"23 665 OFFCURVE",
"22 666 OFFCURVE",
"20 666 CURVE SMOOTH",
"16 666 OFFCURVE",
"9 652 OFFCURVE",
"6 627 CURVE SMOOTH",
"5 621 OFFCURVE",
"5 615 OFFCURVE",
"5 610 CURVE SMOOTH",
"5 546 OFFCURVE",
"63 545 OFFCURVE",
"115 545 CURVE SMOOTH",
"161 545 OFFCURVE",
"296 566 OFFCURVE",
"376 576 CURVE",
"376 567 OFFCURVE",
"374 559 OFFCURVE",
"369 553 CURVE SMOOTH",
"308 466 OFFCURVE",
"203 373 OFFCURVE",
"132 269 CURVE SMOOTH",
"89 206 OFFCURVE",
"59 136 OFFCURVE",
"59 64 CURVE SMOOTH",
"59 56 LINE SMOOTH",
"59 33 OFFCURVE",
"65 5 OFFCURVE",
"77 -5 CURVE SMOOTH",
"82 -9 OFFCURVE",
"90 -11 OFFCURVE",
"98 -11 CURVE SMOOTH"
);
}
);
width = 447;
}
);
note = seven;
unicode = 0037;
},
{
glyphname = eight;
lastChange = "2021-05-05 07:33:14 +0000";
layers = (
{
layerId = "68CC9319-F234-4FBF-AF6F-F394745E3D3F";
paths = (
{
closed = 1;
nodes = (
"321 -12 OFFCURVE",
"435 68 OFFCURVE",
"435 202 CURVE SMOOTH",
"435 207 LINE SMOOTH",
"435 304 OFFCURVE",
"370 360 OFFCURVE",
"299 401 CURVE",
"358 437 OFFCURVE",
"405 491 OFFCURVE",
"405 547 CURVE SMOOTH",
"405 640 OFFCURVE",
"331 682 OFFCURVE",
"253 682 CURVE SMOOTH",
"167 682 OFFCURVE",
"75 629 OFFCURVE",
"75 534 CURVE SMOOTH",
"75 445 OFFCURVE",
"120 410 OFFCURVE",
"172 378 CURVE",
"103 341 OFFCURVE",
"16 266 OFFCURVE",
"16 152 CURVE SMOOTH",
"16 147 LINE SMOOTH",
"16 43 OFFCURVE",
"97 -12 OFFCURVE",
"200 -12 CURVE SMOOTH"
);
},
{
closed = 1;
nodes = (
"164 34 OFFCURVE",
"97 73 OFFCURVE",
"97 163 CURVE SMOOTH",
"97 166 LINE SMOOTH",
"97 249 OFFCURVE",
"157 307 OFFCURVE",
"221 349 CURVE",
"283 309 OFFCURVE",
"365 261 OFFCURVE",
"365 174 CURVE SMOOTH",
"365 171 LINE SMOOTH",
"365 83 OFFCURVE",
"304 34 OFFCURVE",
"228 34 CURVE SMOOTH"
);
},
{
closed = 1;
nodes = (
"257 425 OFFCURVE",
"244 432 OFFCURVE",
"232 438 CURVE SMOOTH",
"177 468 OFFCURVE",
"147 509 OFFCURVE",
"147 552 CURVE SMOOTH",
"147 614 OFFCURVE",
"198 649 OFFCURVE",
"249 649 CURVE SMOOTH",
"298 649 OFFCURVE",
"348 615 OFFCURVE",
"348 543 CURVE SMOOTH",
"348 491 OFFCURVE",
"319 453 OFFCURVE",
"269 418 CURVE"
);
}
);
width = 452;
}
);
note = eight;
unicode = 0038;
},
{
glyphname = nine;
lastChange = "2021-05-05 07:33:19 +0000";
layers = (
{
layerId = "68CC9319-F234-4FBF-AF6F-F394745E3D3F";
paths = (
{
closed = 1;
nodes = (
"366 -20 OFFCURVE",
"425 216 OFFCURVE",
"425 389 CURVE SMOOTH",
"425 524 OFFCURVE",
"387 682 OFFCURVE",
"222 682 CURVE SMOOTH",
"98 682 OFFCURVE",
"14 577 OFFCURVE",
"14 433 CURVE SMOOTH",
"14 426 OFFCURVE",
"15 419 OFFCURVE",
"15 412 CURVE SMOOTH",
"20 326 OFFCURVE",
"66 251 OFFCURVE",
"154 251 CURVE SMOOTH",
"160 251 OFFCURVE",
"166 251 OFFCURVE",
"172 252 CURVE SMOOTH",
"233 258 OFFCURVE",
"280 291 OFFCURVE",
"304 347 CURVE SMOOTH",
"308 357 OFFCURVE",
"310 366 OFFCURVE",
"310 372 CURVE SMOOTH",
"310 382 OFFCURVE",
"307 387 OFFCURVE",
"303 387 CURVE SMOOTH",
"299 387 OFFCURVE",
"294 382 OFFCURVE",
"290 371 CURVE SMOOTH",
"271 317 OFFCURVE",
"225 293 OFFCURVE",
"193 290 CURVE SMOOTH",
"185 290 LINE SMOOTH",
"125 290 OFFCURVE",
"96 365 OFFCURVE",
"96 447 CURVE SMOOTH",
"96 544 OFFCURVE",
"137 650 OFFCURVE",
"215 650 CURVE SMOOTH",
"325 650 OFFCURVE",
"345 485 OFFCURVE",
"345 375 CURVE SMOOTH",
"345 354 OFFCURVE",
"344 335 OFFCURVE",
"343 319 CURVE SMOOTH",
"336 205 OFFCURVE",
"307 7 OFFCURVE",
"154 7 CURVE SMOOTH",
"117 7 OFFCURVE",
"77 39 OFFCURVE",
"64 93 CURVE SMOOTH",
"61 104 OFFCURVE",
"57 108 OFFCURVE",
"52 108 CURVE SMOOTH",
"42 108 OFFCURVE",
"32 92 OFFCURVE",
"32 71 CURVE SMOOTH",
"32 65 OFFCURVE",
"32 59 OFFCURVE",
"34 53 CURVE SMOOTH",
"47 4 OFFCURVE",
"108 -20 OFFCURVE",
"156 -20 CURVE SMOOTH"
);
}
);
width = 451;
}
);
note = nine;
unicode = 0039;
},
{
glyphname = colon;
lastChange = "2021-05-05 07:33:14 +0000";
layers = (
{
layerId = "68CC9319-F234-4FBF-AF6F-F394745E3D3F";
paths = (
{
closed = 1;
nodes = (
"179 267 OFFCURVE",
"200 288 OFFCURVE",
"200 315 CURVE SMOOTH",
"200 342 OFFCURVE",
"179 363 OFFCURVE",
"152 363 CURVE SMOOTH",
"125 363 OFFCURVE",
"104 342 OFFCURVE",
"104 315 CURVE SMOOTH",
"104 288 OFFCURVE",
"125 267 OFFCURVE",
"152 267 CURVE SMOOTH"
);
},
{
closed = 1;
nodes = (
"175 -5 OFFCURVE",
"196 16 OFFCURVE",
"196 43 CURVE SMOOTH",
"196 70 OFFCURVE",
"175 91 OFFCURVE",
"148 91 CURVE SMOOTH",
"121 91 OFFCURVE",
"100 70 OFFCURVE",
"100 43 CURVE SMOOTH",
"100 16 OFFCURVE",
"121 -5 OFFCURVE",
"148 -5 CURVE SMOOTH"
);
}
);
width = 221;
}
);
note = colon;
unicode = 003A;
},
{
glyphname = semicolon;
lastChange = "2021-05-05 07:33:14 +0000";
layers = (
{
layerId = "68CC9319-F234-4FBF-AF6F-F394745E3D3F";
paths = (
{
closed = 1;
nodes = (
"127 -114 OFFCURVE",
"131 -113 OFFCURVE",
"134 -110 CURVE SMOOTH",
"155 -91 OFFCURVE",
"183 -30 OFFCURVE",
"192 30 CURVE SMOOTH",
"192 33 OFFCURVE",
"193 35 OFFCURVE",
"193 38 CURVE SMOOTH",
"193 61 OFFCURVE",
"181 91 OFFCURVE",
"153 91 CURVE SMOOTH",
"116 91 OFFCURVE",
"100 65 OFFCURVE",
"100 41 CURVE SMOOTH",
"100 31 OFFCURVE",
"103 22 OFFCURVE",
"108 15 CURVE SMOOTH",
"119 0 OFFCURVE",
"127 0 OFFCURVE",
"146 -14 CURVE",
"138 -41 OFFCURVE",
"127 -76 OFFCURVE",
"116 -101 CURVE SMOOTH",
"115 -103 OFFCURVE",
"115 -105 OFFCURVE",
"115 -106 CURVE SMOOTH",
"115 -111 OFFCURVE",
"119 -114 OFFCURVE",
"124 -114 CURVE SMOOTH"
);
},
{
closed = 1;
nodes = (
"180 267 OFFCURVE",
"201 288 OFFCURVE",
"201 315 CURVE SMOOTH",
"201 342 OFFCURVE",
"180 363 OFFCURVE",
"153 363 CURVE SMOOTH",
"126 363 OFFCURVE",
"105 342 OFFCURVE",
"105 315 CURVE SMOOTH",
"105 288 OFFCURVE",
"126 267 OFFCURVE",
"153 267 CURVE SMOOTH"
);
}
);
width = 222;
}
);
note = semicolon;
unicode = 003B;
},
{
glyphname = less;
lastChange = "2021-05-05 07:33:14 +0000";
layers = (
{
layerId = "68CC9319-F234-4FBF-AF6F-F394745E3D3F";
paths = (
{
closed = 1;
nodes = (
"321 78 OFFCURVE",
"324 83 OFFCURVE",
"324 90 CURVE SMOOTH",
"324 101 OFFCURVE",
"315 117 OFFCURVE",
"301 123 CURVE",
"110 291 LINE",
"110 291 OFFCURVE",
"285 478 OFFCURVE",
"305 507 CURVE",
"310 512 OFFCURVE",
"313 521 OFFCURVE",
"313 529 CURVE SMOOTH",
"313 537 OFFCURVE",
"310 544 OFFCURVE",
"306 544 CURVE SMOOTH",
"304 544 OFFCURVE",
"303 543 OFFCURVE",
"301 542 CURVE",
"301 542 OFFCURVE",
"84 342 OFFCURVE",
"53 313 CURVE",
"46 308 OFFCURVE",
"42 290 OFFCURVE",
"42 272 CURVE SMOOTH",
"42 255 OFFCURVE",
"46 238 OFFCURVE",
"53 234 CURVE",
"53 234 OFFCURVE",
"257 100 OFFCURVE",
"301 81 CURVE SMOOTH",
"306 79 OFFCURVE",
"310 78 OFFCURVE",
"313 78 CURVE SMOOTH"
);
}
);
width = 362;
}
);
note = less;
unicode = 003C;
},
{
glyphname = equal;
lastChange = "2021-05-05 07:33:14 +0000";
layers = (
{
layerId = "68CC9319-F234-4FBF-AF6F-F394745E3D3F";
paths = (
{
closed = 1;
nodes = (
"441 378 LINE SMOOTH",
"453 378 OFFCURVE",
"461 391 OFFCURVE",
"463 398 CURVE SMOOTH",
"464 401 OFFCURVE",
"465 405 OFFCURVE",
"465 409 CURVE SMOOTH",
"465 416 OFFCURVE",
"462 424 OFFCURVE",
"451 424 CURVE SMOOTH",
"136 424 LINE SMOOTH",
"124 424 OFFCURVE",
"116 412 OFFCURVE",
"113 405 CURVE SMOOTH",
"112 402 OFFCURVE",
"111 398 OFFCURVE",
"111 395 CURVE SMOOTH",
"111 386 OFFCURVE",
"115 378 OFFCURVE",
"126 378 CURVE SMOOTH"
);
},
{
closed = 1;
nodes = (
"441 197 LINE SMOOTH",
"453 197 OFFCURVE",
"461 210 OFFCURVE",
"463 216 CURVE SMOOTH",
"464 219 OFFCURVE",
"465 223 OFFCURVE",
"465 227 CURVE SMOOTH",
"465 235 OFFCURVE",
"462 243 OFFCURVE",
"451 243 CURVE SMOOTH",
"136 243 LINE SMOOTH",
"124 243 OFFCURVE",
"116 231 OFFCURVE",
"113 224 CURVE SMOOTH",
"112 221 OFFCURVE",
"111 217 OFFCURVE",
"111 214 CURVE SMOOTH",
"111 205 OFFCURVE",
"115 197 OFFCURVE",
"126 197 CURVE SMOOTH"
);
}
);
width = 562;
}
);
note = equal;
unicode = 003D;
},
{
glyphname = greater;
lastChange = "2021-05-05 07:33:14 +0000";
layers = (
{
layerId = "68CC9319-F234-4FBF-AF6F-F394745E3D3F";
paths = (
{
closed = 1;
nodes = (
"111 79 OFFCURVE",
"112 80 OFFCURVE",
"114 81 CURVE",
"114 81 OFFCURVE",
"331 281 OFFCURVE",
"362 310 CURVE",
"370 315 OFFCURVE",
"373 333 OFFCURVE",
"373 351 CURVE SMOOTH",
"373 368 OFFCURVE",
"370 386 OFFCURVE",
"362 389 CURVE",
"362 389 OFFCURVE",
"158 523 OFFCURVE",
"114 542 CURVE SMOOTH",
"109 544 OFFCURVE",
"105 545 OFFCURVE",
"102 545 CURVE SMOOTH",
"94 545 OFFCURVE",
"91 540 OFFCURVE",
"91 533 CURVE SMOOTH",
"91 522 OFFCURVE",
"100 506 OFFCURVE",
"114 500 CURVE",
"305 331 LINE",
"305 331 OFFCURVE",
"130 144 OFFCURVE",
"110 116 CURVE",
"105 111 OFFCURVE",
"102 102 OFFCURVE",
"102 94 CURVE SMOOTH",
"102 86 OFFCURVE",
"105 79 OFFCURVE",
"109 79 CURVE SMOOTH"
);
}
);
width = 389;
}
);
note = greater;
unicode = 003E;
},
{
glyphname = question;
lastChange = "2021-05-05 07:33:14 +0000";
layers = (
{
layerId = "68CC9319-F234-4FBF-AF6F-F394745E3D3F";
paths = (
{
closed = 1;
nodes = (
"159 211 OFFCURVE",
"161 211 OFFCURVE",
"163 212 CURVE SMOOTH",
"168 214 OFFCURVE",
"171 217 OFFCURVE",
"171 221 CURVE SMOOTH",
"171 223 OFFCURVE",
"169 226 OFFCURVE",
"166 227 CURVE SMOOTH",
"154 232 OFFCURVE",
"145 244 OFFCURVE",
"145 266 CURVE SMOOTH",
"145 275 OFFCURVE",
"147 287 OFFCURVE",
"152 301 CURVE SMOOTH",
"173 356 OFFCURVE",
"211 381 OFFCURVE",
"253 418 CURVE SMOOTH",
"301 461 OFFCURVE",
"359 523 OFFCURVE",
"359 603 CURVE SMOOTH",
"359 661 OFFCURVE",
"317 707 OFFCURVE",
"238 707 CURVE SMOOTH",
"145 707 OFFCURVE",
"73 649 OFFCURVE",
"66 556 CURVE SMOOTH",
"66 555 OFFCURVE",
"66 554 OFFCURVE",
"66 553 CURVE SMOOTH",
"66 542 OFFCURVE",
"70 538 OFFCURVE",
"74 538 CURVE SMOOTH",
"77 538 OFFCURVE",
"80 541 OFFCURVE",
"81 545 CURVE SMOOTH",
"91 604 OFFCURVE",
"127 670 OFFCURVE",
"195 670 CURVE SMOOTH",
"235 670 OFFCURVE",
"262 642 OFFCURVE",
"262 595 CURVE SMOOTH",
"262 575 OFFCURVE",
"256 550 OFFCURVE",
"244 523 CURVE SMOOTH",
"220 470 OFFCURVE",
"187 413 OFFCURVE",
"159 374 CURVE SMOOTH",
"130 334 OFFCURVE",
"116 297 OFFCURVE",
"116 267 CURVE SMOOTH",
"116 258 OFFCURVE",
"118 249 OFFCURVE",
"120 241 CURVE SMOOTH",
"125 224 OFFCURVE",
"142 211 OFFCURVE",
"156 211 CURVE SMOOTH"
);
},
{
closed = 1;
nodes = (
"183 -5 OFFCURVE",
"204 16 OFFCURVE",
"204 43 CURVE SMOOTH",
"204 70 OFFCURVE",
"183 91 OFFCURVE",
"156 91 CURVE SMOOTH",
"129 91 OFFCURVE",
"108 70 OFFCURVE",
"108 43 CURVE SMOOTH",
"108 16 OFFCURVE",
"129 -5 OFFCURVE",
"156 -5 CURVE SMOOTH"
);
}
);
width = 366;
}
);
note = question;
unicode = 003F;
},
{
glyphname = at;
lastChange = "2021-05-05 07:33:19 +0000";
layers = (
{
layerId = "68CC9319-F234-4FBF-AF6F-F394745E3D3F";
paths = (
{
closed = 1;
nodes = (
"603 -24 OFFCURVE",
"736 26 OFFCURVE",
"809 110 CURVE SMOOTH",
"819 122 OFFCURVE",
"823 133 OFFCURVE",
"823 142 CURVE SMOOTH",
"823 156 OFFCURVE",
"814 165 OFFCURVE",
"802 165 CURVE SMOOTH",
"794 165 OFFCURVE",
"785 161 OFFCURVE",
"777 150 CURVE SMOOTH",
"707 59 OFFCURVE",
"581 1 OFFCURVE",
"456 1 CURVE SMOOTH",
"257 1 OFFCURVE",
"181 157 OFFCURVE",
"181 331 CURVE SMOOTH",
"181 502 OFFCURVE",
"293 681 OFFCURVE",
"471 681 CURVE SMOOTH",
"666 681 OFFCURVE",
"732 535 OFFCURVE",
"732 396 CURVE SMOOTH",
"732 272 OFFCURVE",
"679 153 OFFCURVE",
"617 153 CURVE SMOOTH",
"575 153 OFFCURVE",
"562 224 OFFCURVE",
"562 308 CURVE SMOOTH",
"562 412 OFFCURVE",
"581 535 OFFCURVE",
"588 565 CURVE",
"578 568 OFFCURVE",
"569 569 OFFCURVE",
"561 569 CURVE SMOOTH",
"534 569 OFFCURVE",
"518 556 OFFCURVE",
"509 543 CURVE",
"496 546 OFFCURVE",
"484 547 OFFCURVE",
"471 547 CURVE SMOOTH",
"412 547 OFFCURVE",
"357 516 OFFCURVE",
"325 453 CURVE SMOOTH",
"295 395 OFFCURVE",
"291 321 OFFCURVE",
"291 274 CURVE SMOOTH",
"291 263 OFFCURVE",
"291 253 OFFCURVE",
"291 245 CURVE SMOOTH",
"293 185 OFFCURVE",
"312 131 OFFCURVE",
"348 131 CURVE SMOOTH",
"349 131 LINE SMOOTH",
"410 131 OFFCURVE",
"472 289 OFFCURVE",
"491 370 CURVE",
"491 353 OFFCURVE",
"490 333 OFFCURVE",
"490 311 CURVE SMOOTH",
"490 227 OFFCURVE",
"502 122 OFFCURVE",
"594 122 CURVE SMOOTH",
"711 122 OFFCURVE",
"798 269 OFFCURVE",
"798 415 CURVE SMOOTH",
"798 561 OFFCURVE",
"708 705 OFFCURVE",
"473 705 CURVE SMOOTH",
"227 705 OFFCURVE",
"104 521 OFFCURVE",
"104 338 CURVE SMOOTH",
"104 103 OFFCURVE",
"228 -24 OFFCURVE",
"469 -24 CURVE SMOOTH"
);
},
{
closed = 1;
nodes = (
"372 210 OFFCURVE",
"363 221 OFFCURVE",
"363 251 CURVE SMOOTH",
"363 258 LINE SMOOTH",
"363 331 OFFCURVE",
"393 529 OFFCURVE",
"489 529 CURVE SMOOTH",
"499 529 OFFCURVE",
"505 522 OFFCURVE",
"505 502 CURVE SMOOTH",
"505 500 OFFCURVE",
"505 497 OFFCURVE",
"505 494 CURVE SMOOTH",
"498 402 OFFCURVE",
"458 311 OFFCURVE",
"411 234 CURVE SMOOTH",
"404 222 OFFCURVE",
"392 210 OFFCURVE",
"381 210 CURVE SMOOTH"
);
}
);
width = 870;
}
);
note = at;
unicode = 0040;
},
{
glyphname = A;
lastChange = "2021-05-05 07:33:14 +0000";
layers = (
{
anchors = (
{
name = bottom;
position = "{263, -1}";
},
{
name = ogonek;
position = "{653, -3}";
},
{
name = top;
position = "{504, 722}";
}
);
layerId = "68CC9319-F234-4FBF-AF6F-F394745E3D3F";
paths = (
{
closed = 1;
nodes = (
"615 -66 OFFCURVE",
"617 -66 OFFCURVE",
"619 -66 CURVE SMOOTH",
"646 -66 OFFCURVE",
"662 -49 OFFCURVE",
"662 -21 CURVE SMOOTH",
"662 -14 LINE SMOOTH",
"662 -7 OFFCURVE",
"659 -3 OFFCURVE",
"655 -3 CURVE SMOOTH",
"653 -3 OFFCURVE",
"650 -5 OFFCURVE",
"649 -10 CURVE SMOOTH",
"647 -18 OFFCURVE",
"638 -26 OFFCURVE",
"627 -26 CURVE SMOOTH",
"625 -26 LINE SMOOTH",
"588 -26 OFFCURVE",
"568 71 OFFCURVE",
"561 137 CURVE SMOOTH",
"556 179 OFFCURVE",
"555 222 OFFCURVE",
"555 265 CURVE SMOOTH",
"555 373 OFFCURVE",
"566 476 OFFCURVE",
"573 528 CURVE",
"584 541 OFFCURVE",
"594 556 OFFCURVE",
"603 571 CURVE SMOOTH",
"617 596 OFFCURVE",
"625 621 OFFCURVE",
"625 644 CURVE SMOOTH",
"625 688 OFFCURVE",
"594 722 OFFCURVE",
"515 722 CURVE SMOOTH",
"504 722 OFFCURVE",
"492 721 OFFCURVE",
"479 720 CURVE SMOOTH",
"310 701 OFFCURVE",
"146 580 OFFCURVE",
"89 402 CURVE",
"42 411 OFFCURVE",
"13 436 OFFCURVE",
"13 480 CURVE SMOOTH",
"13 509 OFFCURVE",
"22 542 OFFCURVE",
"43 557 CURVE SMOOTH",
"46 559 OFFCURVE",
"48 563 OFFCURVE",
"48 566 CURVE SMOOTH",
"48 569 OFFCURVE",
"46 572 OFFCURVE",
"42 572 CURVE SMOOTH",
"41 572 OFFCURVE",
"40 572 OFFCURVE",
"38 571 CURVE SMOOTH",
"0 551 OFFCURVE",
"-18 512 OFFCURVE",
"-18 475 CURVE SMOOTH",
"-18 414 OFFCURVE",
"22 384 OFFCURVE",
"80 373 CURVE",
"74 346 OFFCURVE",
"69 318 OFFCURVE",
"68 289 CURVE SMOOTH",
"67 279 OFFCURVE",
"67 270 OFFCURVE",
"67 261 CURVE SMOOTH",
"67 119 OFFCURVE",
"124 -4 OFFCURVE",
"233 -4 CURVE SMOOTH",
"243 -4 OFFCURVE",
"253 -3 OFFCURVE",
"263 -1 CURVE SMOOTH",
"366 18 OFFCURVE",
"445 165 OFFCURVE",
"482 298 CURVE",
"483 243 OFFCURVE",
"488 188 OFFCURVE",
"496 138 CURVE SMOOTH",
"514 27 OFFCURVE",
"550 -61 OFFCURVE",
"613 -66 CURVE SMOOTH"
);
},
{
closed = 1;
nodes = (
"178 26 OFFCURVE",
"144 125 OFFCURVE",
"144 244 CURVE SMOOTH",
"144 262 OFFCURVE",
"144 280 OFFCURVE",
"146 299 CURVE SMOOTH",
"148 321 OFFCURVE",
"152 345 OFFCURVE",
"158 368 CURVE",
"261 371 OFFCURVE",
"389 397 OFFCURVE",
"486 456 CURVE",
"485 441 LINE",
"479 413 OFFCURVE",
"470 381 OFFCURVE",
"462 348 CURVE SMOOTH",
"426 207 OFFCURVE",
"355 45 OFFCURVE",
"267 28 CURVE SMOOTH",
"261 27 OFFCURVE",
"256 26 OFFCURVE",
"251 26 CURVE SMOOTH"
);
},
{
closed = 1;
nodes = (
"212 540 OFFCURVE",
"326 683 OFFCURVE",
"475 701 CURVE SMOOTH",
"484 702 OFFCURVE",
"493 703 OFFCURVE",
"501 703 CURVE SMOOTH",
"561 703 OFFCURVE",
"587 673 OFFCURVE",
"587 633 CURVE SMOOTH",
"587 615 OFFCURVE",
"581 594 OFFCURVE",
"571 574 CURVE SMOOTH",
"570 571 OFFCURVE",
"568 569 OFFCURVE",
"567 566 CURVE",
"556 574 OFFCURVE",
"543 576 OFFCURVE",
"531 576 CURVE SMOOTH",
"516 576 OFFCURVE",
"503 572 OFFCURVE",
"502 568 CURVE SMOOTH",
"497 545 OFFCURVE",
"492 516 OFFCURVE",
"489 483 CURVE",
"398 421 OFFCURVE",
"268 400 OFFCURVE",
"166 397 CURVE"
);
}
);
width = 628;
}
);
note = A;
unicode = 0041;
},
{
glyphname = B;
lastChange = "2021-05-05 07:33:19 +0000";
layers = (
{
layerId = "68CC9319-F234-4FBF-AF6F-F394745E3D3F";
paths = (
{
closed = 1;
nodes = (
"543 -25 OFFCURVE",
"689 42 OFFCURVE",
"689 171 CURVE SMOOTH",
"689 288 OFFCURVE",
"580 322 OFFCURVE",
"473 328 CURVE",
"569 354 OFFCURVE",
"711 437 OFFCURVE",
"711 548 CURVE SMOOTH",
"711 674 OFFCURVE",
"532 706 OFFCURVE",
"386 706 CURVE SMOOTH",
"335 706 OFFCURVE",
"288 702 OFFCURVE",
"255 697 CURVE SMOOTH",
"109 674 OFFCURVE",
"-66 620 OFFCURVE",
"-66 503 CURVE SMOOTH",
"-66 462 OFFCURVE",
"-39 426 OFFCURVE",
"7 416 CURVE SMOOTH",
"19 413 OFFCURVE",
"33 412 OFFCURVE",
"46 412 CURVE SMOOTH",
"99 412 OFFCURVE",
"160 432 OFFCURVE",
"207 475 CURVE SMOOTH",
"220 487 OFFCURVE",
"225 502 OFFCURVE",
"225 510 CURVE SMOOTH",
"225 512 OFFCURVE",
"225 514 OFFCURVE",
"223 514 CURVE SMOOTH",
"222 514 OFFCURVE",
"221 513 OFFCURVE",
"220 512 CURVE SMOOTH",
"163 458 OFFCURVE",
"105 437 OFFCURVE",
"61 437 CURVE SMOOTH",
"18 437 OFFCURVE",
"-12 459 OFFCURVE",
"-12 493 CURVE SMOOTH",
"-12 595 OFFCURVE",
"270 649 OFFCURVE",
"351 656 CURVE SMOOTH",
"373 658 OFFCURVE",
"415 662 OFFCURVE",
"461 662 CURVE SMOOTH",
"555 662 OFFCURVE",
"666 647 OFFCURVE",
"666 571 CURVE SMOOTH",
"666 489 OFFCURVE",
"578 429 OFFCURVE",
"517 397 CURVE SMOOTH",
"461 368 OFFCURVE",
"404 355 OFFCURVE",
"342 353 CURVE SMOOTH",
"332 353 OFFCURVE",
"323 339 OFFCURVE",
"323 325 CURVE SMOOTH",
"323 310 OFFCURVE",
"332 295 OFFCURVE",
"358 295 CURVE SMOOTH",
"361 295 OFFCURVE",
"364 296 OFFCURVE",
"368 296 CURVE",
"393 308 OFFCURVE",
"420 311 OFFCURVE",
"446 311 CURVE SMOOTH",
"590 311 OFFCURVE",
"641 255 OFFCURVE",
"641 194 CURVE SMOOTH",
"641 95 OFFCURVE",
"499 33 OFFCURVE",
"428 33 CURVE SMOOTH",
"404 33 OFFCURVE",
"388 40 OFFCURVE",
"388 55 CURVE SMOOTH",
"388 93 OFFCURVE",
"484 177 OFFCURVE",
"585 194 CURVE SMOOTH",
"595 196 OFFCURVE",
"600 200 OFFCURVE",
"600 203 CURVE SMOOTH",
"600 206 OFFCURVE",
"597 208 OFFCURVE",
"589 208 CURVE SMOOTH",
"587 208 OFFCURVE",
"584 208 OFFCURVE",
"580 207 CURVE SMOOTH",
"443 184 OFFCURVE",
"345 90 OFFCURVE",
"345 33 CURVE SMOOTH",
"345 29 OFFCURVE",
"346 24 OFFCURVE",
"347 20 CURVE",
"342 19 OFFCURVE",
"337 18 OFFCURVE",
"333 18 CURVE SMOOTH",
"332 18 OFFCURVE",
"332 18 OFFCURVE",
"331 18 CURVE SMOOTH",
"296 20 OFFCURVE",
"288 105 OFFCURVE",
"288 173 CURVE SMOOTH",
"288 182 OFFCURVE",
"288 190 OFFCURVE",
"288 198 CURVE SMOOTH",
"294 380 OFFCURVE",
"352 568 OFFCURVE",
"361 605 CURVE",
"353 619 OFFCURVE",
"333 623 OFFCURVE",
"315 623 CURVE SMOOTH",
"298 623 OFFCURVE",
"282 619 OFFCURVE",
"280 615 CURVE SMOOTH",
"258 557 OFFCURVE",
"224 373 OFFCURVE",
"224 218 CURVE SMOOTH",
"224 195 OFFCURVE",
"224 173 OFFCURVE",
"226 152 CURVE SMOOTH",
"231 86 OFFCURVE",
"240 26 OFFCURVE",
"272 4 CURVE SMOOTH",
"279 -1 OFFCURVE",
"288 -3 OFFCURVE",
"297 -3 CURVE SMOOTH",
"317 -3 OFFCURVE",
"339 7 OFFCURVE",
"349 13 CURVE",
"362 -13 OFFCURVE",
"397 -25 OFFCURVE",
"441 -25 CURVE SMOOTH"
);
}
);
width = 705;
}
);
note = B;
unicode = 0042;
},
{
glyphname = C;
lastChange = "2021-05-05 07:33:14 +0000";
layers = (
{
anchors = (
{
name = bottom;
position = "{343, -32}";
},
{
name = top;
position = "{455, 710}";
}
);
layerId = "68CC9319-F234-4FBF-AF6F-F394745E3D3F";
paths = (
{
closed = 1;
nodes = (
"305 -38 OFFCURVE",
"317 -37 OFFCURVE",
"329 -36 CURVE SMOOTH",
"428 -26 OFFCURVE",
"529 26 OFFCURVE",
"589 106 CURVE SMOOTH",
"621 148 OFFCURVE",
"650 199 OFFCURVE",
"650 259 CURVE SMOOTH",
"650 260 LINE SMOOTH",
"650 265 OFFCURVE",
"643 270 OFFCURVE",
"638 270 CURVE SMOOTH",
"636 270 OFFCURVE",
"634 269 OFFCURVE",
"633 265 CURVE SMOOTH",
"616 149 OFFCURVE",
"467 13 OFFCURVE",
"334 0 CURVE SMOOTH",
"324 -1 OFFCURVE",
"314 -1 OFFCURVE",
"304 -1 CURVE SMOOTH",
"205 -1 OFFCURVE",
"123 52 OFFCURVE",
"123 211 CURVE SMOOTH",
"123 220 LINE SMOOTH",
"123 476 OFFCURVE",
"336 673 OFFCURVE",
"470 673 CURVE SMOOTH",
"473 673 OFFCURVE",
"475 673 OFFCURVE",
"477 673 CURVE SMOOTH",
"533 670 OFFCURVE",
"554 641 OFFCURVE",
"554 603 CURVE SMOOTH",
"554 584 OFFCURVE",
"549 563 OFFCURVE",
"540 541 CURVE SMOOTH",
"486 411 OFFCURVE",
"354 353 OFFCURVE",
"228 353 CURVE",
"228 345 OFFCURVE",
"234 329 OFFCURVE",
"252 328 CURVE SMOOTH",
"258 328 OFFCURVE",
"263 327 OFFCURVE",
"269 327 CURVE SMOOTH",
"426 327 OFFCURVE",
"598 460 OFFCURVE",
"598 590 CURVE SMOOTH",
"598 678 OFFCURVE",
"531 707 OFFCURVE",
"460 710 CURVE SMOOTH",
"455 710 OFFCURVE",
"450 710 OFFCURVE",
"445 710 CURVE SMOOTH",
"215 710 OFFCURVE",
"36 470 OFFCURVE",
"36 247 CURVE SMOOTH",
"36 233 OFFCURVE",
"36 218 OFFCURVE",
"38 204 CURVE SMOOTH",
"56 34 OFFCURVE",
"164 -38 OFFCURVE",
"293 -38 CURVE SMOOTH"
);
}
);
width = 647;
}
);
note = C;
unicode = 0043;
},
{
glyphname = D;
lastChange = "2021-05-05 07:33:14 +0000";
layers = (
{
anchors = (
{
name = bottom;
position = "{490, 0}";
},
{
name = center;
position = "{437, 350}";
},
{
name = top;
position = "{505, 700}";
}
);
layerId = "68CC9319-F234-4FBF-AF6F-F394745E3D3F";
paths = (
{
closed = 1;
nodes = (
"648 0 OFFCURVE",
"874 187 OFFCURVE",
"874 422 CURVE SMOOTH",
"874 516 OFFCURVE",
"827 591 OFFCURVE",
"752 641 CURVE SMOOTH",
"668 697 OFFCURVE",
"559 720 OFFCURVE",
"448 720 CURVE SMOOTH",
"354 720 OFFCURVE",
"259 703 OFFCURVE",
"179 676 CURVE SMOOTH",
"81 643 OFFCURVE",
"0 589 OFFCURVE",
"0 510 CURVE SMOOTH",
"0 469 OFFCURVE",
"27 433 OFFCURVE",
"73 423 CURVE SMOOTH",
"85 420 OFFCURVE",
"99 419 OFFCURVE",
"113 419 CURVE SMOOTH",
"166 419 OFFCURVE",
"227 439 OFFCURVE",
"274 482 CURVE SMOOTH",
"286 493 OFFCURVE",
"292 508 OFFCURVE",
"292 516 CURVE SMOOTH",
"292 519 OFFCURVE",
"291 521 OFFCURVE",
"289 521 CURVE SMOOTH",
"288 521 OFFCURVE",
"287 520 OFFCURVE",
"286 519 CURVE SMOOTH",
"229 465 OFFCURVE",
"171 444 OFFCURVE",
"127 444 CURVE SMOOTH",
"84 444 OFFCURVE",
"54 466 OFFCURVE",
"54 500 CURVE SMOOTH",
"54 551 OFFCURVE",
"127 599 OFFCURVE",
"208 625 CURVE SMOOTH",
"281 648 OFFCURVE",
"372 664 OFFCURVE",
"464 664 CURVE SMOOTH",
"567 664 OFFCURVE",
"670 644 OFFCURVE",
"746 596 CURVE SMOOTH",
"798 563 OFFCURVE",
"833 513 OFFCURVE",
"833 439 CURVE SMOOTH",
"833 237 OFFCURVE",
"614 56 OFFCURVE",
"394 56 CURVE SMOOTH",
"374 56 OFFCURVE",
"365 47 OFFCURVE",
"365 37 CURVE SMOOTH",
"365 21 OFFCURVE",
"386 0 OFFCURVE",
"424 0 CURVE SMOOTH"
);
},
{
closed = 1;
nodes = (
"363 -24 LINE",
"342 15 OFFCURVE",
"343 89 OFFCURVE",
"343 146 CURVE SMOOTH",
"343 150 LINE SMOOTH",
"343 308 OFFCURVE",
"391 470 OFFCURVE",
"434 595 CURVE",
"434 597 LINE",
"434 600 LINE",
"428 617 OFFCURVE",
"377 627 OFFCURVE",
"364 627 CURVE SMOOTH",
"360 627 OFFCURVE",
"354 626 OFFCURVE",
"353 622 CURVE",
"340 591 OFFCURVE",
"335 554 OFFCURVE",
"327 520 CURVE SMOOTH",
"308 437 OFFCURVE",
"283 295 OFFCURVE",
"283 175 CURVE SMOOTH",
"283 122 OFFCURVE",
"288 73 OFFCURVE",
"300 35 CURVE SMOOTH",
"310 6 OFFCURVE",
"328 -24 OFFCURVE",
"360 -24 CURVE SMOOTH"
);
}
);
width = 874;
}
);
note = D;
unicode = 0044;
},
{
glyphname = E;
lastChange = "2021-05-05 07:33:14 +0000";
layers = (
{
anchors = (
{
name = bottom;
position = "{343, -52}";
},
{
name = ogonek;
position = "{406, -32}";
},
{
name = top;
position = "{479, 707}";
},
{
name = topleft;
position = "{20, 700}";
}
);
layerId = "68CC9319-F234-4FBF-AF6F-F394745E3D3F";
paths = (
{
closed = 1;
nodes = (
"438 -56 OFFCURVE",
"580 5 OFFCURVE",
"643 78 CURVE SMOOTH",
"671 110 OFFCURVE",
"684 146 OFFCURVE",
"684 179 CURVE SMOOTH",
"684 232 OFFCURVE",
"648 276 OFFCURVE",
"581 276 CURVE SMOOTH",
"579 276 LINE SMOOTH",
"504 276 OFFCURVE",
"398 232 OFFCURVE",
"336 163 CURVE SMOOTH",
"321 146 OFFCURVE",
"315 133 OFFCURVE",
"315 125 CURVE SMOOTH",
"315 121 OFFCURVE",
"317 119 OFFCURVE",
"320 119 CURVE SMOOTH",
"323 119 OFFCURVE",
"329 123 OFFCURVE",
"335 130 CURVE SMOOTH",
"404 210 OFFCURVE",
"491 243 OFFCURVE",
"554 243 CURVE SMOOTH",
"602 243 OFFCURVE",
"636 224 OFFCURVE",
"636 192 CURVE SMOOTH",
"636 178 OFFCURVE",
"629 161 OFFCURVE",
"613 142 CURVE SMOOTH",
"578 101 OFFCURVE",
"493 50 OFFCURVE",
"397 26 CURVE SMOOTH",
"361 17 OFFCURVE",
"304 8 OFFCURVE",
"250 8 CURVE SMOOTH",
"169 8 OFFCURVE",
"93 28 OFFCURVE",
"93 96 CURVE SMOOTH",
"93 113 OFFCURVE",
"97 131 OFFCURVE",
"106 153 CURVE SMOOTH",
"165 293 OFFCURVE",
"358 336 OFFCURVE",
"491 336 CURVE SMOOTH",
"506 336 LINE SMOOTH",
"520 336 OFFCURVE",
"546 366 OFFCURVE",
"546 388 CURVE SMOOTH",
"546 399 OFFCURVE",
"539 407 OFFCURVE",
"519 407 CURVE SMOOTH",
"515 407 LINE",
"474 399 OFFCURVE",
"438 396 OFFCURVE",
"407 396 CURVE SMOOTH",
"332 396 OFFCURVE",
"285 416 OFFCURVE",
"261 444 CURVE",
"530 449 OFFCURVE",
"638 534 OFFCURVE",
"638 606 CURVE SMOOTH",
"638 660 OFFCURVE",
"577 707 OFFCURVE",
"479 707 CURVE SMOOTH",
"357 707 OFFCURVE",
"207 640 OFFCURVE",
"207 500 CURVE SMOOTH",
"207 487 OFFCURVE",
"209 475 OFFCURVE",
"212 464 CURVE",
"67 473 OFFCURVE",
"12 528 OFFCURVE",
"12 571 CURVE SMOOTH",
"12 602 OFFCURVE",
"39 627 OFFCURVE",
"80 627 CURVE SMOOTH",
"113 627 OFFCURVE",
"147 619 OFFCURVE",
"181 599 CURVE SMOOTH",
"184 597 OFFCURVE",
"189 596 OFFCURVE",
"192 596 CURVE SMOOTH",
"196 596 OFFCURVE",
"199 597 OFFCURVE",
"199 601 CURVE SMOOTH",
"199 604 OFFCURVE",
"196 610 OFFCURVE",
"187 619 CURVE SMOOTH",
"163 642 OFFCURVE",
"116 663 OFFCURVE",
"77 663 CURVE SMOOTH",
"11 663 OFFCURVE",
"-28 625 OFFCURVE",
"-28 580 CURVE SMOOTH",
"-28 520 OFFCURVE",
"43 449 OFFCURVE",
"220 444 CURVE",
"247 396 OFFCURVE",
"312 386 OFFCURVE",
"369 376 CURVE",
"268 358 OFFCURVE",
"95 283 OFFCURVE",
"60 163 CURVE SMOOTH",
"55 145 OFFCURVE",
"53 128 OFFCURVE",
"53 111 CURVE SMOOTH",
"53 71 OFFCURVE",
"65 37 OFFCURVE",
"84 15 CURVE SMOOTH",
"129 -37 OFFCURVE",
"205 -56 OFFCURVE",
"288 -56 CURVE SMOOTH"
);
},
{
closed = 1;
nodes = (
"245 473 OFFCURVE",
"243 484 OFFCURVE",
"243 495 CURVE SMOOTH",
"243 594 OFFCURVE",
"367 652 OFFCURVE",
"457 652 CURVE SMOOTH",
"522 652 OFFCURVE",
"566 618 OFFCURVE",
"566 580 CURVE SMOOTH",
"566 526 OFFCURVE",
"483 463 OFFCURVE",
"253 463 CURVE SMOOTH",
"250 463 LINE"
);
}
);
width = 685;
}
);
note = E;
unicode = 0045;
},
{
glyphname = F;
lastChange = "2021-05-05 07:33:14 +0000";
layers = (
{
layerId = "68CC9319-F234-4FBF-AF6F-F394745E3D3F";
paths = (
{
closed = 1;
nodes = (
"607 -53 OFFCURVE",
"628 -29 OFFCURVE",
"628 3 CURVE SMOOTH",
"628 5 LINE SMOOTH",
"628 11 OFFCURVE",
"625 15 OFFCURVE",
"622 15 CURVE SMOOTH",
"620 15 OFFCURVE",
"617 12 OFFCURVE",
"615 7 CURVE SMOOTH",
"611 -3 OFFCURVE",
"599 -12 OFFCURVE",
"586 -12 CURVE SMOOTH",
"546 -12 OFFCURVE",
"539 69 OFFCURVE",
"539 137 CURVE SMOOTH",
"539 153 OFFCURVE",
"540 168 OFFCURVE",
"540 181 CURVE SMOOTH",
"541 215 OFFCURVE",
"544 250 OFFCURVE",
"547 287 CURVE",
"626 300 OFFCURVE",
"711 325 OFFCURVE",
"748 341 CURVE",
"750 343 OFFCURVE",
"764 349 OFFCURVE",
"764 357 CURVE SMOOTH",
"764 359 LINE SMOOTH",
"763 364 OFFCURVE",
"759 365 OFFCURVE",
"756 365 CURVE SMOOTH",
"753 365 OFFCURVE",
"752 364 OFFCURVE",
"749 362 CURVE",
"700 343 OFFCURVE",
"625 335 OFFCURVE",
"553 334 CURVE",
"567 445 OFFCURVE",
"588 555 OFFCURVE",
"601 616 CURVE",
"660 607 OFFCURVE",
"717 598 OFFCURVE",
"775 598 CURVE SMOOTH",
"793 598 OFFCURVE",
"812 599 OFFCURVE",
"830 601 CURVE SMOOTH",
"887 607 OFFCURVE",
"908 635 OFFCURVE",
"908 661 CURVE SMOOTH",
"908 687 OFFCURVE",
"887 711 OFFCURVE",
"862 711 CURVE SMOOTH",
"859 711 OFFCURVE",
"858 708 OFFCURVE",
"858 706 CURVE SMOOTH",
"858 705 OFFCURVE",
"858 704 OFFCURVE",
"859 703 CURVE",
"868 698 OFFCURVE",
"872 691 OFFCURVE",
"872 682 CURVE SMOOTH",
"872 668 OFFCURVE",
"860 652 OFFCURVE",
"837 647 CURVE SMOOTH",
"818 643 OFFCURVE",
"797 641 OFFCURVE",
"774 641 CURVE SMOOTH",
"725 641 OFFCURVE",
"668 649 OFFCURVE",
"610 659 CURVE",
"610 678 OFFCURVE",
"581 686 OFFCURVE",
"548 686 CURVE SMOOTH",
"544 686 OFFCURVE",
"538 686 OFFCURVE",
"537 682 CURVE SMOOTH",
"536 679 OFFCURVE",
"535 676 OFFCURVE",
"534 673 CURVE",
"466 686 OFFCURVE",
"399 697 OFFCURVE",
"343 697 CURVE SMOOTH",
"108 697 OFFCURVE",
"12 585 OFFCURVE",
"12 491 CURVE SMOOTH",
"12 428 OFFCURVE",
"54 374 OFFCURVE",
"128 366 CURVE SMOOTH",
"140 365 OFFCURVE",
"153 364 OFFCURVE",
"166 364 CURVE SMOOTH",
"251 364 OFFCURVE",
"346 393 OFFCURVE",
"413 458 CURVE SMOOTH",
"429 474 OFFCURVE",
"434 482 OFFCURVE",
"434 486 CURVE SMOOTH",
"434 488 OFFCURVE",
"432 489 OFFCURVE",
"430 489 CURVE SMOOTH",
"425 489 OFFCURVE",
"419 487 OFFCURVE",
"418 486 CURVE SMOOTH",
"354 440 OFFCURVE",
"255 401 OFFCURVE",
"202 394 CURVE SMOOTH",
"190 392 OFFCURVE",
"179 392 OFFCURVE",
"169 392 CURVE SMOOTH",
"99 392 OFFCURVE",
"66 426 OFFCURVE",
"66 468 CURVE SMOOTH",
"66 527 OFFCURVE",
"130 603 OFFCURVE",
"253 629 CURVE SMOOTH",
"294 638 OFFCURVE",
"335 641 OFFCURVE",
"374 641 CURVE SMOOTH",
"424 641 OFFCURVE",
"473 636 OFFCURVE",
"521 629 CURVE",
"508 572 OFFCURVE",
"496 495 OFFCURVE",
"488 413 CURVE SMOOTH",
"486 396 OFFCURVE",
"484 369 OFFCURVE",
"481 336 CURVE",
"474 336 LINE SMOOTH",
"442 336 OFFCURVE",
"410 342 OFFCURVE",
"378 351 CURVE",
"377 351 LINE SMOOTH",
"375 351 OFFCURVE",
"375 349 OFFCURVE",
"375 346 CURVE SMOOTH",
"375 331 OFFCURVE",
"390 290 OFFCURVE",
"408 284 CURVE SMOOTH",
"420 280 OFFCURVE",
"437 278 OFFCURVE",
"456 278 CURVE SMOOTH",
"463 278 OFFCURVE",
"470 278 OFFCURVE",
"477 279 CURVE",
"476 254 OFFCURVE",
"475 229 OFFCURVE",
"475 203 CURVE SMOOTH",
"475 77 OFFCURVE",
"494 -53 OFFCURVE",
"574 -53 CURVE SMOOTH"
);
}
);
width = 745;
}
);
note = F;
unicode = 0046;
},
{
glyphname = G;
lastChange = "2021-05-05 07:33:19 +0000";
layers = (
{
anchors = (
{
name = bottom;
position = "{398, -297}";
},
{
name = top;
position = "{460, 704}";
}
);
layerId = "68CC9319-F234-4FBF-AF6F-F394745E3D3F";
paths = (
{
closed = 1;
nodes = (
"471 -297 OFFCURVE",
"604 -182 OFFCURVE",
"604 109 CURVE SMOOTH",
"604 120 LINE SMOOTH",
"604 140 OFFCURVE",
"670 179 OFFCURVE",
"691 179 CURVE SMOOTH",
"694 179 LINE",
"695 179 LINE SMOOTH",
"698 179 OFFCURVE",
"700 182 OFFCURVE",
"700 185 CURVE SMOOTH",
"700 189 OFFCURVE",
"698 194 OFFCURVE",
"693 195 CURVE",
"691 196 OFFCURVE",
"689 196 OFFCURVE",
"686 196 CURVE SMOOTH",
"671 196 OFFCURVE",
"642 186 OFFCURVE",
"606 165 CURVE",
"608 217 OFFCURVE",
"603 416 OFFCURVE",
"642 448 CURVE SMOOTH",
"644 450 OFFCURVE",
"646 452 OFFCURVE",
"646 454 CURVE SMOOTH",
"646 457 OFFCURVE",
"642 460 OFFCURVE",
"631 460 CURVE SMOOTH",
"621 460 LINE SMOOTH",
"594 460 OFFCURVE",
"536 451 OFFCURVE",
"528 355 CURVE",
"512 295 OFFCURVE",
"485 239 OFFCURVE",
"452 190 CURVE SMOOTH",
"384 90 OFFCURVE",
"293 23 OFFCURVE",
"225 23 CURVE SMOOTH",
"158 23 OFFCURVE",
"128 87 OFFCURVE",
"128 174 CURVE SMOOTH",
"128 213 OFFCURVE",
"134 256 OFFCURVE",
"145 301 CURVE",
"196 302 OFFCURVE",
"255 309 OFFCURVE",
"310 323 CURVE SMOOTH",
"424 352 OFFCURVE",
"609 458 OFFCURVE",
"609 603 CURVE SMOOTH",
"609 682 OFFCURVE",
"550 704 OFFCURVE",
"486 704 CURVE SMOOTH",
"460 704 OFFCURVE",
"433 700 OFFCURVE",
"408 695 CURVE SMOOTH",
"231 656 OFFCURVE",
"115 497 OFFCURVE",
"71 340 CURVE",
"25 354 OFFCURVE",
"-14 381 OFFCURVE",
"-14 425 CURVE SMOOTH",
"-14 448 OFFCURVE",
"5 478 OFFCURVE",
"22 487 CURVE SMOOTH",
"27 490 OFFCURVE",
"30 494 OFFCURVE",
"30 497 CURVE SMOOTH",
"30 500 OFFCURVE",
"27 502 OFFCURVE",
"23 502 CURVE SMOOTH",
"22 502 OFFCURVE",
"20 502 OFFCURVE",
"18 501 CURVE SMOOTH",
"-10 490 OFFCURVE",
"-54 459 OFFCURVE",
"-54 413 CURVE SMOOTH",
"-54 352 OFFCURVE",
"-4 320 OFFCURVE",
"63 307 CURVE",
"55 272 OFFCURVE",
"51 237 OFFCURVE",
"51 205 CURVE SMOOTH",
"51 86 OFFCURVE",
"102 -7 OFFCURVE",
"210 -7 CURVE SMOOTH",
"295 -7 OFFCURVE",
"398 58 OFFCURVE",
"464 158 CURVE SMOOTH",
"482 186 OFFCURVE",
"512 243 OFFCURVE",
"535 295 CURVE",
"538 238 OFFCURVE",
"542 161 OFFCURVE",
"542 125 CURVE",
"440 63 OFFCURVE",
"360 -20 OFFCURVE",
"310 -126 CURVE SMOOTH",
"296 -156 OFFCURVE",
"290 -183 OFFCURVE",
"290 -206 CURVE SMOOTH",
"290 -264 OFFCURVE",
"328 -297 OFFCURVE",
"378 -297 CURVE SMOOTH"
);
},
{
closed = 1;
nodes = (
"357 -271 OFFCURVE",
"331 -243 OFFCURVE",
"331 -194 CURVE SMOOTH",
"331 -171 OFFCURVE",
"337 -143 OFFCURVE",
"350 -112 CURVE SMOOTH",
"388 -20 OFFCURVE",
"507 79 OFFCURVE",
"539 98 CURVE",
"535 3 OFFCURVE",
"528 -91 OFFCURVE",
"491 -177 CURVE SMOOTH",
"463 -242 OFFCURVE",
"423 -271 OFFCURVE",
"390 -271 CURVE SMOOTH"
);
},
{
closed = 1;
nodes = (
"195 472 OFFCURVE",
"291 622 OFFCURVE",
"420 661 CURVE SMOOTH",
"441 667 OFFCURVE",
"460 671 OFFCURVE",
"478 671 CURVE SMOOTH",
"526 671 OFFCURVE",
"561 648 OFFCURVE",
"561 596 CURVE SMOOTH",
"561 484 OFFCURVE",
"397 371 OFFCURVE",
"305 347 CURVE SMOOTH",
"256 334 OFFCURVE",
"206 327 OFFCURVE",
"161 327 CURVE SMOOTH",
"152 327 LINE"
);
}
);
width = 695;
}
);
note = G;
unicode = 0047;
},
{
glyphname = H;
lastChange = "2021-05-05 07:33:14 +0000";
layers = (
{
layerId = "68CC9319-F234-4FBF-AF6F-F394745E3D3F";
paths = (
{
closed = 1;
nodes = (
"241 -103 OFFCURVE",
"339 -29 OFFCURVE",
"387 68 CURVE SMOOTH",
"421 137 OFFCURVE",
"433 225 OFFCURVE",
"435 306 CURVE",
"482 309 OFFCURVE",
"528 309 OFFCURVE",
"572 309 CURVE SMOOTH",
"611 309 OFFCURVE",
"651 307 OFFCURVE",
"687 307 CURVE",
"685 276 OFFCURVE",
"684 241 OFFCURVE",
"684 206 CURVE SMOOTH",
"684 83 OFFCURVE",
"702 -46 OFFCURVE",
"793 -46 CURVE SMOOTH",
"826 -46 OFFCURVE",
"854 -29 OFFCURVE",
"854 3 CURVE SMOOTH",
"854 4 LINE SMOOTH",
"854 11 OFFCURVE",
"851 15 OFFCURVE",
"848 15 CURVE SMOOTH",
"845 15 OFFCURVE",
"843 12 OFFCURVE",
"841 7 CURVE SMOOTH",
"838 -3 OFFCURVE",
"820 -18 OFFCURVE",
"807 -18 CURVE SMOOTH",
"761 -18 OFFCURVE",
"749 71 OFFCURVE",
"749 160 CURVE SMOOTH",
"749 219 OFFCURVE",
"754 278 OFFCURVE",
"757 311 CURVE",
"779 313 OFFCURVE",
"796 317 OFFCURVE",
"808 325 CURVE SMOOTH",
"813 329 OFFCURVE",
"817 335 OFFCURVE",
"817 339 CURVE SMOOTH",
"817 342 OFFCURVE",
"815 344 OFFCURVE",
"811 344 CURVE SMOOTH",
"807 344 OFFCURVE",
"803 343 OFFCURVE",
"796 340 CURVE SMOOTH",
"789 337 OFFCURVE",
"776 335 OFFCURVE",
"759 335 CURVE",
"771 483 OFFCURVE",
"795 626 OFFCURVE",
"802 658 CURVE",
"802 678 OFFCURVE",
"773 686 OFFCURVE",
"738 686 CURVE",
"738 686 OFFCURVE",
"728 686 OFFCURVE",
"727 682 CURVE SMOOTH",
"709 585 OFFCURVE",
"695 447 OFFCURVE",
"689 335 CURVE",
"655 336 OFFCURVE",
"619 338 OFFCURVE",
"584 340 CURVE SMOOTH",
"560 341 OFFCURVE",
"535 342 OFFCURVE",
"512 342 CURVE SMOOTH",
"486 342 OFFCURVE",
"460 341 OFFCURVE",
"435 340 CURVE",
"434 426 OFFCURVE",
"424 499 OFFCURVE",
"421 524 CURVE",
"457 550 OFFCURVE",
"482 608 OFFCURVE",
"482 649 CURVE SMOOTH",
"482 676 OFFCURVE",
"472 695 OFFCURVE",
"449 695 CURVE SMOOTH",
"405 695 OFFCURVE",
"397 637 OFFCURVE",
"397 585 CURVE SMOOTH",
"397 560 OFFCURVE",
"398 537 OFFCURVE",
"399 521 CURVE",
"345 481 OFFCURVE",
"233 426 OFFCURVE",
"130 426 CURVE SMOOTH",
"67 426 OFFCURVE",
"35 457 OFFCURVE",
"35 492 CURVE SMOOTH",
"35 535 OFFCURVE",
"83 582 OFFCURVE",
"180 582 CURVE SMOOTH",
"208 582 OFFCURVE",
"259 577 OFFCURVE",
"289 569 CURVE SMOOTH",
"292 568 OFFCURVE",
"295 568 OFFCURVE",
"297 568 CURVE SMOOTH",
"304 568 OFFCURVE",
"309 570 OFFCURVE",
"309 574 CURVE SMOOTH",
"309 576 OFFCURVE",
"306 580 OFFCURVE",
"299 584 CURVE SMOOTH",
"274 599 OFFCURVE",
"220 615 OFFCURVE",
"158 615 CURVE SMOOTH",
"30 615 OFFCURVE",
"-35 548 OFFCURVE",
"-35 489 CURVE SMOOTH",
"-35 440 OFFCURVE",
"8 396 OFFCURVE",
"94 396 CURVE SMOOTH",
"189 396 OFFCURVE",
"320 437 OFFCURVE",
"399 505 CURVE",
"399 467 OFFCURVE",
"398 407 OFFCURVE",
"389 337 CURVE",
"253 326 OFFCURVE",
"132 288 OFFCURVE",
"36 199 CURVE SMOOTH",
"-13 153 OFFCURVE",
"-38 95 OFFCURVE",
"-38 42 CURVE SMOOTH",
"-38 -36 OFFCURVE",
"16 -103 OFFCURVE",
"125 -103 CURVE SMOOTH"
);
},
{
closed = 1;
nodes = (
"34 -76 OFFCURVE",
"13 -42 OFFCURVE",
"13 2 CURVE SMOOTH",
"13 64 OFFCURVE",
"54 145 OFFCURVE",
"86 178 CURVE SMOOTH",
"164 258 OFFCURVE",
"273 289 OFFCURVE",
"384 301 CURVE",
"374 242 OFFCURVE",
"357 178 OFFCURVE",
"331 122 CURVE SMOOTH",
"281 16 OFFCURVE",
"200 -76 OFFCURVE",
"93 -76 CURVE SMOOTH"
);
}
);
width = 836;
}
);
note = H;
unicode = 0048;
},
{
glyphname = I;
lastChange = "2021-05-05 07:33:14 +0000";
layers = (
{
anchors = (
{
name = bottom;
position = "{165, -14}";
},
{
name = ogonek;
position = "{252, -7}";
},
{
name = top;
position = "{307, 721}";
},
{
name = topleft;
position = "{20, 700}";
}
);
layerId = "68CC9319-F234-4FBF-AF6F-F394745E3D3F";
paths = (
{
closed = 1;
nodes = (
"165 -14 LINE SMOOTH",
"243 -14 OFFCURVE",
"305 33 OFFCURVE",
"350 111 CURVE",
"357 111 LINE",
"370 111 LINE SMOOTH",
"464 111 OFFCURVE",
"513 135 OFFCURVE",
"513 161 CURVE SMOOTH",
"513 163 LINE SMOOTH",
"513 168 OFFCURVE",
"509 172 OFFCURVE",
"503 172 CURVE SMOOTH",
"499 172 OFFCURVE",
"494 170 OFFCURVE",
"490 165 CURVE SMOOTH",
"482 155 OFFCURVE",
"471 146 OFFCURVE",
"447 140 CURVE SMOOTH",
"438 138 OFFCURVE",
"428 137 OFFCURVE",
"417 137 CURVE SMOOTH",
"402 137 OFFCURVE",
"384 139 OFFCURVE",
"366 142 CURVE",
"396 206 OFFCURVE",
"416 288 OFFCURVE",
"426 382 CURVE SMOOTH",
"429 412 OFFCURVE",
"434 459 OFFCURVE",
"434 508 CURVE SMOOTH",
"434 610 OFFCURVE",
"413 721 OFFCURVE",
"311 721 CURVE SMOOTH",
"307 721 OFFCURVE",
"303 721 OFFCURVE",
"299 721 CURVE SMOOTH",
"214 714 OFFCURVE",
"181 621 OFFCURVE",
"181 517 CURVE SMOOTH",
"181 411 OFFCURVE",
"215 295 OFFCURVE",
"261 246 CURVE SMOOTH",
"266 240 OFFCURVE",
"273 238 OFFCURVE",
"279 238 CURVE SMOOTH",
"285 238 OFFCURVE",
"289 240 OFFCURVE",
"289 244 CURVE SMOOTH",
"289 247 OFFCURVE",
"287 250 OFFCURVE",
"283 254 CURVE SMOOTH",
"252 284 OFFCURVE",
"226 402 OFFCURVE",
"226 508 CURVE SMOOTH",
"226 603 OFFCURVE",
"247 688 OFFCURVE",
"305 688 CURVE SMOOTH",
"333 688 OFFCURVE",
"347 655 OFFCURVE",
"353 621 CURVE SMOOTH",
"357 597 OFFCURVE",
"360 560 OFFCURVE",
"360 517 CURVE SMOOTH",
"360 456 OFFCURVE",
"355 383 OFFCURVE",
"343 311 CURVE SMOOTH",
"333 252 OFFCURVE",
"322 199 OFFCURVE",
"308 154 CURVE",
"216 178 OFFCURVE",
"112 223 OFFCURVE",
"69 264 CURVE SMOOTH",
"55 277 OFFCURVE",
"43 282 OFFCURVE",
"34 282 CURVE SMOOTH",
"29 282 OFFCURVE",
"24 281 OFFCURVE",
"20 279 CURVE SMOOTH",
"3 272 OFFCURVE",
"-4 250 OFFCURVE",
"-5 230 CURVE SMOOTH",
"-6 219 OFFCURVE",
"-6 208 OFFCURVE",
"-6 197 CURVE SMOOTH",
"-6 103 OFFCURVE",
"19 -14 OFFCURVE",
"159 -14 CURVE SMOOTH"
);
},
{
closed = 1;
nodes = (
"70 11 OFFCURVE",
"47 108 OFFCURVE",
"45 198 CURVE",
"103 171 OFFCURVE",
"208 133 OFFCURVE",
"295 118 CURVE",
"268 51 OFFCURVE",
"230 11 OFFCURVE",
"170 11 CURVE SMOOTH"
);
}
);
width = 477;
}
);
note = I;
unicode = 0049;
},
{
glyphname = J;
lastChange = "2021-05-05 07:33:14 +0000";
layers = (
{
layerId = "68CC9319-F234-4FBF-AF6F-F394745E3D3F";
paths = (
{
closed = 1;
nodes = (
"383 -126 OFFCURVE",
"489 219 OFFCURVE",
"497 361 CURVE SMOOTH",
"497 369 OFFCURVE",
"498 377 OFFCURVE",
"498 386 CURVE",
"526 391 OFFCURVE",
"555 394 OFFCURVE",
"585 394 CURVE SMOOTH",
"596 394 OFFCURVE",
"608 393 OFFCURVE",
"619 393 CURVE SMOOTH",
"622 393 LINE SMOOTH",
"632 393 OFFCURVE",
"638 397 OFFCURVE",
"638 401 CURVE SMOOTH",
"638 404 OFFCURVE",
"633 408 OFFCURVE",
"622 409 CURVE SMOOTH",
"606 410 OFFCURVE",
"590 411 OFFCURVE",
"575 411 CURVE SMOOTH",
"549 411 OFFCURVE",
"523 409 OFFCURVE",
"498 406 CURVE",
"498 407 LINE SMOOTH",
"498 534 OFFCURVE",
"467 700 OFFCURVE",
"311 700 CURVE SMOOTH",
"305 700 LINE SMOOTH",
"173 700 OFFCURVE",
"39 543 OFFCURVE",
"22 401 CURVE SMOOTH",
"21 394 OFFCURVE",
"21 387 OFFCURVE",
"21 379 CURVE SMOOTH",
"21 347 OFFCURVE",
"30 315 OFFCURVE",
"61 315 CURVE SMOOTH",
"68 315 LINE",
"99 319 OFFCURVE",
"114 348 OFFCURVE",
"114 359 CURVE SMOOTH",
"114 362 OFFCURVE",
"113 364 OFFCURVE",
"111 364 CURVE SMOOTH",
"110 364 OFFCURVE",
"109 364 OFFCURVE",
"108 363 CURVE SMOOTH",
"103 360 OFFCURVE",
"98 358 OFFCURVE",
"94 358 CURVE SMOOTH",
"80 358 OFFCURVE",
"73 374 OFFCURVE",
"73 400 CURVE SMOOTH",
"73 407 OFFCURVE",
"74 415 OFFCURVE",
"75 424 CURVE SMOOTH",
"90 544 OFFCURVE",
"174 653 OFFCURVE",
"276 665 CURVE SMOOTH",
"282 666 OFFCURVE",
"289 666 OFFCURVE",
"294 666 CURVE SMOOTH",
"408 666 OFFCURVE",
"417 526 OFFCURVE",
"417 429 CURVE SMOOTH",
"417 410 LINE SMOOTH",
"417 403 OFFCURVE",
"417 396 OFFCURVE",
"416 388 CURVE",
"246 337 OFFCURVE",
"111 210 OFFCURVE",
"89 67 CURVE SMOOTH",
"86 47 OFFCURVE",
"85 30 OFFCURVE",
"85 13 CURVE SMOOTH",
"85 -82 OFFCURVE",
"131 -126 OFFCURVE",
"197 -126 CURVE SMOOTH"
);
},
{
closed = 1;
nodes = (
"157 -97 OFFCURVE",
"131 -64 OFFCURVE",
"131 -2 CURVE SMOOTH",
"131 19 OFFCURVE",
"134 43 OFFCURVE",
"140 70 CURVE SMOOTH",
"167 188 OFFCURVE",
"272 306 OFFCURVE",
"414 362 CURVE",
"401 213 OFFCURVE",
"337 -97 OFFCURVE",
"193 -97 CURVE SMOOTH"
);
}
);
width = 536;
}
);
note = J;
unicode = 004A;
},
{
glyphname = K;
lastChange = "2021-05-05 07:33:14 +0000";
layers = (
{
anchors = (
{
name = bottom;
position = "{303, 0}";
},
{
name = top;
position = "{303, 700}";
}
);
layerId = "68CC9319-F234-4FBF-AF6F-F394745E3D3F";
paths = (
{
closed = 1;
nodes = (
"559 -9 OFFCURVE",
"605 13 OFFCURVE",
"605 63 CURVE SMOOTH",
"605 82 OFFCURVE",
"598 105 OFFCURVE",
"583 132 CURVE SMOOTH",
"572 152 OFFCURVE",
"556 172 OFFCURVE",
"543 186 CURVE SMOOTH",
"532 198 OFFCURVE",
"521 205 OFFCURVE",
"514 205 CURVE SMOOTH",
"511 205 OFFCURVE",
"509 203 OFFCURVE",
"509 199 CURVE SMOOTH",
"509 194 OFFCURVE",
"512 187 OFFCURVE",
"519 175 CURVE SMOOTH",
"536 149 OFFCURVE",
"563 108 OFFCURVE",
"563 75 CURVE SMOOTH",
"563 74 OFFCURVE",
"563 72 OFFCURVE",
"563 71 CURVE SMOOTH",
"562 51 OFFCURVE",
"549 44 OFFCURVE",
"533 44 CURVE SMOOTH",
"506 44 OFFCURVE",
"468 63 OFFCURVE",
"452 72 CURVE SMOOTH",
"373 114 OFFCURVE",
"298 207 OFFCURVE",
"244 304 CURVE SMOOTH",
"230 330 OFFCURVE",
"223 354 OFFCURVE",
"223 376 CURVE SMOOTH",
"223 398 OFFCURVE",
"230 418 OFFCURVE",
"241 437 CURVE SMOOTH",
"282 506 OFFCURVE",
"524 652 OFFCURVE",
"588 665 CURVE SMOOTH",
"600 668 OFFCURVE",
"607 672 OFFCURVE",
"607 676 CURVE SMOOTH",
"607 680 OFFCURVE",
"598 684 OFFCURVE",
"580 684 CURVE SMOOTH",
"577 684 LINE SMOOTH",
"502 684 OFFCURVE",
"292 552 OFFCURVE",
"213 481 CURVE SMOOTH",
"167 440 OFFCURVE",
"150 405 OFFCURVE",
"150 366 CURVE SMOOTH",
"150 338 OFFCURVE",
"159 309 OFFCURVE",
"172 274 CURVE SMOOTH",
"209 177 OFFCURVE",
"298 74 OFFCURVE",
"389 22 CURVE SMOOTH",
"423 2 OFFCURVE",
"466 -9 OFFCURVE",
"505 -9 CURVE SMOOTH"
);
},
{
closed = 1;
nodes = (
"144 -53 OFFCURVE",
"152 -51 OFFCURVE",
"160 -47 CURVE SMOOTH",
"180 -38 OFFCURVE",
"189 -16 OFFCURVE",
"189 3 CURVE SMOOTH",
"189 5 LINE SMOOTH",
"189 11 OFFCURVE",
"186 15 OFFCURVE",
"183 15 CURVE SMOOTH",
"181 15 OFFCURVE",
"178 12 OFFCURVE",
"176 7 CURVE SMOOTH",
"172 -3 OFFCURVE",
"160 -12 OFFCURVE",
"147 -12 CURVE SMOOTH",
"107 -12 OFFCURVE",
"100 69 OFFCURVE",
"100 137 CURVE SMOOTH",
"100 153 OFFCURVE",
"101 168 OFFCURVE",
"101 181 CURVE SMOOTH",
"107 363 OFFCURVE",
"160 605 OFFCURVE",
"171 649 CURVE",
"160 677 OFFCURVE",
"143 686 OFFCURVE",
"109 686 CURVE SMOOTH",
"105 686 OFFCURVE",
"99 686 OFFCURVE",
"98 682 CURVE SMOOTH",
"68 597 OFFCURVE",
"41 401 OFFCURVE",
"41 232 CURVE SMOOTH",
"41 155 OFFCURVE",
"46 83 OFFCURVE",
"60 30 CURVE SMOOTH",
"69 -6 OFFCURVE",
"97 -53 OFFCURVE",
"136 -53 CURVE SMOOTH"
);
}
);
width = 606;
}
);
note = K;
unicode = 004B;
},
{
glyphname = L;
lastChange = "2021-05-05 07:33:14 +0000";
layers = (
{
anchors = (
{
name = bottom;
position = "{250, -19}";
},
{
name = center;
position = "{250, 350}";
},
{
name = top;
position = "{399, 733}";
},
{
name = topright;
position = "{599, 700}";
}
);
layerId = "68CC9319-F234-4FBF-AF6F-F394745E3D3F";
paths = (
{
closed = 1;
nodes = (
"468 -120 LINE SMOOTH",
"498 -120 OFFCURVE",
"527 -94 OFFCURVE",
"527 -51 CURVE SMOOTH",
"527 27 OFFCURVE",
"431 52 OFFCURVE",
"320 52 CURVE SMOOTH",
"265 52 OFFCURVE",
"207 46 OFFCURVE",
"155 38 CURVE",
"165 54 OFFCURVE",
"172 73 OFFCURVE",
"179 94 CURVE SMOOTH",
"227 247 OFFCURVE",
"200 498 OFFCURVE",
"265 620 CURVE SMOOTH",
"294 675 OFFCURVE",
"336 710 OFFCURVE",
"394 710 CURVE SMOOTH",
"464 710 OFFCURVE",
"498 623 OFFCURVE",
"498 526 CURVE SMOOTH",
"498 349 OFFCURVE",
"413 254 OFFCURVE",
"341 254 CURVE SMOOTH",
"286 254 OFFCURVE",
"264 314 OFFCURVE",
"264 371 CURVE SMOOTH",
"264 391 OFFCURVE",
"267 411 OFFCURVE",
"272 427 CURVE SMOOTH",
"274 433 OFFCURVE",
"275 438 OFFCURVE",
"275 442 CURVE SMOOTH",
"275 448 OFFCURVE",
"272 450 OFFCURVE",
"269 450 CURVE SMOOTH",
"264 450 OFFCURVE",
"257 445 OFFCURVE",
"254 440 CURVE SMOOTH",
"246 427 OFFCURVE",
"241 395 OFFCURVE",
"241 368 CURVE SMOOTH",
"241 361 OFFCURVE",
"241 354 OFFCURVE",
"242 348 CURVE SMOOTH",
"252 267 OFFCURVE",
"299 231 OFFCURVE",
"352 231 CURVE SMOOTH",
"480 231 OFFCURVE",
"551 379 OFFCURVE",
"551 513 CURVE SMOOTH",
"551 627 OFFCURVE",
"501 731 OFFCURVE",
"392 731 CURVE SMOOTH",
"317 731 OFFCURVE",
"258 701 OFFCURVE",
"215 652 CURVE SMOOTH",
"151 580 OFFCURVE",
"138 483 OFFCURVE",
"138 385 CURVE SMOOTH",
"138 317 OFFCURVE",
"144 248 OFFCURVE",
"144 187 CURVE SMOOTH",
"144 159 OFFCURVE",
"143 132 OFFCURVE",
"139 107 CURVE SMOOTH",
"134 78 OFFCURVE",
"126 51 OFFCURVE",
"111 29 CURVE",
"73 22 OFFCURVE",
"41 13 OFFCURVE",
"20 5 CURVE SMOOTH",
"13 2 OFFCURVE",
"10 -13 OFFCURVE",
"10 -26 CURVE SMOOTH",
"10 -31 OFFCURVE",
"10 -35 OFFCURVE",
"11 -39 CURVE SMOOTH",
"13 -48 OFFCURVE",
"17 -59 OFFCURVE",
"26 -61 CURVE",
"28 -61 OFFCURVE",
"31 -62 OFFCURVE",
"34 -62 CURVE SMOOTH",
"88 -62 OFFCURVE",
"281 4 OFFCURVE",
"401 4 CURVE SMOOTH",
"458 4 OFFCURVE",
"498 -11 OFFCURVE",
"498 -56 CURVE SMOOTH",
"498 -57 OFFCURVE",
"498 -58 OFFCURVE",
"498 -60 CURVE SMOOTH",
"496 -99 OFFCURVE",
"471 -103 OFFCURVE",
"459 -108 CURVE SMOOTH",
"457 -109 OFFCURVE",
"455 -111 OFFCURVE",
"455 -113 CURVE SMOOTH",
"455 -116 OFFCURVE",
"459 -120 OFFCURVE",
"467 -120 CURVE SMOOTH"
);
}
);
width = 500;
}
);
note = L;
unicode = 004C;
},
{
glyphname = M;
lastChange = "2021-05-05 07:33:14 +0000";
layers = (
{
layerId = "68CC9319-F234-4FBF-AF6F-F394745E3D3F";
paths = (
{
closed = 1;
nodes = (
"1222 -237 OFFCURVE",
"1277 -192 OFFCURVE",
"1277 -149 CURVE SMOOTH",
"1277 -148 LINE SMOOTH",
"1277 -144 OFFCURVE",
"1274 -141 OFFCURVE",
"1271 -141 CURVE SMOOTH",
"1268 -141 OFFCURVE",
"1265 -143 OFFCURVE",
"1263 -147 CURVE SMOOTH",
"1247 -176 OFFCURVE",
"1209 -199 OFFCURVE",
"1168 -199 CURVE SMOOTH",
"1099 -199 OFFCURVE",
"1075 -131 OFFCURVE",
"1075 -38 CURVE SMOOTH",
"1075 12 OFFCURVE",
"1082 69 OFFCURVE",
"1093 127 CURVE SMOOTH",
"1119 262 OFFCURVE",
"1169 433 OFFCURVE",
"1178 473 CURVE SMOOTH",
"1192 533 OFFCURVE",
"1198 583 OFFCURVE",
"1198 623 CURVE SMOOTH",
"1198 699 OFFCURVE",
"1173 737 OFFCURVE",
"1123 737 CURVE SMOOTH",
"1118 737 LINE SMOOTH",
"1005 737 OFFCURVE",
"908 567 OFFCURVE",
"847 417 CURVE SMOOTH",
"839 398 OFFCURVE",
"824 358 OFFCURVE",
"815 334 CURVE",
"816 352 OFFCURVE",
"818 372 OFFCURVE",
"818 378 CURVE SMOOTH",
"820 407 OFFCURVE",
"822 434 OFFCURVE",
"822 458 CURVE SMOOTH",
"822 622 OFFCURVE",
"772 694 OFFCURVE",
"710 694 CURVE SMOOTH",
"629 694 OFFCURVE",
"527 573 OFFCURVE",
"484 369 CURVE",
"483 508 OFFCURVE",
"470 767 OFFCURVE",
"271 767 CURVE SMOOTH",
"201 767 OFFCURVE",
"140 718 OFFCURVE",
"85 641 CURVE SMOOTH",
"27 560 OFFCURVE",
"-2 457 OFFCURVE",
"-2 380 CURVE SMOOTH",
"-2 304 OFFCURVE",
"35 261 OFFCURVE",
"88 261 CURVE SMOOTH",
"108 261 OFFCURVE",
"131 267 OFFCURVE",
"154 280 CURVE SMOOTH",
"161 284 OFFCURVE",
"164 290 OFFCURVE",
"164 294 CURVE SMOOTH",
"164 298 OFFCURVE",
"161 302 OFFCURVE",
"158 302 CURVE SMOOTH",
"157 302 OFFCURVE",
"156 302 OFFCURVE",
"155 301 CURVE",
"139 292 OFFCURVE",
"124 288 OFFCURVE",
"112 288 CURVE SMOOTH",
"69 288 OFFCURVE",
"47 333 OFFCURVE",
"47 385 CURVE SMOOTH",
"47 492 OFFCURVE",
"76 568 OFFCURVE",
"116 630 CURVE SMOOTH",
"156 692 OFFCURVE",
"206 728 OFFCURVE",
"254 728 CURVE SMOOTH",
"335 728 OFFCURVE",
"408 625 OFFCURVE",
"408 372 CURVE SMOOTH",
"408 342 OFFCURVE",
"407 311 OFFCURVE",
"405 277 CURVE SMOOTH",
"397 144 OFFCURVE",
"376 21 OFFCURVE",
"369 -35 CURVE",
"370 -50 OFFCURVE",
"396 -65 OFFCURVE",
"420 -65 CURVE SMOOTH",
"447 -65 OFFCURVE",
"461 -55 OFFCURVE",
"462 -36 CURVE SMOOTH",
"470 146 OFFCURVE",
"486 289 OFFCURVE",
"499 340 CURVE SMOOTH",
"548 535 OFFCURVE",
"619 636 OFFCURVE",
"674 636 CURVE SMOOTH",
"721 636 OFFCURVE",
"756 563 OFFCURVE",
"756 413 CURVE SMOOTH",
"756 375 OFFCURVE",
"754 334 OFFCURVE",
"749 287 CURVE SMOOTH",
"741 207 OFFCURVE",
"732 135 OFFCURVE",
"716 56 CURVE",
"716 53 LINE SMOOTH",
"716 39 OFFCURVE",
"735 32 OFFCURVE",
"748 32 CURVE SMOOTH",
"752 32 LINE SMOOTH",
"773 34 OFFCURVE",
"792 53 OFFCURVE",
"796 83 CURVE SMOOTH",
"808 183 OFFCURVE",
"828 288 OFFCURVE",
"883 426 CURVE SMOOTH",
"944 578 OFFCURVE",
"1029 686 OFFCURVE",
"1093 686 CURVE SMOOTH",
"1094 686 LINE SMOOTH",
"1111 686 OFFCURVE",
"1118 669 OFFCURVE",
"1118 638 CURVE SMOOTH",
"1118 630 OFFCURVE",
"1118 622 OFFCURVE",
"1117 612 CURVE SMOOTH",
"1110 539 OFFCURVE",
"1088 446 OFFCURVE",
"1069 356 CURVE SMOOTH",
"1051 270 OFFCURVE",
"1015 124 OFFCURVE",
"1015 -2 CURVE SMOOTH",
"1015 -96 OFFCURVE",
"1035 -179 OFFCURVE",
"1097 -218 CURVE SMOOTH",
"1118 -231 OFFCURVE",
"1140 -237 OFFCURVE",
"1161 -237 CURVE SMOOTH"
);
}
);
width = 1188;
}
);
note = M;
unicode = 004D;
},
{
glyphname = N;
lastChange = "2021-05-05 07:33:14 +0000";
layers = (
{
anchors = (
{
name = bottom;
position = "{404, 0}";
},
{
name = top;
position = "{356, 700}";
}
);
layerId = "68CC9319-F234-4FBF-AF6F-F394745E3D3F";
paths = (
{
closed = 1;
nodes = (
"697 -84 OFFCURVE",
"730 -46 OFFCURVE",
"730 -6 CURVE SMOOTH",
"730 -4 LINE SMOOTH",
"730 1 OFFCURVE",
"728 3 OFFCURVE",
"724 3 CURVE SMOOTH",
"721 3 OFFCURVE",
"716 0 OFFCURVE",
"714 -7 CURVE SMOOTH",
"706 -35 OFFCURVE",
"686 -56 OFFCURVE",
"656 -56 CURVE SMOOTH",
"597 -56 OFFCURVE",
"581 6 OFFCURVE",
"581 71 CURVE SMOOTH",
"581 122 OFFCURVE",
"591 175 OFFCURVE",
"596 201 CURVE SMOOTH",
"614 294 OFFCURVE",
"647 397 OFFCURVE",
"660 489 CURVE SMOOTH",
"662 505 OFFCURVE",
"663 521 OFFCURVE",
"663 535 CURVE SMOOTH",
"663 636 OFFCURVE",
"612 703 OFFCURVE",
"540 703 CURVE SMOOTH",
"509 703 OFFCURVE",
"474 690 OFFCURVE",
"437 662 CURVE SMOOTH",
"370 610 OFFCURVE",
"315 485 OFFCURVE",
"282 344 CURVE",
"283 361 OFFCURVE",
"284 378 OFFCURVE",
"284 396 CURVE SMOOTH",
"284 507 OFFCURVE",
"256 635 OFFCURVE",
"192 716 CURVE SMOOTH",
"167 747 OFFCURVE",
"125 769 OFFCURVE",
"84 769 CURVE SMOOTH",
"57 769 OFFCURVE",
"31 760 OFFCURVE",
"10 737 CURVE SMOOTH",
"-23 702 OFFCURVE",
"-38 648 OFFCURVE",
"-38 589 CURVE SMOOTH",
"-38 501 OFFCURVE",
"-5 403 OFFCURVE",
"54 336 CURVE SMOOTH",
"69 319 OFFCURVE",
"88 312 OFFCURVE",
"98 312 CURVE SMOOTH",
"102 312 OFFCURVE",
"104 313 OFFCURVE",
"104 315 CURVE SMOOTH",
"104 317 OFFCURVE",
"104 318 OFFCURVE",
"102 320 CURVE SMOOTH",
"50 378 OFFCURVE",
"13 506 OFFCURVE",
"13 599 CURVE SMOOTH",
"13 616 OFFCURVE",
"15 631 OFFCURVE",
"17 645 CURVE SMOOTH",
"27 705 OFFCURVE",
"55 734 OFFCURVE",
"86 734 CURVE SMOOTH",
"103 734 OFFCURVE",
"121 725 OFFCURVE",
"138 706 CURVE SMOOTH",
"194 642 OFFCURVE",
"208 512 OFFCURVE",
"208 393 CURVE SMOOTH",
"208 323 OFFCURVE",
"203 257 OFFCURVE",
"200 210 CURVE SMOOTH",
"194 116 OFFCURVE",
"183 28 OFFCURVE",
"173 -25 CURVE",
"173 -39 OFFCURVE",
"194 -48 OFFCURVE",
"215 -48 CURVE SMOOTH",
"218 -48 LINE SMOOTH",
"242 -48 OFFCURVE",
"271 -28 OFFCURVE",
"273 -9 CURVE SMOOTH",
"279 68 OFFCURVE",
"284 133 OFFCURVE",
"290 187 CURVE SMOOTH",
"300 285 OFFCURVE",
"367 657 OFFCURVE",
"512 657 CURVE SMOOTH",
"518 657 OFFCURVE",
"524 656 OFFCURVE",
"530 655 CURVE SMOOTH",
"568 647 OFFCURVE",
"580 605 OFFCURVE",
"580 553 CURVE SMOOTH",
"580 469 OFFCURVE",
"548 361 OFFCURVE",
"543 337 CURVE SMOOTH",
"526 257 OFFCURVE",
"516 183 OFFCURVE",
"516 119 CURVE SMOOTH",
"516 -2 OFFCURVE",
"552 -84 OFFCURVE",
"644 -84 CURVE SMOOTH"
);
}
);
width = 711;
}
);
note = N;
unicode = 004E;
},
{
glyphname = O;
lastChange = "2021-05-05 07:33:14 +0000";
layers = (
{
anchors = (
{
name = bottom;
position = "{359, -37}";
},
{
name = center;
position = "{356, 350}";
},
{
name = ogonek;
position = "{453, -29}";
},
{
name = top;
position = "{464, 704}";
},
{
name = topleft;
position = "{20, 700}";
},
{
name = topright;
position = "{558, 673}";
}
);
layerId = "68CC9319-F234-4FBF-AF6F-F394745E3D3F";
paths = (
{
closed = 1;
nodes = (
"565 -37 OFFCURVE",
"667 150 OFFCURVE",
"667 317 CURVE SMOOTH",
"667 370 OFFCURVE",
"657 420 OFFCURVE",
"637 462 CURVE",
"647 488 OFFCURVE",
"652 516 OFFCURVE",
"652 548 CURVE SMOOTH",
"652 636 OFFCURVE",
"592 704 OFFCURVE",
"464 704 CURVE SMOOTH",
"242 704 OFFCURVE",
"120 505 OFFCURVE",
"106 312 CURVE",
"70 333 OFFCURVE",
"42 363 OFFCURVE",
"42 403 CURVE SMOOTH",
"42 428 OFFCURVE",
"59 458 OFFCURVE",
"75 465 CURVE SMOOTH",
"80 467 OFFCURVE",
"82 471 OFFCURVE",
"82 474 CURVE SMOOTH",
"82 478 OFFCURVE",
"80 482 OFFCURVE",
"75 482 CURVE SMOOTH",
"74 482 OFFCURVE",
"72 481 OFFCURVE",
"71 481 CURVE",
"45 472 OFFCURVE",
"4 445 OFFCURVE",
"4 396 CURVE SMOOTH",
"4 334 OFFCURVE",
"46 294 OFFCURVE",
"105 273 CURVE",
"106 110 OFFCURVE",
"188 -37 OFFCURVE",
"359 -37 CURVE SMOOTH"
);
},
{
closed = 1;
nodes = (
"238 -14 OFFCURVE",
"185 106 OFFCURVE",
"185 245 CURVE SMOOTH",
"185 254 LINE",
"204 252 OFFCURVE",
"223 251 OFFCURVE",
"243 251 CURVE SMOOTH",
"363 251 OFFCURVE",
"524 294 OFFCURVE",
"604 400 CURVE",
"607 381 OFFCURVE",
"609 361 OFFCURVE",
"609 340 CURVE SMOOTH",
"609 177 OFFCURVE",
"500 -14 OFFCURVE",
"356 -14 CURVE SMOOTH"
);
},
{
closed = 1;
nodes = (
"226 276 OFFCURVE",
"206 278 OFFCURVE",
"186 283 CURVE",
"198 472 OFFCURVE",
"301 681 OFFCURVE",
"467 681 CURVE SMOOTH",
"521 681 OFFCURVE",
"603 646 OFFCURVE",
"603 555 CURVE SMOOTH",
"603 542 OFFCURVE",
"602 530 OFFCURVE",
"600 518 CURVE",
"568 553 OFFCURVE",
"524 574 OFFCURVE",
"469 574 CURVE SMOOTH",
"459 574 LINE SMOOTH",
"452 574 OFFCURVE",
"448 570 OFFCURVE",
"448 567 CURVE SMOOTH",
"448 565 OFFCURVE",
"449 564 OFFCURVE",
"452 563 CURVE SMOOTH",
"517 550 OFFCURVE",
"560 512 OFFCURVE",
"584 461 CURVE",
"529 334 OFFCURVE",
"365 276 OFFCURVE",
"240 276 CURVE SMOOTH"
);
}
);
width = 711;
}
);
note = O;
unicode = 004F;
},
{
glyphname = P;
lastChange = "2021-05-05 07:33:14 +0000";
layers = (
{
layerId = "68CC9319-F234-4FBF-AF6F-F394745E3D3F";
paths = (
{
closed = 1;
nodes = (
"357 -59 OFFCURVE",
"382 -40 OFFCURVE",
"385 -4 CURVE",
"378 -4 LINE",
"374 -10 OFFCURVE",
"356 -16 OFFCURVE",
"343 -16 CURVE SMOOTH",
"303 -16 OFFCURVE",
"296 63 OFFCURVE",
"296 130 CURVE SMOOTH",
"296 147 OFFCURVE",
"297 163 OFFCURVE",
"297 177 CURVE SMOOTH",
"298 201 OFFCURVE",
"299 226 OFFCURVE",
"302 252 CURVE",
"324 248 OFFCURVE",
"345 247 OFFCURVE",
"366 247 CURVE SMOOTH",
"563 247 OFFCURVE",
"712 393 OFFCURVE",
"712 540 CURVE SMOOTH",
"712 671 OFFCURVE",
"506 700 OFFCURVE",
"350 700 CURVE SMOOTH",
"288 700 OFFCURVE",
"234 695 OFFCURVE",
"203 691 CURVE SMOOTH",
"116 679 OFFCURVE",
"41 660 OFFCURVE",
"17 636 CURVE SMOOTH",
"7 626 OFFCURVE",
"3 612 OFFCURVE",
"3 596 CURVE SMOOTH",
"3 572 OFFCURVE",
"13 545 OFFCURVE",
"25 534 CURVE SMOOTH",
"34 525 OFFCURVE",
"41 522 OFFCURVE",
"45 522 CURVE SMOOTH",
"49 522 OFFCURVE",
"51 525 OFFCURVE",
"51 529 CURVE SMOOTH",
"51 531 OFFCURVE",
"50 534 OFFCURVE",
"49 536 CURVE SMOOTH",
"46 542 OFFCURVE",
"44 547 OFFCURVE",
"44 552 CURVE SMOOTH",
"44 590 OFFCURVE",
"124 616 OFFCURVE",
"227 634 CURVE SMOOTH",
"240 636 OFFCURVE",
"259 639 OFFCURVE",
"282 643 CURVE",
"255 542 OFFCURVE",
"232 361 OFFCURVE",
"232 206 CURVE SMOOTH",
"232 132 OFFCURVE",
"237 64 OFFCURVE",
"250 14 CURVE SMOOTH",
"263 -36 OFFCURVE",
"298 -59 OFFCURVE",
"329 -59 CURVE SMOOTH"
);
},
{
closed = 1;
nodes = (
"323 449 OFFCURVE",
"358 610 OFFCURVE",
"367 645 CURVE",
"364 651 LINE",
"392 654 OFFCURVE",
"422 655 OFFCURVE",
"451 655 CURVE SMOOTH",
"562 655 OFFCURVE",
"670 634 OFFCURVE",
"670 553 CURVE SMOOTH",
"670 403 OFFCURVE",
"477 293 OFFCURVE",
"319 293 CURVE SMOOTH",
"306 293 LINE"
);
}
);
width = 652;
}
);
note = P;
unicode = 0050;
},
{
glyphname = Q;
lastChange = "2021-05-05 07:33:14 +0000";
layers = (
{
layerId = "68CC9319-F234-4FBF-AF6F-F394745E3D3F";
paths = (
{
closed = 1;
nodes = (
"909 -239 OFFCURVE",
"946 -186 OFFCURVE",
"946 -129 CURVE SMOOTH",
"946 -109 OFFCURVE",
"941 -89 OFFCURVE",
"931 -70 CURVE SMOOTH",
"916 -41 OFFCURVE",
"898 -17 OFFCURVE",
"876 3 CURVE SMOOTH",
"873 6 OFFCURVE",
"870 7 OFFCURVE",
"868 7 CURVE SMOOTH",
"864 7 OFFCURVE",
"861 4 OFFCURVE",
"861 0 CURVE SMOOTH",
"861 -2 OFFCURVE",
"862 -5 OFFCURVE",
"864 -7 CURVE SMOOTH",
"885 -30 OFFCURVE",
"901 -54 OFFCURVE",
"908 -73 CURVE SMOOTH",
"912 -83 OFFCURVE",
"913 -94 OFFCURVE",
"913 -104 CURVE SMOOTH",
"913 -137 OFFCURVE",
"894 -164 OFFCURVE",
"851 -164 CURVE SMOOTH",
"844 -164 OFFCURVE",
"836 -163 OFFCURVE",
"827 -161 CURVE SMOOTH",
"729 -142 OFFCURVE",
"615 -27 OFFCURVE",
"488 56 CURVE",
"573 135 OFFCURVE",
"617 264 OFFCURVE",
"617 390 CURVE SMOOTH",
"617 578 OFFCURVE",
"520 759 OFFCURVE",
"321 759 CURVE SMOOTH",
"275 759 OFFCURVE",
"219 743 OFFCURVE",
"181 710 CURVE SMOOTH",
"174 704 OFFCURVE",
"169 695 OFFCURVE",
"169 690 CURVE SMOOTH",
"169 687 OFFCURVE",
"170 686 OFFCURVE",
"173 686 CURVE SMOOTH",
"177 686 OFFCURVE",
"184 688 OFFCURVE",
"194 695 CURVE SMOOTH",
"228 718 OFFCURVE",
"266 731 OFFCURVE",
"308 731 CURVE SMOOTH",
"474 731 OFFCURVE",
"549 564 OFFCURVE",
"549 390 CURVE SMOOTH",
"549 273 OFFCURVE",
"515 153 OFFCURVE",
"452 77 CURVE",
"405 105 OFFCURVE",
"356 127 OFFCURVE",
"305 137 CURVE SMOOTH",
"287 141 OFFCURVE",
"271 142 OFFCURVE",
"256 142 CURVE SMOOTH",
"226 142 OFFCURVE",
"203 128 OFFCURVE",
"190 110 CURVE SMOOTH",
"187 106 OFFCURVE",
"186 102 OFFCURVE",
"186 99 CURVE SMOOTH",
"186 93 OFFCURVE",
"192 91 OFFCURVE",
"201 91 CURVE SMOOTH",
"208 91 OFFCURVE",
"215 92 OFFCURVE",
"224 94 CURVE SMOOTH",
"232 96 OFFCURVE",
"255 117 OFFCURVE",
"278 117 CURVE SMOOTH",
"283 117 LINE SMOOTH",
"287 117 OFFCURVE",
"292 117 OFFCURVE",
"296 116 CURVE SMOOTH",
"338 108 OFFCURVE",
"380 82 OFFCURVE",
"423 48 CURVE",
"388 18 OFFCURVE",
"347 0 OFFCURVE",
"299 0 CURVE SMOOTH",
"204 0 OFFCURVE",
"123 86 OFFCURVE",
"123 290 CURVE SMOOTH",
"123 543 OFFCURVE",
"226 643 OFFCURVE",
"315 643 CURVE SMOOTH",
"377 643 OFFCURVE",
"433 593 OFFCURVE",
"439 512 CURVE SMOOTH",
"440 505 OFFCURVE",
"440 498 OFFCURVE",
"440 491 CURVE SMOOTH",
"440 463 OFFCURVE",
"435 434 OFFCURVE",
"424 404 CURVE SMOOTH",
"422 398 OFFCURVE",
"421 393 OFFCURVE",
"421 388 CURVE SMOOTH",
"421 383 OFFCURVE",
"422 379 OFFCURVE",
"424 376 CURVE SMOOTH",
"426 373 OFFCURVE",
"427 372 OFFCURVE",
"430 372 CURVE SMOOTH",
"433 372 OFFCURVE",
"437 375 OFFCURVE",
"440 381 CURVE SMOOTH",
"455 409 OFFCURVE",
"464 456 OFFCURVE",
"464 494 CURVE SMOOTH",
"464 500 OFFCURVE",
"463 506 OFFCURVE",
"463 512 CURVE SMOOTH",
"454 621 OFFCURVE",
"388 675 OFFCURVE",
"310 675 CURVE SMOOTH",
"191 675 OFFCURVE",
"46 548 OFFCURVE",
"46 299 CURVE SMOOTH",
"46 81 OFFCURVE",
"157 -23 OFFCURVE",
"285 -23 CURVE SMOOTH",
"349 -23 OFFCURVE",
"404 -5 OFFCURVE",
"450 26 CURVE",
"562 -70 OFFCURVE",
"682 -209 OFFCURVE",
"819 -236 CURVE SMOOTH",
"828 -238 OFFCURVE",
"836 -239 OFFCURVE",
"845 -239 CURVE SMOOTH"
);
}
);
width = 645;
}
);
note = Q;
unicode = 0051;
},
{
glyphname = R;
lastChange = "2021-05-05 07:33:19 +0000";
layers = (
{
anchors = (
{
name = bottom;
position = "{435, 0}";
},
{
name = top;
position = "{464, 700}";
}
);
layerId = "68CC9319-F234-4FBF-AF6F-F394745E3D3F";
paths = (
{
closed = 1;
nodes = (
"673 -8 OFFCURVE",
"704 23 OFFCURVE",
"704 77 CURVE SMOOTH",
"704 100 OFFCURVE",
"698 127 OFFCURVE",
"687 158 CURVE SMOOTH",
"671 201 OFFCURVE",
"666 210 OFFCURVE",
"655 227 CURVE SMOOTH",
"652 232 OFFCURVE",
"649 234 OFFCURVE",
"646 234 CURVE SMOOTH",
"643 234 OFFCURVE",
"640 230 OFFCURVE",
"640 226 CURVE SMOOTH",
"640 225 OFFCURVE",
"640 223 OFFCURVE",
"641 222 CURVE",
"654 193 OFFCURVE",
"675 142 OFFCURVE",
"675 114 CURVE SMOOTH",
"675 81 OFFCURVE",
"658 69 OFFCURVE",
"625 69 CURVE SMOOTH",
"517 69 OFFCURVE",
"389 248 OFFCURVE",
"347 341 CURVE",
"353 340 OFFCURVE",
"360 338 OFFCURVE",
"368 337 CURVE SMOOTH",
"383 335 OFFCURVE",
"399 334 OFFCURVE",
"415 334 CURVE SMOOTH",
"562 334 OFFCURVE",
"711 430 OFFCURVE",
"711 548 CURVE SMOOTH",
"711 678 OFFCURVE",
"517 713 OFFCURVE",
"365 713 CURVE SMOOTH",
"318 713 OFFCURVE",
"276 710 OFFCURVE",
"244 705 CURVE SMOOTH",
"89 682 OFFCURVE",
"-94 627 OFFCURVE",
"-94 510 CURVE SMOOTH",
"-94 469 OFFCURVE",
"-67 433 OFFCURVE",
"-21 423 CURVE SMOOTH",
"-9 420 OFFCURVE",
"5 419 OFFCURVE",
"19 419 CURVE SMOOTH",
"72 419 OFFCURVE",
"132 439 OFFCURVE",
"179 482 CURVE SMOOTH",
"191 493 OFFCURVE",
"197 509 OFFCURVE",
"197 516 CURVE SMOOTH",
"197 519 OFFCURVE",
"196 521 OFFCURVE",
"194 521 CURVE SMOOTH",
"193 521 OFFCURVE",
"192 520 OFFCURVE",
"191 519 CURVE SMOOTH",
"134 465 OFFCURVE",
"76 444 OFFCURVE",
"32 444 CURVE SMOOTH",
"-11 444 OFFCURVE",
"-41 466 OFFCURVE",
"-41 500 CURVE SMOOTH",
"-41 602 OFFCURVE",
"260 657 OFFCURVE",
"346 664 CURVE SMOOTH",
"365 666 OFFCURVE",
"398 668 OFFCURVE",
"436 668 CURVE SMOOTH",
"535 668 OFFCURVE",
"666 653 OFFCURVE",
"666 571 CURVE SMOOTH",
"666 489 OFFCURVE",
"576 439 OFFCURVE",
"516 408 CURVE SMOOTH",
"478 389 OFFCURVE",
"423 374 OFFCURVE",
"376 374 CURVE SMOOTH",
"355 374 OFFCURVE",
"336 377 OFFCURVE",
"320 383 CURVE",
"319 383 LINE",
"318 384 LINE",
"315 384 LINE",
"313 384 LINE SMOOTH",
"306 384 OFFCURVE",
"301 375 OFFCURVE",
"301 362 CURVE SMOOTH",
"301 360 LINE SMOOTH",
"301 250 OFFCURVE",
"476 -8 OFFCURVE",
"616 -8 CURVE SMOOTH"
);
},
{
closed = 1;
nodes = (
"312 -59 OFFCURVE",
"338 -40 OFFCURVE",
"342 -4 CURVE",
"335 -4 LINE",
"331 -10 OFFCURVE",
"313 -16 OFFCURVE",
"300 -16 CURVE SMOOTH",
"267 -16 OFFCURVE",
"259 39 OFFCURVE",
"259 97 CURVE SMOOTH",
"259 125 OFFCURVE",
"261 154 OFFCURVE",
"263 177 CURVE SMOOTH",
"277 359 OFFCURVE",
"337 554 OFFCURVE",
"350 598 CURVE",
"340 626 OFFCURVE",
"325 635 OFFCURVE",
"294 635 CURVE SMOOTH",
"289 635 LINE SMOOTH",
"285 635 OFFCURVE",
"280 635 OFFCURVE",
"278 631 CURVE SMOOTH",
"239 535 OFFCURVE",
"196 318 OFFCURVE",
"196 146 CURVE SMOOTH",
"196 97 OFFCURVE",
"200 52 OFFCURVE",
"208 14 CURVE SMOOTH",
"219 -36 OFFCURVE",
"253 -59 OFFCURVE",
"284 -59 CURVE SMOOTH"
);
}
);
width = 712;
}
);
note = R;
unicode = 0052;
},
{
glyphname = S;
lastChange = "2021-05-05 07:33:19 +0000";
layers = (
{
anchors = (
{
name = bottom;
position = "{276, -31}";
},
{
name = top;
position = "{445, 689}";
}
);
layerId = "68CC9319-F234-4FBF-AF6F-F394745E3D3F";
paths = (
{
closed = 1;
nodes = (
"369 -40 OFFCURVE",
"566 15 OFFCURVE",
"600 156 CURVE SMOOTH",
"604 171 OFFCURVE",
"605 186 OFFCURVE",
"605 199 CURVE SMOOTH",
"605 360 OFFCURVE",
"342 353 OFFCURVE",
"236 419 CURVE SMOOTH",
"203 439 OFFCURVE",
"189 464 OFFCURVE",
"189 489 CURVE SMOOTH",
"189 573 OFFCURVE",
"345 668 OFFCURVE",
"472 668 CURVE SMOOTH",
"475 668 LINE SMOOTH",
"549 668 OFFCURVE",
"578 641 OFFCURVE",
"578 610 CURVE SMOOTH",
"578 556 OFFCURVE",
"494 484 OFFCURVE",
"406 484 CURVE SMOOTH",
"403 484 OFFCURVE",
"401 482 OFFCURVE",
"401 479 CURVE SMOOTH",
"401 473 OFFCURVE",
"408 464 OFFCURVE",
"416 464 CURVE SMOOTH",
"420 464 LINE SMOOTH",
"549 464 OFFCURVE",
"631 531 OFFCURVE",
"631 592 CURVE SMOOTH",
"631 642 OFFCURVE",
"576 689 OFFCURVE",
"449 689 CURVE SMOOTH",
"445 689 LINE SMOOTH",
"347 689 OFFCURVE",
"233 654 OFFCURVE",
"163 581 CURVE SMOOTH",
"133 549 OFFCURVE",
"115 509 OFFCURVE",
"115 471 CURVE SMOOTH",
"115 439 OFFCURVE",
"127 409 OFFCURVE",
"155 386 CURVE SMOOTH",
"231 323 OFFCURVE",
"368 313 OFFCURVE",
"463 265 CURVE SMOOTH",
"504 244 OFFCURVE",
"521 215 OFFCURVE",
"521 183 CURVE SMOOTH",
"521 94 OFFCURVE",
"387 -15 OFFCURVE",
"241 -15 CURVE SMOOTH",
"226 -15 OFFCURVE",
"210 -13 OFFCURVE",
"195 -11 CURVE SMOOTH",
"117 1 OFFCURVE",
"86 33 OFFCURVE",
"86 70 CURVE SMOOTH",
"86 137 OFFCURVE",
"195 220 OFFCURVE",
"324 220 CURVE SMOOTH",
"338 220 OFFCURVE",
"353 217 OFFCURVE",
"367 217 CURVE SMOOTH",
"373 217 LINE SMOOTH",
"382 217 OFFCURVE",
"385 220 OFFCURVE",
"385 224 CURVE SMOOTH",
"385 227 OFFCURVE",
"383 230 OFFCURVE",
"379 232 CURVE SMOOTH",
"371 236 OFFCURVE",
"336 240 OFFCURVE",
"315 240 CURVE SMOOTH",
"156 240 OFFCURVE",
"21 147 OFFCURVE",
"21 67 CURVE SMOOTH",
"21 22 OFFCURVE",
"64 -19 OFFCURVE",
"171 -36 CURVE SMOOTH",
"189 -39 OFFCURVE",
"210 -40 OFFCURVE",
"233 -40 CURVE SMOOTH"
);
}
);
width = 615;
}
);
note = S;
unicode = 0053;
},
{
glyphname = T;
lastChange = "2021-05-05 07:33:14 +0000";
layers = (
{
anchors = (
{
name = bottom;
position = "{592, -36}";
},
{
name = center;
position = "{342, 350}";
},
{
name = top;
position = "{570, 700}";
}
);
layerId = "68CC9319-F234-4FBF-AF6F-F394745E3D3F";
paths = (
{
closed = 1;
nodes = (
"600 -55 OFFCURVE",
"625 -36 OFFCURVE",
"628 0 CURVE",
"621 0 LINE",
"617 -6 OFFCURVE",
"599 -12 OFFCURVE",
"586 -12 CURVE SMOOTH",
"546 -12 OFFCURVE",
"539 69 OFFCURVE",
"539 137 CURVE SMOOTH",
"539 153 OFFCURVE",
"540 168 OFFCURVE",
"540 181 CURVE SMOOTH",
"545 323 OFFCURVE",
"578 501 OFFCURVE",
"598 594 CURVE",
"695 582 OFFCURVE",
"795 572 OFFCURVE",
"905 572 CURVE SMOOTH",
"990 572 OFFCURVE",
"1076 612 OFFCURVE",
"1076 676 CURVE SMOOTH",
"1076 686 OFFCURVE",
"1073 696 OFFCURVE",
"1066 707 CURVE SMOOTH",
"1063 712 OFFCURVE",
"1059 714 OFFCURVE",
"1055 714 CURVE SMOOTH",
"1052 714 OFFCURVE",
"1049 712 OFFCURVE",
"1049 709 CURVE SMOOTH",
"1049 707 OFFCURVE",
"1049 705 OFFCURVE",
"1051 703 CURVE SMOOTH",
"1056 697 OFFCURVE",
"1057 690 OFFCURVE",
"1057 683 CURVE SMOOTH",
"1057 617 OFFCURVE",
"907 611 OFFCURVE",
"869 611 CURVE SMOOTH",
"790 611 OFFCURVE",
"688 628 OFFCURVE",
"608 643 CURVE",
"610 649 LINE",
"599 677 OFFCURVE",
"582 686 OFFCURVE",
"548 686 CURVE SMOOTH",
"544 686 OFFCURVE",
"538 686 OFFCURVE",
"537 682 CURVE SMOOTH",
"534 674 OFFCURVE",
"532 666 OFFCURVE",
"529 657 CURVE",
"528 657 LINE SMOOTH",
"481 657 OFFCURVE",
"414 673 OFFCURVE",
"341 673 CURVE SMOOTH",
"234 673 OFFCURVE",
"10 658 OFFCURVE",
"10 504 CURVE SMOOTH",
"10 395 OFFCURVE",
"101 364 OFFCURVE",
"191 364 CURVE SMOOTH",
"239 364 OFFCURVE",
"287 373 OFFCURVE",
"320 384 CURVE SMOOTH",
"334 389 OFFCURVE",
"340 393 OFFCURVE",
"340 397 CURVE SMOOTH",
"340 400 OFFCURVE",
"333 403 OFFCURVE",
"325 403 CURVE SMOOTH",
"322 403 OFFCURVE",
"319 403 OFFCURVE",
"316 402 CURVE SMOOTH",
"306 400 OFFCURVE",
"280 398 OFFCURVE",
"247 398 CURVE SMOOTH",
"218 398 OFFCURVE",
"184 400 OFFCURVE",
"149 405 CURVE SMOOTH",
"76 416 OFFCURVE",
"37 457 OFFCURVE",
"37 499 CURVE SMOOTH",
"37 512 OFFCURVE",
"41 526 OFFCURVE",
"50 539 CURVE SMOOTH",
"83 587 OFFCURVE",
"176 622 OFFCURVE",
"301 622 CURVE SMOOTH",
"317 622 OFFCURVE",
"333 621 OFFCURVE",
"350 620 CURVE SMOOTH",
"407 616 OFFCURVE",
"461 610 OFFCURVE",
"516 604 CURVE",
"493 499 OFFCURVE",
"475 343 OFFCURVE",
"475 207 CURVE SMOOTH",
"475 134 OFFCURVE",
"480 68 OFFCURVE",
"493 18 CURVE SMOOTH",
"506 -32 OFFCURVE",
"541 -55 OFFCURVE",
"572 -55 CURVE SMOOTH"
);
}
);
width = 683;
}
);
note = T;
unicode = 0054;
},
{
glyphname = U;
lastChange = "2021-05-05 07:33:14 +0000";
layers = (
{
anchors = (
{
name = bottom;
position = "{290, -29}";
},
{
name = ogonek;
position = "{666, -37}";
},
{
name = top;
position = "{421, 700}";
},
{
name = topright;
position = "{542, 641}";
}
);
layerId = "68CC9319-F234-4FBF-AF6F-F394745E3D3F";
paths = (
{
closed = 1;
nodes = (
"617 -73 OFFCURVE",
"642 -55 OFFCURVE",
"643 -19 CURVE",
"636 -19 LINE",
"633 -24 OFFCURVE",
"615 -30 OFFCURVE",
"602 -30 CURVE SMOOTH",
"555 -30 OFFCURVE",
"551 81 OFFCURVE",
"551 152 CURVE SMOOTH",
"551 163 LINE SMOOTH",
"551 345 OFFCURVE",
"598 587 OFFCURVE",
"608 631 CURVE",
"596 659 OFFCURVE",
"579 668 OFFCURVE",
"545 668 CURVE SMOOTH",
"541 668 OFFCURVE",
"535 668 OFFCURVE",
"534 664 CURVE SMOOTH",
"517 613 OFFCURVE",
"502 522 OFFCURVE",
"493 420 CURVE",
"486 385 OFFCURVE",
"478 349 OFFCURVE",
"471 319 CURVE SMOOTH",
"440 178 OFFCURVE",
"380 31 OFFCURVE",
"302 14 CURVE SMOOTH",
"297 13 OFFCURVE",
"293 12 OFFCURVE",
"289 12 CURVE SMOOTH",
"225 12 OFFCURVE",
"206 125 OFFCURVE",
"206 259 CURVE SMOOTH",
"206 298 OFFCURVE",
"207 339 OFFCURVE",
"210 380 CURVE",
"268 461 OFFCURVE",
"326 557 OFFCURVE",
"326 675 CURVE SMOOTH",
"326 722 OFFCURVE",
"315 748 OFFCURVE",
"286 748 CURVE SMOOTH",
"245 748 OFFCURVE",
"201 701 OFFCURVE",
"175 631 CURVE SMOOTH",
"134 522 OFFCURVE",
"121 369 OFFCURVE",
"121 322 CURVE",
"101 309 OFFCURVE",
"81 303 OFFCURVE",
"61 303 CURVE SMOOTH",
"44 303 OFFCURVE",
"26 312 OFFCURVE",
"19 334 CURVE SMOOTH",
"17 339 OFFCURVE",
"17 345 OFFCURVE",
"17 351 CURVE SMOOTH",
"17 366 OFFCURVE",
"20 381 OFFCURVE",
"25 389 CURVE SMOOTH",
"27 393 OFFCURVE",
"29 398 OFFCURVE",
"29 402 CURVE SMOOTH",
"29 405 OFFCURVE",
"28 407 OFFCURVE",
"26 407 CURVE SMOOTH",
"25 407 OFFCURVE",
"24 407 OFFCURVE",
"23 406 CURVE SMOOTH",
"9 394 OFFCURVE",
"-3 367 OFFCURVE",
"-3 334 CURVE SMOOTH",
"-3 289 OFFCURVE",
"33 271 OFFCURVE",
"59 271 CURVE SMOOTH",
"79 271 OFFCURVE",
"100 278 OFFCURVE",
"121 291 CURVE",
"127 120 OFFCURVE",
"166 -32 OFFCURVE",
"266 -32 CURVE SMOOTH",
"274 -32 OFFCURVE",
"282 -31 OFFCURVE",
"290 -29 CURVE SMOOTH",
"380 -10 OFFCURVE",
"450 131 OFFCURVE",
"485 260 CURVE",
"484 251 OFFCURVE",
"484 242 OFFCURVE",
"484 233 CURVE SMOOTH",
"484 144 OFFCURVE",
"491 59 OFFCURVE",
"508 0 CURVE SMOOTH",
"522 -50 OFFCURVE",
"558 -73 OFFCURVE",
"589 -73 CURVE SMOOTH"
);
},
{
closed = 1;
nodes = (
"221 508 OFFCURVE",
"237 600 OFFCURVE",
"261 660 CURVE SMOOTH",
"267 674 OFFCURVE",
"282 708 OFFCURVE",
"291 708 CURVE SMOOTH",
"295 708 OFFCURVE",
"298 700 OFFCURVE",
"298 678 CURVE SMOOTH",
"298 594 OFFCURVE",
"263 493 OFFCURVE",
"213 417 CURVE"
);
}
);
width = 643;
}
);
note = U;
unicode = 0055;
},
{
glyphname = V;
lastChange = "2021-05-05 07:33:19 +0000";
layers = (
{
layerId = "68CC9319-F234-4FBF-AF6F-F394745E3D3F";
paths = (
{
closed = 1;
nodes = (
"471 -43 OFFCURVE",
"538 44 OFFCURVE",
"595 152 CURVE SMOOTH",
"661 276 OFFCURVE",
"717 468 OFFCURVE",
"717 589 CURVE SMOOTH",
"717 631 OFFCURVE",
"710 664 OFFCURVE",
"695 683 CURVE",
"701 682 OFFCURVE",
"711 681 OFFCURVE",
"722 681 CURVE SMOOTH",
"742 681 OFFCURVE",
"764 683 OFFCURVE",
"773 685 CURVE SMOOTH",
"777 686 OFFCURVE",
"778 689 OFFCURVE",
"778 692 CURVE SMOOTH",
"778 697 OFFCURVE",
"773 704 OFFCURVE",
"767 704 CURVE SMOOTH",
"765 704 LINE SMOOTH",
"758 703 OFFCURVE",
"744 702 OFFCURVE",
"730 702 CURVE SMOOTH",
"715 702 OFFCURVE",
"699 703 OFFCURVE",
"690 704 CURVE",
"680 725 OFFCURVE",
"623 761 OFFCURVE",
"585 761 CURVE SMOOTH",
"582 761 OFFCURVE",
"578 761 OFFCURVE",
"575 760 CURVE SMOOTH",
"550 755 OFFCURVE",
"540 746 OFFCURVE",
"540 735 CURVE SMOOTH",
"540 714 OFFCURVE",
"581 688 OFFCURVE",
"618 678 CURVE",
"643 650 OFFCURVE",
"655 592 OFFCURVE",
"655 521 CURVE SMOOTH",
"655 414 OFFCURVE",
"627 278 OFFCURVE",
"576 173 CURVE SMOOTH",
"529 77 OFFCURVE",
"457 7 OFFCURVE",
"381 7 CURVE SMOOTH",
"350 7 OFFCURVE",
"324 29 OFFCURVE",
"315 84 CURVE SMOOTH",
"312 104 OFFCURVE",
"310 126 OFFCURVE",
"310 148 CURVE SMOOTH",
"310 218 OFFCURVE",
"324 294 OFFCURVE",
"336 355 CURVE SMOOTH",
"343 389 OFFCURVE",
"358 462 OFFCURVE",
"358 533 CURVE SMOOTH",
"358 619 OFFCURVE",
"335 701 OFFCURVE",
"244 701 CURVE SMOOTH",
"101 701 OFFCURVE",
"33 578 OFFCURVE",
"14 479 CURVE SMOOTH",
"10 457 OFFCURVE",
"8 435 OFFCURVE",
"8 413 CURVE SMOOTH",
"8 340 OFFCURVE",
"30 276 OFFCURVE",
"56 254 CURVE SMOOTH",
"61 250 OFFCURVE",
"66 248 OFFCURVE",
"70 248 CURVE SMOOTH",
"78 248 OFFCURVE",
"84 253 OFFCURVE",
"84 258 CURVE SMOOTH",
"84 262 OFFCURVE",
"82 265 OFFCURVE",
"76 268 CURVE SMOOTH",
"58 277 OFFCURVE",
"49 317 OFFCURVE",
"49 368 CURVE SMOOTH",
"49 486 OFFCURVE",
"98 664 OFFCURVE",
"197 664 CURVE SMOOTH",
"252 664 OFFCURVE",
"267 577 OFFCURVE",
"267 489 CURVE SMOOTH",
"267 406 OFFCURVE",
"254 321 OFFCURVE",
"252 303 CURVE SMOOTH",
"245 249 OFFCURVE",
"238 192 OFFCURVE",
"238 139 CURVE SMOOTH",
"238 112 OFFCURVE",
"240 86 OFFCURVE",
"245 62 CURVE SMOOTH",
"259 -11 OFFCURVE",
"318 -43 OFFCURVE",
"362 -43 CURVE SMOOTH"
);
}
);
width = 764;
}
);
note = V;
unicode = 0056;
},
{
glyphname = W;
lastChange = "2021-05-05 07:33:19 +0000";
layers = (
{
anchors = (
{
name = bottom;
position = "{522, -43}";
},
{
name = top;
position = "{567, 700}";
}
);
layerId = "68CC9319-F234-4FBF-AF6F-F394745E3D3F";
paths = (
{
closed = 1;
nodes = (
"414 -54 OFFCURVE",
"507 106 OFFCURVE",
"561 271 CURVE",
"583 140 OFFCURVE",
"638 -10 OFFCURVE",
"764 -10 CURVE SMOOTH",
"920 -10 OFFCURVE",
"980 231 OFFCURVE",
"980 348 CURVE SMOOTH",
"980 466 OFFCURVE",
"960 552 OFFCURVE",
"928 608 CURVE",
"933 607 OFFCURVE",
"937 607 OFFCURVE",
"942 607 CURVE SMOOTH",
"954 607 OFFCURVE",
"965 609 OFFCURVE",
"977 613 CURVE SMOOTH",
"982 615 OFFCURVE",
"985 619 OFFCURVE",
"985 623 CURVE SMOOTH",
"985 627 OFFCURVE",
"981 632 OFFCURVE",
"975 632 CURVE SMOOTH",
"972 632 LINE",
"956 628 OFFCURVE",
"933 628 OFFCURVE",
"915 628 CURVE",
"886 667 OFFCURVE",
"850 688 OFFCURVE",
"810 692 CURVE SMOOTH",
"802 693 OFFCURVE",
"795 693 OFFCURVE",
"790 693 CURVE SMOOTH",
"768 693 OFFCURVE",
"759 688 OFFCURVE",
"759 680 CURVE SMOOTH",
"759 663 OFFCURVE",
"803 633 OFFCURVE",
"840 627 CURVE",
"886 568 OFFCURVE",
"910 461 OFFCURVE",
"910 335 CURVE SMOOTH",
"910 265 OFFCURVE",
"894 19 OFFCURVE",
"759 19 CURVE SMOOTH",
"644 19 OFFCURVE",
"602 277 OFFCURVE",
"593 387 CURVE",
"607 449 OFFCURVE",
"616 505 OFFCURVE",
"616 549 CURVE SMOOTH",
"616 553 LINE SMOOTH",
"616 591 OFFCURVE",
"596 602 OFFCURVE",
"581 602 CURVE SMOOTH",
"575 602 OFFCURVE",
"570 600 OFFCURVE",
"567 598 CURVE SMOOTH",
"540 578 OFFCURVE",
"530 521 OFFCURVE",
"530 464 CURVE SMOOTH",
"530 413 OFFCURVE",
"538 362 OFFCURVE",
"547 340 CURVE",
"502 170 OFFCURVE",
"422 4 OFFCURVE",
"324 3 CURVE SMOOTH",
"296 3 OFFCURVE",
"276 27 OFFCURVE",
"274 86 CURVE SMOOTH",
"274 91 OFFCURVE",
"274 97 OFFCURVE",
"274 102 CURVE SMOOTH",
"274 192 OFFCURVE",
"301 302 OFFCURVE",
"324 385 CURVE SMOOTH",
"336 430 OFFCURVE",
"368 540 OFFCURVE",
"368 631 CURVE SMOOTH",
"368 706 OFFCURVE",
"346 768 OFFCURVE",
"275 768 CURVE SMOOTH",
"139 768 OFFCURVE",
"61 634 OFFCURVE",
"32 525 CURVE SMOOTH",
"21 484 OFFCURVE",
"16 443 OFFCURVE",
"16 406 CURVE SMOOTH",
"16 345 OFFCURVE",
"29 295 OFFCURVE",
"47 275 CURVE SMOOTH",
"51 271 OFFCURVE",
"55 269 OFFCURVE",
"60 269 CURVE SMOOTH",
"67 269 OFFCURVE",
"73 274 OFFCURVE",
"73 281 CURVE SMOOTH",
"73 284 OFFCURVE",
"71 288 OFFCURVE",
"66 291 CURVE SMOOTH",
"54 298 OFFCURVE",
"49 322 OFFCURVE",
"49 356 CURVE SMOOTH",
"49 479 OFFCURVE",
"119 727 OFFCURVE",
"225 728 CURVE SMOOTH",
"265 728 OFFCURVE",
"277 677 OFFCURVE",
"277 610 CURVE SMOOTH",
"277 502 OFFCURVE",
"244 354 OFFCURVE",
"238 328 CURVE SMOOTH",
"221 249 OFFCURVE",
"203 161 OFFCURVE",
"203 89 CURVE SMOOTH",
"203 79 OFFCURVE",
"203 70 OFFCURVE",
"204 61 CURVE SMOOTH",
"210 -19 OFFCURVE",
"245 -55 OFFCURVE",
"287 -55 CURVE SMOOTH"
);
}
);
width = 1044;
}
);
note = W;
unicode = 0057;
},
{
glyphname = X;
lastChange = "2021-05-05 07:33:14 +0000";
layers = (
{
layerId = "68CC9319-F234-4FBF-AF6F-F394745E3D3F";
paths = (
{
closed = 1;
nodes = (
"70 -90 OFFCURVE",
"71 -89 OFFCURVE",
"73 -84 CURVE SMOOTH",
"74 -82 OFFCURVE",
"74 -80 OFFCURVE",
"74 -78 CURVE SMOOTH",
"74 -75 OFFCURVE",
"73 -72 OFFCURVE",
"73 -67 CURVE SMOOTH",
"73 -61 LINE SMOOTH",
"73 -43 OFFCURVE",
"76 -17 OFFCURVE",
"82 0 CURVE SMOOTH",
"110 77 OFFCURVE",
"199 215 OFFCURVE",
"307 351 CURVE",
"379 176 OFFCURVE",
"474 -8 OFFCURVE",
"586 -8 CURVE SMOOTH",
"634 -8 OFFCURVE",
"677 27 OFFCURVE",
"677 108 CURVE SMOOTH",
"677 113 OFFCURVE",
"676 119 OFFCURVE",
"676 125 CURVE SMOOTH",
"674 147 OFFCURVE",
"668 170 OFFCURVE",
"662 187 CURVE SMOOTH",
"656 202 OFFCURVE",
"649 212 OFFCURVE",
"644 212 CURVE SMOOTH",
"640 212 OFFCURVE",
"638 208 OFFCURVE",
"638 197 CURVE SMOOTH",
"638 193 OFFCURVE",
"638 188 OFFCURVE",
"639 181 CURVE SMOOTH",
"641 165 OFFCURVE",
"647 137 OFFCURVE",
"647 111 CURVE SMOOTH",
"647 80 OFFCURVE",
"639 52 OFFCURVE",
"606 52 CURVE SMOOTH",
"523 52 OFFCURVE",
"429 249 OFFCURVE",
"361 416 CURVE",
"454 525 OFFCURVE",
"555 626 OFFCURVE",
"642 684 CURVE SMOOTH",
"654 692 OFFCURVE",
"668 703 OFFCURVE",
"671 721 CURVE SMOOTH",
"671 723 LINE SMOOTH",
"671 738 OFFCURVE",
"639 750 OFFCURVE",
"615 750 CURVE SMOOTH",
"607 750 OFFCURVE",
"599 748 OFFCURVE",
"594 745 CURVE SMOOTH",
"536 704 OFFCURVE",
"437 596 OFFCURVE",
"339 472 CURVE",
"313 539 OFFCURVE",
"293 597 OFFCURVE",
"281 626 CURVE SMOOTH",
"251 702 OFFCURVE",
"209 761 OFFCURVE",
"137 761 CURVE SMOOTH",
"125 761 OFFCURVE",
"111 759 OFFCURVE",
"97 755 CURVE SMOOTH",
"31 737 OFFCURVE",
"7 677 OFFCURVE",
"7 610 CURVE SMOOTH",
"7 519 OFFCURVE",
"51 416 OFFCURVE",
"93 391 CURVE SMOOTH",
"100 387 OFFCURVE",
"105 385 OFFCURVE",
"109 385 CURVE SMOOTH",
"116 385 OFFCURVE",
"119 389 OFFCURVE",
"119 394 CURVE SMOOTH",
"119 397 OFFCURVE",
"117 401 OFFCURVE",
"113 402 CURVE SMOOTH",
"78 416 OFFCURVE",
"42 514 OFFCURVE",
"42 599 CURVE SMOOTH",
"42 659 OFFCURVE",
"60 713 OFFCURVE",
"110 724 CURVE SMOOTH",
"113 725 OFFCURVE",
"115 725 OFFCURVE",
"118 725 CURVE SMOOTH",
"147 725 OFFCURVE",
"173 688 OFFCURVE",
"202 623 CURVE SMOOTH",
"222 577 OFFCURVE",
"251 494 OFFCURVE",
"286 402 CURVE",
"181 262 OFFCURVE",
"85 113 OFFCURVE",
"51 24 CURVE SMOOTH",
"42 1 OFFCURVE",
"38 -20 OFFCURVE",
"38 -38 CURVE SMOOTH",
"38 -62 OFFCURVE",
"46 -80 OFFCURVE",
"60 -88 CURVE",
"63 -89 OFFCURVE",
"65 -90 OFFCURVE",
"67 -90 CURVE SMOOTH"
);
}
);
width = 684;
}
);
note = X;
unicode = 0058;
},
{
glyphname = Y;
lastChange = "2021-05-05 07:33:19 +0000";
layers = (
{
anchors = (
{
name = bottom;
position = "{811, 22}";
},
{
name = top;
position = "{504, 700}";
},
{
name = topleft;
position = "{20, 700}";
}
);
layerId = "68CC9319-F234-4FBF-AF6F-F394745E3D3F";
paths = (
{
closed = 1;
nodes = (
"679 -420 OFFCURVE",
"731 -125 OFFCURVE",
"731 53 CURVE SMOOTH",
"731 104 OFFCURVE",
"729 152 OFFCURVE",
"725 193 CURVE",
"737 201 OFFCURVE",
"760 210 OFFCURVE",
"779 212 CURVE SMOOTH",
"786 212 OFFCURVE",
"793 215 OFFCURVE",
"793 220 CURVE SMOOTH",
"792 230 OFFCURVE",
"782 232 OFFCURVE",
"771 232 CURVE SMOOTH",
"760 232 OFFCURVE",
"744 230 OFFCURVE",
"725 220 CURVE SMOOTH",
"721 218 LINE",
"713 282 OFFCURVE",
"704 349 OFFCURVE",
"693 419 CURVE SMOOTH",
"683 477 OFFCURVE",
"678 511 OFFCURVE",
"674 521 CURVE SMOOTH",
"672 527 OFFCURVE",
"666 661 OFFCURVE",
"657 661 CURVE SMOOTH",
"656 661 LINE",
"656 661 OFFCURVE",
"650 671 OFFCURVE",
"645 671 CURVE SMOOTH",
"591 669 OFFCURVE",
"614 536 OFFCURVE",
"572 381 CURVE SMOOTH",
"524 204 OFFCURVE",
"423 33 OFFCURVE",
"327 33 CURVE SMOOTH",
"325 33 OFFCURVE",
"324 33 OFFCURVE",
"322 33 CURVE SMOOTH",
"284 35 OFFCURVE",
"272 73 OFFCURVE",
"272 123 CURVE SMOOTH",
"272 216 OFFCURVE",
"315 352 OFFCURVE",
"324 385 CURVE SMOOTH",
"336 430 OFFCURVE",
"368 540 OFFCURVE",
"368 631 CURVE SMOOTH",
"368 706 OFFCURVE",
"346 768 OFFCURVE",
"275 768 CURVE SMOOTH",
"139 768 OFFCURVE",
"61 634 OFFCURVE",
"32 525 CURVE SMOOTH",
"21 484 OFFCURVE",
"16 443 OFFCURVE",
"16 406 CURVE SMOOTH",
"16 345 OFFCURVE",
"29 295 OFFCURVE",
"47 275 CURVE SMOOTH",
"51 271 OFFCURVE",
"55 269 OFFCURVE",
"60 269 CURVE SMOOTH",
"67 269 OFFCURVE",
"73 274 OFFCURVE",
"73 281 CURVE SMOOTH",
"73 284 OFFCURVE",
"71 288 OFFCURVE",
"66 291 CURVE SMOOTH",
"54 298 OFFCURVE",
"49 322 OFFCURVE",
"49 356 CURVE SMOOTH",
"49 479 OFFCURVE",
"119 727 OFFCURVE",
"225 728 CURVE SMOOTH",
"265 728 OFFCURVE",
"277 677 OFFCURVE",
"277 610 CURVE SMOOTH",
"277 502 OFFCURVE",
"243 354 OFFCURVE",
"238 328 CURVE SMOOTH",
"230 289 OFFCURVE",
"205 193 OFFCURVE",
"205 112 CURVE SMOOTH",
"205 42 OFFCURVE",
"223 -17 OFFCURVE",
"287 -21 CURVE SMOOTH",
"290 -21 OFFCURVE",
"293 -21 OFFCURVE",
"295 -21 CURVE SMOOTH",
"421 -21 OFFCURVE",
"521 146 OFFCURVE",
"584 319 CURVE SMOOTH",
"599 361 OFFCURVE",
"612 400 OFFCURVE",
"623 435 CURVE",
"632 366 OFFCURVE",
"646 220 OFFCURVE",
"651 179 CURVE",
"569 126 OFFCURVE",
"501 62 OFFCURVE",
"430 -41 CURVE SMOOTH",
"382 -110 OFFCURVE",
"335 -196 OFFCURVE",
"335 -283 CURVE SMOOTH",
"335 -357 OFFCURVE",
"368 -420 OFFCURVE",
"463 -420 CURVE SMOOTH"
);
},
{
closed = 1;
nodes = (
"407 -393 OFFCURVE",
"385 -330 OFFCURVE",
"385 -270 CURVE SMOOTH",
"385 -120 OFFCURVE",
"541 85 OFFCURVE",
"657 158 CURVE",
"661 123 OFFCURVE",
"665 68 OFFCURVE",
"665 7 CURVE SMOOTH",
"665 -166 OFFCURVE",
"632 -393 OFFCURVE",
"467 -393 CURVE SMOOTH"
);
}
);
width = 764;
}
);
note = Y;
unicode = 0059;
},
{
glyphname = Z;
lastChange = "2021-05-05 07:33:14 +0000";
layers = (
{
anchors = (
{
name = bottom;
position = "{304, 0}";
},
{
name = center;
position = "{304, 350}";
},
{
name = top;
position = "{344, 724}";
}
);
layerId = "68CC9319-F234-4FBF-AF6F-F394745E3D3F";
paths = (
{
closed = 1;
nodes = (
"536 -136 OFFCURVE",
"559 -128 OFFCURVE",
"567 -123 CURVE SMOOTH",
"605 -100 OFFCURVE",
"639 -60 OFFCURVE",
"639 -15 CURVE SMOOTH",
"639 77 OFFCURVE",
"520 101 OFFCURVE",
"392 101 CURVE SMOOTH",
"272 101 OFFCURVE",
"143 79 OFFCURVE",
"99 72 CURVE",
"150 149 OFFCURVE",
"220 245 OFFCURVE",
"314 362 CURVE SMOOTH",
"415 487 OFFCURVE",
"534 607 OFFCURVE",
"608 650 CURVE SMOOTH",
"618 656 OFFCURVE",
"622 665 OFFCURVE",
"622 674 CURVE SMOOTH",
"622 687 OFFCURVE",
"613 699 OFFCURVE",
"595 701 CURVE SMOOTH",
"531 706 OFFCURVE",
"448 720 OFFCURVE",
"344 724 CURVE SMOOTH",
"336 724 OFFCURVE",
"329 724 OFFCURVE",
"322 724 CURVE SMOOTH",
"128 724 OFFCURVE",
"52 634 OFFCURVE",
"52 558 CURVE SMOOTH",
"52 511 OFFCURVE",
"81 470 OFFCURVE",
"128 460 CURVE SMOOTH",
"142 457 OFFCURVE",
"158 455 OFFCURVE",
"174 455 CURVE SMOOTH",
"230 455 OFFCURVE",
"294 475 OFFCURVE",
"348 520 CURVE SMOOTH",
"364 533 OFFCURVE",
"368 540 OFFCURVE",
"368 543 CURVE SMOOTH",
"368 544 OFFCURVE",
"367 545 OFFCURVE",
"365 545 CURVE SMOOTH",
"362 545 OFFCURVE",
"358 544 OFFCURVE",
"357 543 CURVE SMOOTH",
"303 508 OFFCURVE",
"225 482 OFFCURVE",
"186 479 CURVE SMOOTH",
"181 479 OFFCURVE",
"177 479 OFFCURVE",
"173 479 CURVE SMOOTH",
"122 479 OFFCURVE",
"98 502 OFFCURVE",
"98 532 CURVE SMOOTH",
"98 579 OFFCURVE",
"157 644 OFFCURVE",
"258 659 CURVE SMOOTH",
"293 664 OFFCURVE",
"325 666 OFFCURVE",
"353 666 CURVE SMOOTH",
"443 666 OFFCURVE",
"501 645 OFFCURVE",
"543 643 CURVE",
"538 641 OFFCURVE",
"532 638 OFFCURVE",
"526 635 CURVE",
"399 510 OFFCURVE",
"121 211 OFFCURVE",
"34 40 CURVE",
"28 31 OFFCURVE",
"25 22 OFFCURVE",
"25 15 CURVE SMOOTH",
"25 -10 OFFCURVE",
"51 -22 OFFCURVE",
"67 -22 CURVE SMOOTH",
"73 -22 OFFCURVE",
"79 -21 OFFCURVE",
"85 -19 CURVE SMOOTH",
"179 10 OFFCURVE",
"293 27 OFFCURVE",
"413 36 CURVE SMOOTH",
"421 37 OFFCURVE",
"435 37 OFFCURVE",
"451 37 CURVE SMOOTH",
"510 37 OFFCURVE",
"605 29 OFFCURVE",
"605 -13 CURVE SMOOTH",
"605 -51 OFFCURVE",
"552 -108 OFFCURVE",
"525 -133 CURVE",
"525 -134 LINE SMOOTH",
"525 -135 OFFCURVE",
"526 -136 OFFCURVE",
"528 -136 CURVE SMOOTH"
);
}
);
width = 607;
}
);
note = Z;
unicode = 005A;
},
{
glyphname = bracketleft;
lastChange = "2021-05-05 07:33:14 +0000";
layers = (
{
layerId = "68CC9319-F234-4FBF-AF6F-F394745E3D3F";
paths = (
{
closed = 1;
nodes = (
"243 -107 OFFCURVE",
"299 -98 OFFCURVE",
"336 -96 CURVE SMOOTH",
"344 -96 OFFCURVE",
"350 -88 OFFCURVE",
"350 -81 CURVE SMOOTH",
"350 -76 OFFCURVE",
"346 -71 OFFCURVE",
"338 -71 CURVE SMOOTH",
"318 -71 OFFCURVE",
"291 -74 OFFCURVE",
"265 -74 CURVE SMOOTH",
"228 -74 OFFCURVE",
"191 -68 OFFCURVE",
"178 -43 CURVE SMOOTH",
"147 18 OFFCURVE",
"139 138 OFFCURVE",
"139 230 CURVE SMOOTH",
"139 250 OFFCURVE",
"139 269 OFFCURVE",
"140 286 CURVE SMOOTH",
"143 362 OFFCURVE",
"152 543 OFFCURVE",
"187 614 CURVE SMOOTH",
"202 644 OFFCURVE",
"271 644 OFFCURVE",
"340 644 CURVE SMOOTH",
"346 644 OFFCURVE",
"354 653 OFFCURVE",
"354 661 CURVE SMOOTH",
"354 666 OFFCURVE",
"350 671 OFFCURVE",
"339 671 CURVE SMOOTH",
"324 671 LINE SMOOTH",
"230 671 OFFCURVE",
"124 670 OFFCURVE",
"111 634 CURVE SMOOTH",
"73 532 OFFCURVE",
"59 359 OFFCURVE",
"59 248 CURVE SMOOTH",
"59 235 OFFCURVE",
"60 223 OFFCURVE",
"60 212 CURVE SMOOTH",
"63 130 OFFCURVE",
"63 -21 OFFCURVE",
"110 -82 CURVE SMOOTH",
"125 -102 OFFCURVE",
"158 -107 OFFCURVE",
"195 -107 CURVE SMOOTH"
);
}
);
width = 356;
}
);
note = bracketleft;
unicode = 005B;
},
{
glyphname = backslash;
lastChange = "2021-05-05 07:33:14 +0000";
layers = (
{
layerId = "68CC9319-F234-4FBF-AF6F-F394745E3D3F";
paths = (
{
closed = 1;
nodes = (
"415 -38 OFFCURVE",
"425 -33 OFFCURVE",
"425 -25 CURVE SMOOTH",
"425 -22 OFFCURVE",
"425 -20 OFFCURVE",
"423 -17 CURVE SMOOTH",
"316 178 OFFCURVE",
"168 449 OFFCURVE",
"62 645 CURVE SMOOTH",
"57 654 OFFCURVE",
"46 659 OFFCURVE",
"36 659 CURVE SMOOTH",
"25 659 OFFCURVE",
"16 654 OFFCURVE",
"16 646 CURVE SMOOTH",
"16 643 OFFCURVE",
"16 641 OFFCURVE",
"18 638 CURVE SMOOTH",
"379 -25 LINE SMOOTH",
"384 -34 OFFCURVE",
"395 -38 OFFCURVE",
"404 -38 CURVE SMOOTH"
);
}
);
width = 438;
}
);
note = backslash;
unicode = 005C;
},
{
glyphname = bracketright;
lastChange = "2021-05-05 07:33:14 +0000";
layers = (
{
layerId = "68CC9319-F234-4FBF-AF6F-F394745E3D3F";
paths = (
{
closed = 1;
nodes = (
"30 -96 LINE SMOOTH",
"125 -96 OFFCURVE",
"231 -95 OFFCURVE",
"245 -58 CURVE SMOOTH",
"283 45 OFFCURVE",
"297 217 OFFCURVE",
"297 328 CURVE SMOOTH",
"297 341 OFFCURVE",
"296 352 OFFCURVE",
"296 363 CURVE SMOOTH",
"293 446 OFFCURVE",
"293 597 OFFCURVE",
"246 658 CURVE SMOOTH",
"231 677 OFFCURVE",
"199 683 OFFCURVE",
"162 683 CURVE SMOOTH",
"113 683 OFFCURVE",
"57 673 OFFCURVE",
"20 671 CURVE SMOOTH",
"12 670 OFFCURVE",
"6 663 OFFCURVE",
"6 656 CURVE SMOOTH",
"6 651 OFFCURVE",
"10 647 OFFCURVE",
"18 647 CURVE SMOOTH",
"38 647 OFFCURVE",
"65 650 OFFCURVE",
"91 650 CURVE SMOOTH",
"128 650 OFFCURVE",
"165 644 OFFCURVE",
"178 619 CURVE SMOOTH",
"209 558 OFFCURVE",
"217 436 OFFCURVE",
"217 343 CURVE SMOOTH",
"217 324 OFFCURVE",
"216 306 OFFCURVE",
"216 290 CURVE SMOOTH",
"214 213 OFFCURVE",
"204 32 OFFCURVE",
"169 -38 CURVE SMOOTH",
"155 -67 OFFCURVE",
"91 -68 OFFCURVE",
"27 -68 CURVE SMOOTH",
"16 -68 LINE SMOOTH",
"10 -68 OFFCURVE",
"2 -78 OFFCURVE",
"2 -86 CURVE SMOOTH",
"2 -91 OFFCURVE",
"6 -96 OFFCURVE",
"17 -96 CURVE SMOOTH"
);
}
);
width = 336;
}
);
note = bracketright;
unicode = 005D;
},
{
glyphname = asciicircum;
lastChange = "2021-05-05 07:33:14 +0000";
layers = (
{
layerId = "68CC9319-F234-4FBF-AF6F-F394745E3D3F";
paths = (
{
closed = 1;
nodes = (
"339 516 OFFCURVE",
"348 518 OFFCURVE",
"348 522 CURVE SMOOTH",
"348 523 OFFCURVE",
"348 524 OFFCURVE",
"347 525 CURVE SMOOTH",
"301 581 OFFCURVE",
"256 638 OFFCURVE",
"211 694 CURVE",
"202 694 LINE",
"198 690 OFFCURVE",
"96 577 OFFCURVE",
"51 526 CURVE SMOOTH",
"50 525 OFFCURVE",
"50 524 OFFCURVE",
"50 523 CURVE SMOOTH",
"50 521 OFFCURVE",
"54 519 OFFCURVE",
"60 519 CURVE SMOOTH",
"67 519 OFFCURVE",
"76 521 OFFCURVE",
"81 526 CURVE SMOOTH",
"195 639 LINE",
"230 601 OFFCURVE",
"262 563 OFFCURVE",
"294 525 CURVE SMOOTH",
"300 519 OFFCURVE",
"316 516 OFFCURVE",
"328 516 CURVE SMOOTH"
);
}
);
width = 408;
}
);
note = asciicircum;
unicode = 005E;
},
{
glyphname = underscore;
lastChange = "2021-05-05 07:33:14 +0000";
layers = (
{
layerId = "68CC9319-F234-4FBF-AF6F-F394745E3D3F";
paths = (
{
closed = 1;
nodes = (
"840 -86 LINE SMOOTH",
"851 -86 OFFCURVE",
"858 -75 OFFCURVE",
"860 -69 CURVE SMOOTH",
"861 -66 OFFCURVE",
"862 -62 OFFCURVE",
"862 -58 CURVE SMOOTH",
"862 -51 OFFCURVE",
"859 -44 OFFCURVE",
"849 -44 CURVE SMOOTH",
"2 -44 LINE SMOOTH",
"-9 -44 OFFCURVE",
"-16 -56 OFFCURVE",
"-19 -62 CURVE SMOOTH",
"-20 -65 OFFCURVE",
"-21 -68 OFFCURVE",
"-21 -71 CURVE SMOOTH",
"-21 -79 OFFCURVE",
"-17 -86 OFFCURVE",
"-7 -86 CURVE SMOOTH"
);
}
);
width = 849;
}
);
note = underscore;
unicode = 005F;
},
{
glyphname = grave;
lastChange = "2021-05-05 07:33:14 +0000";
layers = (
{
layerId = "68CC9319-F234-4FBF-AF6F-F394745E3D3F";
paths = (
{
closed = 1;
nodes = (
"255 496 OFFCURVE",
"260 501 OFFCURVE",
"260 504 CURVE SMOOTH",
"260 505 OFFCURVE",
"260 505 OFFCURVE",
"259 506 CURVE SMOOTH",
"118 622 LINE SMOOTH",
"116 624 OFFCURVE",
"113 625 OFFCURVE",
"110 625 CURVE SMOOTH",
"94 625 OFFCURVE",
"70 603 OFFCURVE",
"70 591 CURVE SMOOTH",
"70 588 OFFCURVE",
"71 586 OFFCURVE",
"74 585 CURVE",
"248 497 LINE",
"249 497 OFFCURVE",
"249 496 OFFCURVE",
"250 496 CURVE SMOOTH"
);
}
);
width = 333;
}
);
note = grave;
unicode = 0060;
},
{
glyphname = a;
lastChange = "2021-05-05 07:33:14 +0000";
layers = (
{
anchors = (
{
name = bottom;
position = "{162, 0}";
},
{
name = ogonek;
position = "{395, 10}";
},
{
name = top;
position = "{211, 434}";
}
);
layerId = "68CC9319-F234-4FBF-AF6F-F394745E3D3F";
paths = (
{
closed = 1;
nodes = (
"369 -5 OFFCURVE",
"404 82 OFFCURVE",
"408 135 CURVE SMOOTH",
"408 137 OFFCURVE",
"408 138 OFFCURVE",
"408 139 CURVE SMOOTH",
"408 148 OFFCURVE",
"406 151 OFFCURVE",
"403 151 CURVE SMOOTH",
"400 151 OFFCURVE",
"396 147 OFFCURVE",
"395 142 CURVE SMOOTH",
"387 113 OFFCURVE",
"377 86 OFFCURVE",
"367 67 CURVE SMOOTH",
"352 38 OFFCURVE",
"340 29 OFFCURVE",
"329 29 CURVE SMOOTH",
"328 29 LINE SMOOTH",
"290 29 OFFCURVE",
"282 134 OFFCURVE",
"282 184 CURVE SMOOTH",
"282 188 LINE SMOOTH",
"282 278 OFFCURVE",
"303 385 OFFCURVE",
"315 431 CURVE",
"304 434 OFFCURVE",
"294 435 OFFCURVE",
"286 435 CURVE SMOOTH",
"263 435 OFFCURVE",
"247 427 OFFCURVE",
"238 417 CURVE",
"228 438 OFFCURVE",
"206 450 OFFCURVE",
"181 450 CURVE SMOOTH",
"51 450 OFFCURVE",
"19 274 OFFCURVE",
"19 168 CURVE SMOOTH",
"19 158 LINE SMOOTH",
"19 72 OFFCURVE",
"42 -4 OFFCURVE",
"91 -4 CURVE SMOOTH",
"92 -4 LINE SMOOTH",
"143 -4 OFFCURVE",
"186 92 OFFCURVE",
"211 182 CURVE",
"211 118 OFFCURVE",
"227 -5 OFFCURVE",
"309 -5 CURVE SMOOTH"
);
},
{
closed = 1;
nodes = (
"112 78 OFFCURVE",
"98 94 OFFCURVE",
"95 134 CURVE SMOOTH",
"94 147 OFFCURVE",
"93 162 OFFCURVE",
"93 177 CURVE SMOOTH",
"93 234 OFFCURVE",
"102 302 OFFCURVE",
"124 349 CURVE SMOOTH",
"141 386 OFFCURVE",
"175 421 OFFCURVE",
"205 421 CURVE SMOOTH",
"215 421 OFFCURVE",
"224 417 OFFCURVE",
"232 408 CURVE",
"215 347 OFFCURVE",
"215 282 OFFCURVE",
"199 221 CURVE SMOOTH",
"183 159 OFFCURVE",
"157 78 OFFCURVE",
"126 78 CURVE SMOOTH"
);
}
);
width = 370;
}
);
note = a;
unicode = 0061;
},
{
glyphname = b;
lastChange = "2021-05-05 07:33:14 +0000";
layers = (
{
layerId = "68CC9319-F234-4FBF-AF6F-F394745E3D3F";
paths = (
{
closed = 1;
nodes = (
"152 -5 OFFCURVE",
"165 -3 OFFCURVE",
"174 0 CURVE SMOOTH",
"263 27 OFFCURVE",
"286 170 OFFCURVE",
"286 271 CURVE SMOOTH",
"286 288 OFFCURVE",
"285 303 OFFCURVE",
"284 317 CURVE SMOOTH",
"279 385 OFFCURVE",
"257 438 OFFCURVE",
"207 438 CURVE SMOOTH",
"137 438 OFFCURVE",
"95 273 OFFCURVE",
"78 181 CURVE",
"75 302 LINE",
"120 398 OFFCURVE",
"168 541 OFFCURVE",
"177 619 CURVE SMOOTH",
"179 634 OFFCURVE",
"181 652 OFFCURVE",
"181 670 CURVE SMOOTH",
"181 715 OFFCURVE",
"169 761 OFFCURVE",
"114 761 CURVE SMOOTH",
"55 761 OFFCURVE",
"30 675 OFFCURVE",
"23 625 CURVE SMOOTH",
"18 588 OFFCURVE",
"16 546 OFFCURVE",
"16 510 CURVE SMOOTH",
"16 476 OFFCURVE",
"18 447 OFFCURVE",
"18 432 CURVE SMOOTH",
"20 335 OFFCURVE",
"26 236 OFFCURVE",
"26 148 CURVE SMOOTH",
"26 123 OFFCURVE",
"25 98 OFFCURVE",
"24 75 CURVE SMOOTH",
"22 36 OFFCURVE",
"22 6 OFFCURVE",
"19 -4 CURVE",
"36 -4 OFFCURVE",
"51 5 OFFCURVE",
"62 21 CURVE SMOOTH",
"72 35 OFFCURVE",
"75 63 OFFCURVE",
"77 95 CURVE SMOOTH",
"81 140 OFFCURVE",
"96 200 OFFCURVE",
"109 242 CURVE SMOOTH",
"118 272 OFFCURVE",
"145 371 OFFCURVE",
"178 371 CURVE SMOOTH",
"206 371 OFFCURVE",
"211 311 OFFCURVE",
"211 261 CURVE SMOOTH",
"211 241 OFFCURVE",
"211 222 OFFCURVE",
"210 210 CURVE SMOOTH",
"207 142 OFFCURVE",
"192 65 OFFCURVE",
"153 33 CURVE SMOOTH",
"145 26 OFFCURVE",
"134 22 OFFCURVE",
"124 22 CURVE SMOOTH",
"114 22 OFFCURVE",
"103 26 OFFCURVE",
"94 35 CURVE SMOOTH",
"91 38 OFFCURVE",
"89 39 OFFCURVE",
"87 39 CURVE SMOOTH",
"84 39 OFFCURVE",
"82 34 OFFCURVE",
"82 29 CURVE SMOOTH",
"82 24 OFFCURVE",
"83 18 OFFCURVE",
"86 15 CURVE SMOOTH",
"98 0 OFFCURVE",
"119 -5 OFFCURVE",
"140 -5 CURVE SMOOTH"
);
},
{
closed = 1;
nodes = (
"74 379 LINE SMOOTH",
"74 434 OFFCURVE",
"76 490 OFFCURVE",
"82 547 CURVE SMOOTH",
"91 630 OFFCURVE",
"105 708 OFFCURVE",
"125 708 CURVE SMOOTH",
"140 708 OFFCURVE",
"145 680 OFFCURVE",
"145 645 CURVE SMOOTH",
"145 597 OFFCURVE",
"136 536 OFFCURVE",
"133 524 CURVE SMOOTH",
"125 485 OFFCURVE",
"99 412 OFFCURVE",
"74 351 CURVE"
);
}
);
width = 318;
}
);
note = b;
unicode = 0062;
},
{
glyphname = c;
lastChange = "2021-05-05 07:33:14 +0000";
layers = (
{
anchors = (
{
name = bottom;
position = "{204, 0}";
},
{
name = top;
position = "{196, 436}";
}
);
layerId = "68CC9319-F234-4FBF-AF6F-F394745E3D3F";
paths = (
{
closed = 1;
nodes = (
"228 -19 OFFCURVE",
"270 30 OFFCURVE",
"292 104 CURVE SMOOTH",
"294 111 OFFCURVE",
"295 117 OFFCURVE",
"295 122 CURVE SMOOTH",
"295 131 OFFCURVE",
"292 136 OFFCURVE",
"288 136 CURVE SMOOTH",
"284 136 OFFCURVE",
"279 132 OFFCURVE",
"277 124 CURVE SMOOTH",
"258 58 OFFCURVE",
"228 24 OFFCURVE",
"189 24 CURVE SMOOTH",
"124 24 OFFCURVE",
"103 95 OFFCURVE",
"103 176 CURVE SMOOTH",
"103 180 LINE SMOOTH",
"103 230 OFFCURVE",
"113 407 OFFCURVE",
"175 407 CURVE SMOOTH",
"197 407 OFFCURVE",
"204 379 OFFCURVE",
"204 353 CURVE SMOOTH",
"204 318 OFFCURVE",
"211 302 OFFCURVE",
"228 302 CURVE SMOOTH",
"246 302 OFFCURVE",
"262 321 OFFCURVE",
"262 362 CURVE SMOOTH",
"262 400 OFFCURVE",
"235 436 OFFCURVE",
"196 436 CURVE SMOOTH",
"67 436 OFFCURVE",
"25 276 OFFCURVE",
"25 166 CURVE SMOOTH",
"25 156 OFFCURVE",
"25 146 OFFCURVE",
"26 137 CURVE SMOOTH",
"32 57 OFFCURVE",
"62 -19 OFFCURVE",
"155 -19 CURVE SMOOTH"
);
}
);
width = 260;
}
);
note = c;
unicode = 0063;
},
{
glyphname = d;
lastChange = "2021-05-05 07:33:19 +0000";
layers = (
{
anchors = (
{
name = bottom;
position = "{185, 0}";
},
{
name = center;
position = "{185, 217}";
},
{
name = top;
position = "{329, 761}";
},
{
name = topright;
position = "{470, 750}";
}
);
layerId = "68CC9319-F234-4FBF-AF6F-F394745E3D3F";
paths = (
{
closed = 1;
nodes = (
"369 -5 OFFCURVE",
"408 79 OFFCURVE",
"408 134 CURVE SMOOTH",
"408 139 LINE SMOOTH",
"408 147 OFFCURVE",
"406 150 OFFCURVE",
"403 150 CURVE SMOOTH",
"400 150 OFFCURVE",
"396 147 OFFCURVE",
"395 142 CURVE SMOOTH",
"388 117 OFFCURVE",
"363 29 OFFCURVE",
"327 29 CURVE SMOOTH",
"290 29 OFFCURVE",
"283 134 OFFCURVE",
"283 214 CURVE SMOOTH",
"283 257 OFFCURVE",
"285 292 OFFCURVE",
"286 301 CURVE",
"328 381 OFFCURVE",
"380 520 OFFCURVE",
"392 619 CURVE SMOOTH",
"394 634 OFFCURVE",
"396 652 OFFCURVE",
"396 670 CURVE SMOOTH",
"396 715 OFFCURVE",
"384 761 OFFCURVE",
"329 761 CURVE SMOOTH",
"270 761 OFFCURVE",
"248 669 OFFCURVE",
"241 619 CURVE SMOOTH",
"236 581 OFFCURVE",
"232 511 OFFCURVE",
"229 440 CURVE",
"219 447 OFFCURVE",
"206 450 OFFCURVE",
"192 450 CURVE SMOOTH",
"58 450 OFFCURVE",
"23 262 OFFCURVE",
"23 158 CURVE SMOOTH",
"23 72 OFFCURVE",
"42 -4 OFFCURVE",
"91 -4 CURVE SMOOTH",
"145 -4 OFFCURVE",
"194 104 OFFCURVE",
"220 200 CURVE",
"220 98 OFFCURVE",
"233 -5 OFFCURVE",
"306 -5 CURVE SMOOTH"
);
},
{
closed = 1;
nodes = (
"112 78 OFFCURVE",
"101 94 OFFCURVE",
"98 134 CURVE SMOOTH",
"97 143 OFFCURVE",
"97 154 OFFCURVE",
"97 164 CURVE SMOOTH",
"97 224 OFFCURVE",
"108 298 OFFCURVE",
"132 349 CURVE SMOOTH",
"150 387 OFFCURVE",
"185 421 OFFCURVE",
"214 421 CURVE SMOOTH",
"219 421 OFFCURVE",
"224 420 OFFCURVE",
"228 418 CURVE",
"227 390 LINE SMOOTH",
"225 335 OFFCURVE",
"220 281 OFFCURVE",
"206 228 CURVE SMOOTH",
"189 166 OFFCURVE",
"159 78 OFFCURVE",
"126 78 CURVE SMOOTH"
);
},
{
closed = 1;
nodes = (
"284 351 LINE SMOOTH",
"284 398 OFFCURVE",
"307 647 OFFCURVE",
"318 678 CURVE SMOOTH",
"326 700 OFFCURVE",
"334 708 OFFCURVE",
"340 708 CURVE SMOOTH",
"350 708 OFFCURVE",
"357 691 OFFCURVE",
"359 673 CURVE SMOOTH",
"360 664 OFFCURVE",
"360 654 OFFCURVE",
"360 644 CURVE SMOOTH",
"360 549 OFFCURVE",
"321 427 OFFCURVE",
"284 345 CURVE"
);
}
);
width = 370;
}
);
note = d;
unicode = 0064;
},
{
glyphname = e;
lastChange = "2021-05-05 07:33:14 +0000";
layers = (
{
anchors = (
{
name = bottom;
position = "{177, 0}";
},
{
name = ogonek;
position = "{260, 10}";
},
{
name = top;
position = "{187, 434}";
}
);
layerId = "68CC9319-F234-4FBF-AF6F-F394745E3D3F";
paths = (
{
closed = 1;
nodes = (
"212 -19 OFFCURVE",
"245 3 OFFCURVE",
"271 45 CURVE SMOOTH",
"284 67 OFFCURVE",
"298 101 OFFCURVE",
"302 137 CURVE SMOOTH",
"303 146 OFFCURVE",
"299 150 OFFCURVE",
"294 150 CURVE SMOOTH",
"291 150 OFFCURVE",
"287 144 OFFCURVE",
"286 139 CURVE SMOOTH",
"270 72 OFFCURVE",
"245 24 OFFCURVE",
"193 24 CURVE SMOOTH",
"128 24 OFFCURVE",
"105 97 OFFCURVE",
"105 179 CURVE SMOOTH",
"105 184 LINE",
"184 202 OFFCURVE",
"268 267 OFFCURVE",
"268 368 CURVE SMOOTH",
"268 417 OFFCURVE",
"242 443 OFFCURVE",
"200 443 CURVE SMOOTH",
"79 443 OFFCURVE",
"26 297 OFFCURVE",
"26 169 CURVE SMOOTH",
"26 85 OFFCURVE",
"64 -19 OFFCURVE",
"160 -19 CURVE SMOOTH"
);
},
{
closed = 1;
nodes = (
"106 208 LINE SMOOTH",
"106 244 OFFCURVE",
"126 414 OFFCURVE",
"187 414 CURVE SMOOTH",
"207 414 OFFCURVE",
"213 388 OFFCURVE",
"213 364 CURVE SMOOTH",
"213 359 LINE SMOOTH",
"213 293 OFFCURVE",
"169 223 OFFCURVE",
"106 207 CURVE"
);
}
);
width = 263;
}
);
note = e;
unicode = 0065;
},
{
glyphname = f;
lastChange = "2021-05-05 07:33:14 +0000";
layers = (
{
layerId = "68CC9319-F234-4FBF-AF6F-F394745E3D3F";
paths = (
{
closed = 1;
nodes = (
"224 -328 OFFCURVE",
"261 -223 OFFCURVE",
"261 -103 CURVE SMOOTH",
"261 4 OFFCURVE",
"224 157 OFFCURVE",
"109 162 CURVE",
"109 175 OFFCURVE",
"110 188 OFFCURVE",
"111 201 CURVE",
"178 338 OFFCURVE",
"260 534 OFFCURVE",
"260 657 CURVE SMOOTH",
"260 697 OFFCURVE",
"241 754 OFFCURVE",
"191 754 CURVE SMOOTH",
"71 754 OFFCURVE",
"49 407 OFFCURVE",
"44 231 CURVE SMOOTH",
"41 88 OFFCURVE",
"41 44 OFFCURVE",
"41 4 CURVE SMOOTH",
"41 -75 OFFCURVE",
"42 -135 OFFCURVE",
"44 -158 CURVE SMOOTH",
"50 -230 OFFCURVE",
"61 -327 OFFCURVE",
"156 -328 CURVE SMOOTH"
);
},
{
closed = 1;
nodes = (
"124 -308 OFFCURVE",
"104 -174 OFFCURVE",
"104 8 CURVE SMOOTH",
"104 50 OFFCURVE",
"105 93 OFFCURVE",
"107 138 CURVE",
"211 116 OFFCURVE",
"219 -54 OFFCURVE",
"219 -149 CURVE SMOOTH",
"219 -235 OFFCURVE",
"193 -308 OFFCURVE",
"157 -308 CURVE SMOOTH"
);
},
{
closed = 1;
nodes = (
"126 381 OFFCURVE",
"143 505 OFFCURVE",
"169 618 CURVE SMOOTH",
"180 664 OFFCURVE",
"195 696 OFFCURVE",
"211 696 CURVE SMOOTH",
"212 696 LINE SMOOTH",
"223 695 OFFCURVE",
"228 677 OFFCURVE",
"228 651 CURVE SMOOTH",
"228 629 OFFCURVE",
"224 601 OFFCURVE",
"219 572 CURVE SMOOTH",
"199 463 OFFCURVE",
"161 361 OFFCURVE",
"115 261 CURVE"
);
}
);
width = 242;
}
);
note = f;
unicode = 0066;
},
{
glyphname = g;
lastChange = "2021-05-05 07:33:14 +0000";
layers = (
{
anchors = (
{
name = bottom;
position = "{136, -368}";
},
{
name = top;
position = "{222, 434}";
}
);
layerId = "68CC9319-F234-4FBF-AF6F-F394745E3D3F";
paths = (
{
closed = 1;
nodes = (
"221 -368 OFFCURVE",
"317 -238 OFFCURVE",
"317 38 CURVE SMOOTH",
"317 54 LINE SMOOTH",
"317 76 OFFCURVE",
"380 116 OFFCURVE",
"404 118 CURVE SMOOTH",
"409 118 OFFCURVE",
"412 124 OFFCURVE",
"412 129 CURVE SMOOTH",
"412 132 OFFCURVE",
"411 135 OFFCURVE",
"407 136 CURVE SMOOTH",
"406 136 OFFCURVE",
"404 137 OFFCURVE",
"402 137 CURVE SMOOTH",
"387 137 OFFCURVE",
"356 121 OFFCURVE",
"319 99 CURVE",
"319 110 LINE SMOOTH",
"319 139 OFFCURVE",
"317 196 OFFCURVE",
"317 254 CURVE SMOOTH",
"317 329 OFFCURVE",
"321 406 OFFCURVE",
"342 424 CURVE SMOOTH",
"344 426 OFFCURVE",
"346 428 OFFCURVE",
"346 430 CURVE SMOOTH",
"346 433 OFFCURVE",
"342 436 OFFCURVE",
"331 436 CURVE SMOOTH",
"319 436 LINE SMOOTH",
"303 436 OFFCURVE",
"281 434 OFFCURVE",
"265 415 CURVE",
"249 435 OFFCURVE",
"222 449 OFFCURVE",
"191 449 CURVE SMOOTH",
"165 449 OFFCURVE",
"136 439 OFFCURVE",
"109 414 CURVE SMOOTH",
"47 356 OFFCURVE",
"26 254 OFFCURVE",
"26 147 CURVE SMOOTH",
"26 92 OFFCURVE",
"36 -7 OFFCURVE",
"106 -7 CURVE SMOOTH",
"173 -7 OFFCURVE",
"214 123 OFFCURVE",
"237 215 CURVE SMOOTH",
"239 223 OFFCURVE",
"242 232 OFFCURVE",
"245 241 CURVE",
"249 188 OFFCURVE",
"254 102 OFFCURVE",
"254 67 CURVE SMOOTH",
"254 60 LINE",
"196 24 OFFCURVE",
"92 -49 OFFCURVE",
"46 -138 CURVE SMOOTH",
"23 -183 OFFCURVE",
"7 -231 OFFCURVE",
"7 -272 CURVE SMOOTH",
"7 -327 OFFCURVE",
"35 -368 OFFCURVE",
"109 -368 CURVE SMOOTH"
);
},
{
closed = 1;
nodes = (
"68 -347 OFFCURVE",
"51 -317 OFFCURVE",
"51 -273 CURVE SMOOTH",
"51 -243 OFFCURVE",
"60 -205 OFFCURVE",
"78 -166 CURVE SMOOTH",
"126 -61 OFFCURVE",
"222 16 OFFCURVE",
"255 35 CURVE",
"252 -34 OFFCURVE",
"238 -347 OFFCURVE",
"101 -347 CURVE SMOOTH",
"98 -347 LINE SMOOTH"
);
},
{
closed = 1;
nodes = (
"101 74 OFFCURVE",
"100 149 OFFCURVE",
"100 167 CURVE SMOOTH",
"100 236 OFFCURVE",
"128 420 OFFCURVE",
"227 420 CURVE SMOOTH",
"239 420 OFFCURVE",
"250 416 OFFCURVE",
"258 406 CURVE",
"252 396 OFFCURVE",
"247 383 OFFCURVE",
"244 366 CURVE SMOOTH",
"235 317 OFFCURVE",
"197 74 OFFCURVE",
"135 74 CURVE SMOOTH",
"132 74 LINE SMOOTH"
);
}
);
width = 385;
}
);
note = g;
unicode = 0067;
},
{
glyphname = h;
lastChange = "2021-05-05 07:33:19 +0000";
layers = (
{
anchors = (
{
name = bottom;
position = "{160, 0}";
},
{
name = center;
position = "{180, 515}";
},
{
name = top;
position = "{140, 760}";
}
);
layerId = "68CC9319-F234-4FBF-AF6F-F394745E3D3F";
paths = (
{
closed = 1;
nodes = (
"281 -5 LINE SMOOTH",
"336 -5 OFFCURVE",
"369 36 OFFCURVE",
"386 85 CURVE SMOOTH",
"391 100 OFFCURVE",
"397 116 OFFCURVE",
"397 126 CURVE SMOOTH",
"397 130 LINE SMOOTH",
"397 137 OFFCURVE",
"395 140 OFFCURVE",
"392 140 CURVE SMOOTH",
"387 140 OFFCURVE",
"382 135 OFFCURVE",
"380 129 CURVE SMOOTH",
"366 87 OFFCURVE",
"355 55 OFFCURVE",
"327 38 CURVE SMOOTH",
"321 35 OFFCURVE",
"316 33 OFFCURVE",
"311 33 CURVE SMOOTH",
"297 33 OFFCURVE",
"286 45 OFFCURVE",
"280 68 CURVE SMOOTH",
"277 81 OFFCURVE",
"275 98 OFFCURVE",
"275 117 CURVE SMOOTH",
"275 197 OFFCURVE",
"301 313 OFFCURVE",
"305 334 CURVE SMOOTH",
"308 346 OFFCURVE",
"310 363 OFFCURVE",
"310 379 CURVE SMOOTH",
"310 411 OFFCURVE",
"300 443 OFFCURVE",
"260 443 CURVE SMOOTH",
"220 443 OFFCURVE",
"190 405 OFFCURVE",
"170 375 CURVE SMOOTH",
"134 321 OFFCURVE",
"112 263 OFFCURVE",
"97 202 CURVE",
"94 277 LINE",
"117 322 OFFCURVE",
"140 374 OFFCURVE",
"157 424 CURVE SMOOTH",
"168 458 OFFCURVE",
"205 572 OFFCURVE",
"205 659 CURVE SMOOTH",
"205 715 OFFCURVE",
"189 760 OFFCURVE",
"139 760 CURVE SMOOTH",
"51 760 OFFCURVE",
"35 611 OFFCURVE",
"35 496 CURVE SMOOTH",
"35 449 OFFCURVE",
"38 407 OFFCURVE",
"39 385 CURVE SMOOTH",
"44 314 OFFCURVE",
"47 242 OFFCURVE",
"47 170 CURVE SMOOTH",
"47 138 OFFCURVE",
"47 107 OFFCURVE",
"45 75 CURVE SMOOTH",
"43 36 OFFCURVE",
"43 6 OFFCURVE",
"40 -4 CURVE",
"57 -4 OFFCURVE",
"80 3 OFFCURVE",
"94 29 CURVE SMOOTH",
"101 41 OFFCURVE",
"106 142 OFFCURVE",
"110 165 CURVE SMOOTH",
"125 244 OFFCURVE",
"156 313 OFFCURVE",
"181 346 CURVE SMOOTH",
"195 365 OFFCURVE",
"206 372 OFFCURVE",
"213 372 CURVE SMOOTH",
"226 372 OFFCURVE",
"229 352 OFFCURVE",
"229 329 CURVE SMOOTH",
"229 317 OFFCURVE",
"228 304 OFFCURVE",
"226 292 CURVE SMOOTH",
"219 252 OFFCURVE",
"206 172 OFFCURVE",
"206 109 CURVE SMOOTH",
"206 90 OFFCURVE",
"207 72 OFFCURVE",
"210 58 CURVE SMOOTH",
"217 20 OFFCURVE",
"243 -5 OFFCURVE",
"279 -5 CURVE SMOOTH"
);
},
{
closed = 1;
nodes = (
"93 358 LINE SMOOTH",
"93 425 OFFCURVE",
"95 493 OFFCURVE",
"103 563 CURVE SMOOTH",
"112 642 OFFCURVE",
"129 707 OFFCURVE",
"149 707 CURVE SMOOTH",
"165 707 OFFCURVE",
"172 679 OFFCURVE",
"173 640 CURVE SMOOTH",
"173 637 OFFCURVE",
"173 633 OFFCURVE",
"173 630 CURVE SMOOTH",
"173 539 OFFCURVE",
"137 417 OFFCURVE",
"93 319 CURVE"
);
}
);
width = 359;
}
);
note = h;
unicode = 0068;
},
{
glyphname = i;
lastChange = "2021-05-05 07:33:14 +0000";
layers = (
{
anchors = (
{
name = bottom;
position = "{112, -5}";
}
);
layerId = "68CC9319-F234-4FBF-AF6F-F394745E3D3F";
paths = (
{
closed = 1;
nodes = (
"172 -5 OFFCURVE",
"207 82 OFFCURVE",
"211 135 CURVE SMOOTH",
"211 137 OFFCURVE",
"211 138 OFFCURVE",
"211 139 CURVE SMOOTH",
"211 148 OFFCURVE",
"209 151 OFFCURVE",
"206 151 CURVE SMOOTH",
"203 151 OFFCURVE",
"199 147 OFFCURVE",
"198 142 CURVE SMOOTH",
"190 113 OFFCURVE",
"180 86 OFFCURVE",
"170 67 CURVE SMOOTH",
"155 38 OFFCURVE",
"143 29 OFFCURVE",
"132 29 CURVE SMOOTH",
"131 29 LINE SMOOTH",
"93 29 OFFCURVE",
"90 127 OFFCURVE",
"90 197 CURVE SMOOTH",
"90 297 OFFCURVE",
"115 384 OFFCURVE",
"128 431 CURVE",
"119 433 OFFCURVE",
"110 434 OFFCURVE",
"102 434 CURVE SMOOTH",
"71 434 OFFCURVE",
"54 417 OFFCURVE",
"46 401 CURVE SMOOTH",
"33 375 OFFCURVE",
"18 289 OFFCURVE",
"18 203 CURVE SMOOTH",
"18 99 OFFCURVE",
"40 -5 OFFCURVE",
"112 -5 CURVE SMOOTH"
);
},
{
closed = 1;
nodes = (
"146 506 OFFCURVE",
"167 527 OFFCURVE",
"167 554 CURVE SMOOTH",
"167 580 OFFCURVE",
"146 602 OFFCURVE",
"119 602 CURVE SMOOTH",
"93 602 OFFCURVE",
"71 580 OFFCURVE",
"71 554 CURVE SMOOTH",
"71 527 OFFCURVE",
"93 506 OFFCURVE",
"119 506 CURVE SMOOTH"
);
}
);
width = 173;
}
);
note = i;
unicode = 0069;
},
{
glyphname = j;
lastChange = "2021-05-05 07:33:14 +0000";
layers = (
{
layerId = "68CC9319-F234-4FBF-AF6F-F394745E3D3F";
paths = (
{
closed = 1;
nodes = (
"42 -368 OFFCURVE",
"138 -238 OFFCURVE",
"138 38 CURVE SMOOTH",
"138 54 LINE SMOOTH",
"138 76 OFFCURVE",
"201 116 OFFCURVE",
"225 118 CURVE SMOOTH",
"230 118 OFFCURVE",
"233 124 OFFCURVE",
"233 129 CURVE SMOOTH",
"233 132 OFFCURVE",
"232 135 OFFCURVE",
"228 136 CURVE SMOOTH",
"227 136 OFFCURVE",
"225 137 OFFCURVE",
"223 137 CURVE SMOOTH",
"208 137 OFFCURVE",
"177 121 OFFCURVE",
"140 99 CURVE",
"140 110 LINE SMOOTH",
"140 139 OFFCURVE",
"138 196 OFFCURVE",
"138 254 CURVE SMOOTH",
"138 329 OFFCURVE",
"142 406 OFFCURVE",
"163 424 CURVE SMOOTH",
"165 426 OFFCURVE",
"166 427 OFFCURVE",
"166 429 CURVE SMOOTH",
"166 432 OFFCURVE",
"162 435 OFFCURVE",
"152 436 CURVE SMOOTH",
"147 437 OFFCURVE",
"140 438 OFFCURVE",
"132 438 CURVE SMOOTH",
"112 438 OFFCURVE",
"87 432 OFFCURVE",
"72 399 CURVE SMOOTH",
"63 381 OFFCURVE",
"61 356 OFFCURVE",
"61 331 CURVE SMOOTH",
"61 302 OFFCURVE",
"64 271 OFFCURVE",
"66 247 CURVE SMOOTH",
"71 182 OFFCURVE",
"75 101 OFFCURVE",
"75 68 CURVE SMOOTH",
"75 60 LINE",
"17 24 OFFCURVE",
"-87 -49 OFFCURVE",
"-133 -138 CURVE SMOOTH",
"-156 -183 OFFCURVE",
"-172 -231 OFFCURVE",
"-172 -272 CURVE SMOOTH",
"-172 -327 OFFCURVE",
"-144 -368 OFFCURVE",
"-70 -368 CURVE SMOOTH"
);
},
{
closed = 1;
nodes = (
"-111 -347 OFFCURVE",
"-128 -317 OFFCURVE",
"-128 -273 CURVE SMOOTH",
"-128 -243 OFFCURVE",
"-119 -205 OFFCURVE",
"-101 -166 CURVE SMOOTH",
"-53 -61 OFFCURVE",
"43 16 OFFCURVE",
"76 35 CURVE",
"73 -34 OFFCURVE",
"59 -347 OFFCURVE",
"-78 -347 CURVE SMOOTH",
"-81 -347 LINE SMOOTH"
);
},
{
closed = 1;
nodes = (
"141 506 OFFCURVE",
"162 527 OFFCURVE",
"162 554 CURVE SMOOTH",
"162 580 OFFCURVE",
"141 602 OFFCURVE",
"114 602 CURVE SMOOTH",
"87 602 OFFCURVE",
"66 580 OFFCURVE",
"66 554 CURVE SMOOTH",
"66 527 OFFCURVE",
"87 506 OFFCURVE",
"114 506 CURVE SMOOTH"
);
}
);
width = 199;
}
);
note = j;
unicode = 006A;
},
{
glyphname = k;
lastChange = "2021-05-05 07:33:19 +0000";
layers = (
{
anchors = (
{
name = bottom;
position = "{132, 0}";
},
{
name = top;
position = "{119, 760}";
}
);
layerId = "68CC9319-F234-4FBF-AF6F-F394745E3D3F";
paths = (
{
closed = 1;
nodes = (
"269 -5 OFFCURVE",
"271 -5 OFFCURVE",
"273 -5 CURVE SMOOTH",
"301 -4 OFFCURVE",
"324 14 OFFCURVE",
"340 39 CURVE SMOOTH",
"359 68 OFFCURVE",
"370 107 OFFCURVE",
"372 135 CURVE SMOOTH",
"372 137 OFFCURVE",
"372 138 OFFCURVE",
"372 139 CURVE SMOOTH",
"372 148 OFFCURVE",
"370 151 OFFCURVE",
"367 151 CURVE SMOOTH",
"364 151 OFFCURVE",
"361 147 OFFCURVE",
"359 142 CURVE SMOOTH",
"351 115 OFFCURVE",
"342 90 OFFCURVE",
"333 71 CURVE SMOOTH",
"326 57 OFFCURVE",
"314 36 OFFCURVE",
"296 36 CURVE SMOOTH",
"244 35 OFFCURVE",
"195 203 OFFCURVE",
"188 250 CURVE",
"243 277 OFFCURVE",
"317 353 OFFCURVE",
"317 407 CURVE SMOOTH",
"317 435 OFFCURVE",
"308 466 OFFCURVE",
"265 466 CURVE SMOOTH",
"167 466 OFFCURVE",
"106 275 OFFCURVE",
"78 156 CURVE",
"77 198 OFFCURVE",
"75 242 OFFCURVE",
"73 278 CURVE",
"96 322 OFFCURVE",
"119 374 OFFCURVE",
"136 424 CURVE SMOOTH",
"147 458 OFFCURVE",
"184 573 OFFCURVE",
"184 659 CURVE SMOOTH",
"184 715 OFFCURVE",
"168 760 OFFCURVE",
"118 760 CURVE SMOOTH",
"30 760 OFFCURVE",
"14 611 OFFCURVE",
"14 496 CURVE SMOOTH",
"14 449 OFFCURVE",
"16 407 OFFCURVE",
"18 385 CURVE SMOOTH",
"23 318 OFFCURVE",
"26 247 OFFCURVE",
"26 168 CURVE SMOOTH",
"26 157 LINE SMOOTH",
"26 129 OFFCURVE",
"25 101 OFFCURVE",
"24 75 CURVE SMOOTH",
"22 36 OFFCURVE",
"22 6 OFFCURVE",
"19 -4 CURVE",
"36 -4 OFFCURVE",
"51 5 OFFCURVE",
"62 21 CURVE SMOOTH",
"67 28 OFFCURVE",
"71 41 OFFCURVE",
"73 57 CURVE",
"74 58 OFFCURVE",
"75 59 OFFCURVE",
"75 61 CURVE SMOOTH",
"81 96 OFFCURVE",
"100 169 OFFCURVE",
"126 238 CURVE",
"127 238 LINE",
"127 237 OFFCURVE",
"126 236 OFFCURVE",
"126 234 CURVE SMOOTH",
"129 204 OFFCURVE",
"146 129 OFFCURVE",
"168 77 CURVE SMOOTH",
"188 29 OFFCURVE",
"214 -5 OFFCURVE",
"267 -5 CURVE SMOOTH"
);
},
{
closed = 1;
nodes = (
"145 285 OFFCURVE",
"193 395 OFFCURVE",
"241 395 CURVE SMOOTH",
"253 395 OFFCURVE",
"258 387 OFFCURVE",
"258 376 CURVE SMOOTH",
"258 338 OFFCURVE",
"205 259 OFFCURVE",
"130 248 CURVE"
);
},
{
closed = 1;
nodes = (
"71 323 OFFCURVE",
"71 330 OFFCURVE",
"71 336 CURVE SMOOTH",
"71 371 OFFCURVE",
"75 519 OFFCURVE",
"90 617 CURVE SMOOTH",
"99 673 OFFCURVE",
"112 707 OFFCURVE",
"128 707 CURVE SMOOTH",
"144 707 OFFCURVE",
"151 679 OFFCURVE",
"152 640 CURVE SMOOTH",
"152 636 OFFCURVE",
"152 633 OFFCURVE",
"152 629 CURVE SMOOTH",
"152 537 OFFCURVE",
"116 414 OFFCURVE",
"72 315 CURVE"
);
}
);
width = 334;
}
);
note = k;
unicode = 006B;
},
{
glyphname = l;
lastChange = "2021-05-05 07:33:14 +0000";
layers = (
{
anchors = (
{
name = bottom;
position = "{127, -4}";
},
{
name = center;
position = "{78, 520}";
},
{
name = top;
position = "{159, 761}";
},
{
name = topright;
position = "{277, 761}";
}
);
layerId = "68CC9319-F234-4FBF-AF6F-F394745E3D3F";
paths = (
{
closed = 1;
nodes = (
"183 -4 OFFCURVE",
"211 37 OFFCURVE",
"227 86 CURVE SMOOTH",
"232 101 OFFCURVE",
"236 116 OFFCURVE",
"236 126 CURVE SMOOTH",
"236 128 LINE SMOOTH",
"236 136 OFFCURVE",
"234 139 OFFCURVE",
"231 139 CURVE SMOOTH",
"227 139 OFFCURVE",
"222 134 OFFCURVE",
"220 128 CURVE SMOOTH",
"215 112 OFFCURVE",
"210 97 OFFCURVE",
"205 85 CURVE SMOOTH",
"196 62 OFFCURVE",
"178 31 OFFCURVE",
"149 31 CURVE SMOOTH",
"98 31 OFFCURVE",
"88 139 OFFCURVE",
"88 230 CURVE SMOOTH",
"88 241 OFFCURVE",
"88 252 OFFCURVE",
"89 263 CURVE",
"115 310 OFFCURVE",
"145 369 OFFCURVE",
"165 425 CURVE SMOOTH",
"205 533 OFFCURVE",
"218 621 OFFCURVE",
"218 693 CURVE SMOOTH",
"218 729 OFFCURVE",
"204 761 OFFCURVE",
"159 761 CURVE SMOOTH",
"100 761 OFFCURVE",
"67 675 OFFCURVE",
"56 625 CURVE SMOOTH",
"33 526 OFFCURVE",
"23 380 OFFCURVE",
"23 257 CURVE SMOOTH",
"23 212 OFFCURVE",
"24 171 OFFCURVE",
"27 135 CURVE SMOOTH",
"31 78 OFFCURVE",
"55 -4 OFFCURVE",
"127 -4 CURVE SMOOTH"
);
},
{
closed = 1;
nodes = (
"91 323 OFFCURVE",
"92 336 OFFCURVE",
"92 344 CURVE SMOOTH",
"94 399 OFFCURVE",
"123 708 OFFCURVE",
"166 708 CURVE SMOOTH",
"182 708 OFFCURVE",
"187 680 OFFCURVE",
"187 641 CURVE SMOOTH",
"187 546 OFFCURVE",
"142 411 OFFCURVE",
"90 306 CURVE"
);
}
);
width = 200;
}
);
note = l;
unicode = 006C;
},
{
glyphname = m;
lastChange = "2021-05-05 07:33:14 +0000";
layers = (
{
layerId = "68CC9319-F234-4FBF-AF6F-F394745E3D3F";
paths = (
{
closed = 1;
nodes = (
"61 -8 OFFCURVE",
"77 -2 OFFCURVE",
"92 6 CURVE",
"88 29 OFFCURVE",
"86 52 OFFCURVE",
"86 75 CURVE SMOOTH",
"86 188 OFFCURVE",
"129 301 OFFCURVE",
"163 346 CURVE SMOOTH",
"173 360 OFFCURVE",
"181 365 OFFCURVE",
"188 365 CURVE SMOOTH",
"206 365 OFFCURVE",
"208 319 OFFCURVE",
"208 294 CURVE SMOOTH",
"208 287 OFFCURVE",
"208 281 OFFCURVE",
"208 279 CURVE SMOOTH",
"205 232 OFFCURVE",
"200 183 OFFCURVE",
"200 137 CURVE SMOOTH",
"200 105 OFFCURVE",
"203 74 OFFCURVE",
"212 48 CURVE SMOOTH",
"222 19 OFFCURVE",
"240 12 OFFCURVE",
"255 12 CURVE SMOOTH",
"265 12 OFFCURVE",
"273 15 OFFCURVE",
"276 17 CURVE",
"271 42 OFFCURVE",
"269 67 OFFCURVE",
"269 92 CURVE SMOOTH",
"269 200 OFFCURVE",
"307 302 OFFCURVE",
"340 346 CURVE SMOOTH",
"352 361 OFFCURVE",
"360 368 OFFCURVE",
"366 368 CURVE SMOOTH",
"380 368 OFFCURVE",
"383 338 OFFCURVE",
"383 313 CURVE SMOOTH",
"383 301 OFFCURVE",
"382 291 OFFCURVE",
"382 285 CURVE SMOOTH",
"381 240 OFFCURVE",
"379 200 OFFCURVE",
"377 142 CURVE SMOOTH",
"377 137 OFFCURVE",
"377 131 OFFCURVE",
"377 124 CURVE SMOOTH",
"377 70 OFFCURVE",
"387 -6 OFFCURVE",
"455 -6 CURVE SMOOTH",
"511 -6 OFFCURVE",
"537 37 OFFCURVE",
"553 86 CURVE SMOOTH",
"558 101 OFFCURVE",
"562 116 OFFCURVE",
"562 126 CURVE SMOOTH",
"562 128 LINE SMOOTH",
"562 136 OFFCURVE",
"560 140 OFFCURVE",
"556 140 CURVE SMOOTH",
"552 140 OFFCURVE",
"548 134 OFFCURVE",
"546 128 CURVE SMOOTH",
"539 101 OFFCURVE",
"518 32 OFFCURVE",
"481 32 CURVE SMOOTH",
"452 32 OFFCURVE",
"447 96 OFFCURVE",
"447 142 CURVE SMOOTH",
"447 162 OFFCURVE",
"448 179 OFFCURVE",
"448 185 CURVE SMOOTH",
"450 250 OFFCURVE",
"456 314 OFFCURVE",
"457 333 CURVE SMOOTH",
"458 349 OFFCURVE",
"459 364 OFFCURVE",
"459 379 CURVE SMOOTH",
"459 415 OFFCURVE",
"452 443 OFFCURVE",
"415 443 CURVE SMOOTH",
"388 443 OFFCURVE",
"357 417 OFFCURVE",
"329 375 CURVE SMOOTH",
"309 346 OFFCURVE",
"291 317 OFFCURVE",
"277 274 CURVE SMOOTH",
"267 244 LINE",
"273 333 LINE SMOOTH",
"274 353 OFFCURVE",
"277 374 OFFCURVE",
"277 393 CURVE SMOOTH",
"277 421 OFFCURVE",
"270 443 OFFCURVE",
"238 443 CURVE SMOOTH",
"211 443 OFFCURVE",
"180 417 OFFCURVE",
"152 375 CURVE SMOOTH",
"132 346 OFFCURVE",
"114 317 OFFCURVE",
"100 274 CURVE",
"102 298 OFFCURVE",
"103 335 OFFCURVE",
"103 359 CURVE SMOOTH",
"103 394 OFFCURVE",
"100 421 OFFCURVE",
"77 421 CURVE SMOOTH",
"74 421 OFFCURVE",
"72 421 OFFCURVE",
"69 420 CURVE SMOOTH",
"50 416 OFFCURVE",
"34 400 OFFCURVE",
"21 397 CURVE",
"30 367 OFFCURVE",
"33 312 OFFCURVE",
"33 254 CURVE SMOOTH",
"33 175 OFFCURVE",
"28 90 OFFCURVE",
"23 56 CURVE SMOOTH",
"22 45 OFFCURVE",
"21 36 OFFCURVE",
"21 28 CURVE SMOOTH",
"21 2 OFFCURVE",
"29 -8 OFFCURVE",
"48 -8 CURVE SMOOTH"
);
}
);
width = 526;
}
);
note = m;
unicode = 006D;
},
{
glyphname = n;
lastChange = "2021-05-05 07:33:19 +0000";
layers = (
{
anchors = (
{
name = bottom;
position = "{148, 0}";
},
{
name = top;
position = "{146, 434}";
}
);
layerId = "68CC9319-F234-4FBF-AF6F-F394745E3D3F";
paths = (
{
closed = 1;
nodes = (
"66 -8 OFFCURVE",
"82 0 OFFCURVE",
"92 7 CURVE",
"88 30 OFFCURVE",
"86 53 OFFCURVE",
"86 76 CURVE SMOOTH",
"86 188 OFFCURVE",
"129 301 OFFCURVE",
"163 346 CURVE SMOOTH",
"175 362 OFFCURVE",
"185 369 OFFCURVE",
"192 369 CURVE SMOOTH",
"208 369 OFFCURVE",
"211 348 OFFCURVE",
"211 330 CURVE SMOOTH",
"211 272 OFFCURVE",
"198 209 OFFCURVE",
"198 147 CURVE SMOOTH",
"198 122 OFFCURVE",
"200 96 OFFCURVE",
"205 71 CURVE SMOOTH",
"214 26 OFFCURVE",
"233 -6 OFFCURVE",
"271 -6 CURVE SMOOTH",
"327 -6 OFFCURVE",
"356 37 OFFCURVE",
"372 86 CURVE SMOOTH",
"377 101 OFFCURVE",
"381 116 OFFCURVE",
"381 126 CURVE SMOOTH",
"381 130 LINE SMOOTH",
"381 137 OFFCURVE",
"379 140 OFFCURVE",
"376 140 CURVE SMOOTH",
"372 140 OFFCURVE",
"367 134 OFFCURVE",
"365 128 CURVE SMOOTH",
"361 112 OFFCURVE",
"355 97 OFFCURVE",
"350 85 CURVE SMOOTH",
"343 68 OFFCURVE",
"332 48 OFFCURVE",
"317 38 CURVE SMOOTH",
"310 34 OFFCURVE",
"305 32 OFFCURVE",
"299 32 CURVE SMOOTH",
"264 32 OFFCURVE",
"263 118 OFFCURVE",
"263 148 CURVE SMOOTH",
"263 227 OFFCURVE",
"274 318 OFFCURVE",
"275 333 CURVE SMOOTH",
"276 346 OFFCURVE",
"278 362 OFFCURVE",
"278 379 CURVE SMOOTH",
"278 411 OFFCURVE",
"270 443 OFFCURVE",
"230 443 CURVE SMOOTH",
"191 443 OFFCURVE",
"172 405 OFFCURVE",
"152 375 CURVE SMOOTH",
"132 346 OFFCURVE",
"114 317 OFFCURVE",
"100 274 CURVE",
"102 298 OFFCURVE",
"103 335 OFFCURVE",
"103 359 CURVE SMOOTH",
"103 394 OFFCURVE",
"100 421 OFFCURVE",
"77 421 CURVE SMOOTH",
"74 421 OFFCURVE",
"72 421 OFFCURVE",
"69 420 CURVE SMOOTH",
"50 416 OFFCURVE",
"32 400 OFFCURVE",
"21 397 CURVE",
"29 367 OFFCURVE",
"32 314 OFFCURVE",
"32 258 CURVE SMOOTH",
"32 178 OFFCURVE",
"26 91 OFFCURVE",
"22 56 CURVE SMOOTH",
"21 49 OFFCURVE",
"21 43 OFFCURVE",
"21 38 CURVE SMOOTH",
"21 5 OFFCURVE",
"35 -8 OFFCURVE",
"54 -8 CURVE SMOOTH"
);
}
);
width = 345;
}
);
note = n;
unicode = 006E;
},
{
glyphname = o;
lastChange = "2021-05-05 07:33:14 +0000";
layers = (
{
anchors = (
{
name = bottom;
position = "{147, 0}";
},
{
name = center;
position = "{147, 217}";
},
{
name = ogonek;
position = "{228, 10}";
},
{
name = top;
position = "{192, 454}";
},
{
name = topright;
position = "{202, 433}";
}
);
layerId = "68CC9319-F234-4FBF-AF6F-F394745E3D3F";
paths = (
{
closed = 1;
nodes = (
"206 -10 OFFCURVE",
"252 79 OFFCURVE",
"269 142 CURVE SMOOTH",
"278 174 OFFCURVE",
"287 231 OFFCURVE",
"287 287 CURVE SMOOTH",
"287 371 OFFCURVE",
"266 454 OFFCURVE",
"192 454 CURVE SMOOTH",
"84 454 OFFCURVE",
"43 353 OFFCURVE",
"33 270 CURVE SMOOTH",
"31 249 OFFCURVE",
"28 219 OFFCURVE",
"28 186 CURVE SMOOTH",
"28 98 OFFCURVE",
"47 -10 OFFCURVE",
"137 -10 CURVE SMOOTH"
);
},
{
closed = 1;
nodes = (
"124 45 OFFCURVE",
"114 125 OFFCURVE",
"114 193 CURVE SMOOTH",
"114 229 OFFCURVE",
"117 261 OFFCURVE",
"119 276 CURVE SMOOTH",
"122 303 OFFCURVE",
"147 433 OFFCURVE",
"196 433 CURVE SMOOTH",
"202 433 OFFCURVE",
"208 431 OFFCURVE",
"215 426 CURVE",
"209 422 OFFCURVE",
"199 412 OFFCURVE",
"199 401 CURVE SMOOTH",
"199 395 OFFCURVE",
"202 388 OFFCURVE",
"211 382 CURVE SMOOTH",
"243 360 OFFCURVE",
"253 301 OFFCURVE",
"253 246 CURVE SMOOTH",
"253 210 OFFCURVE",
"249 176 OFFCURVE",
"244 155 CURVE SMOOTH",
"235 118 OFFCURVE",
"211 45 OFFCURVE",
"170 45 CURVE SMOOTH"
);
}
);
width = 294;
}
);
note = o;
unicode = 006F;
},
{
glyphname = p;
lastChange = "2021-05-05 07:33:14 +0000";
layers = (
{
layerId = "68CC9319-F234-4FBF-AF6F-F394745E3D3F";
paths = (
{
closed = 1;
nodes = (
"2 -344 LINE SMOOTH",
"47 -344 OFFCURVE",
"72 -298 OFFCURVE",
"86 -233 CURVE SMOOTH",
"91 -208 OFFCURVE",
"95 -172 OFFCURVE",
"97 -130 CURVE SMOOTH",
"98 -109 OFFCURVE",
"98 -74 OFFCURVE",
"98 -32 CURVE SMOOTH",
"98 12 LINE",
"109 3 OFFCURVE",
"123 0 OFFCURVE",
"142 0 CURVE SMOOTH",
"253 0 OFFCURVE",
"297 148 OFFCURVE",
"297 259 CURVE SMOOTH",
"297 314 OFFCURVE",
"296 448 OFFCURVE",
"216 448 CURVE SMOOTH",
"168 448 OFFCURVE",
"121 342 OFFCURVE",
"94 243 CURVE",
"93 290 OFFCURVE",
"93 330 OFFCURVE",
"92 354 CURVE SMOOTH",
"90 390 OFFCURVE",
"87 420 OFFCURVE",
"62 420 CURVE SMOOTH",
"57 420 LINE SMOOTH",
"41 418 OFFCURVE",
"24 405 OFFCURVE",
"-3 397 CURVE",
"8 363 OFFCURVE",
"25 262 OFFCURVE",
"25 145 CURVE SMOOTH",
"25 141 LINE SMOOTH",
"25 84 OFFCURVE",
"-6 40 OFFCURVE",
"-24 -13 CURVE SMOOTH",
"-37 -50 OFFCURVE",
"-50 -93 OFFCURVE",
"-57 -135 CURVE SMOOTH",
"-62 -166 OFFCURVE",
"-65 -198 OFFCURVE",
"-65 -226 CURVE SMOOTH",
"-65 -293 OFFCURVE",
"-48 -344 OFFCURVE",
"-1 -344 CURVE SMOOTH"
);
},
{
closed = 1;
nodes = (
"-16 -312 OFFCURVE",
"-27 -293 OFFCURVE",
"-31 -274 CURVE SMOOTH",
"-35 -253 OFFCURVE",
"-37 -231 OFFCURVE",
"-37 -210 CURVE SMOOTH",
"-37 -160 OFFCURVE",
"-27 -109 OFFCURVE",
"-14 -61 CURVE SMOOTH",
"-3 -19 OFFCURVE",
"13 22 OFFCURVE",
"25 50 CURVE",
"28 9 OFFCURVE",
"31 -58 OFFCURVE",
"31 -123 CURVE SMOOTH",
"31 -183 OFFCURVE",
"28 -241 OFFCURVE",
"19 -276 CURVE SMOOTH",
"12 -302 OFFCURVE",
"3 -312 OFFCURVE",
"-5 -312 CURVE SMOOTH"
);
},
{
closed = 1;
nodes = (
"116 27 OFFCURVE",
"106 31 OFFCURVE",
"97 40 CURVE",
"97 78 OFFCURVE",
"97 117 OFFCURVE",
"96 156 CURVE",
"117 249 OFFCURVE",
"154 378 OFFCURVE",
"186 378 CURVE SMOOTH",
"212 378 OFFCURVE",
"220 323 OFFCURVE",
"220 266 CURVE SMOOTH",
"220 233 OFFCURVE",
"218 199 OFFCURVE",
"214 176 CURVE SMOOTH",
"206 122 OFFCURVE",
"186 61 OFFCURVE",
"156 37 CURVE SMOOTH",
"148 31 OFFCURVE",
"138 27 OFFCURVE",
"127 27 CURVE SMOOTH"
);
}
);
width = 330;
}
);
note = p;
unicode = 0070;
},
{
glyphname = q;
lastChange = "2021-05-05 07:33:19 +0000";
layers = (
{
layerId = "68CC9319-F234-4FBF-AF6F-F394745E3D3F";
paths = (
{
closed = 1;
nodes = (
"370 -327 OFFCURVE",
"399 -263 OFFCURVE",
"399 -162 CURVE SMOOTH",
"399 -157 OFFCURVE",
"399 -153 OFFCURVE",
"399 -148 CURVE SMOOTH",
"397 -63 OFFCURVE",
"343 39 OFFCURVE",
"271 39 CURVE SMOOTH",
"268 39 LINE",
"273 138 OFFCURVE",
"282 240 OFFCURVE",
"292 316 CURVE SMOOTH",
"298 361 OFFCURVE",
"305 405 OFFCURVE",
"316 447 CURVE",
"304 450 OFFCURVE",
"294 451 OFFCURVE",
"285 451 CURVE SMOOTH",
"261 451 OFFCURVE",
"250 441 OFFCURVE",
"242 428 CURVE",
"222 447 OFFCURVE",
"200 454 OFFCURVE",
"178 454 CURVE SMOOTH",
"53 454 OFFCURVE",
"23 271 OFFCURVE",
"23 158 CURVE SMOOTH",
"23 142 OFFCURVE",
"24 127 OFFCURVE",
"25 114 CURVE SMOOTH",
"30 52 OFFCURVE",
"53 -4 OFFCURVE",
"90 -4 CURVE SMOOTH",
"91 -4 LINE SMOOTH",
"143 -4 OFFCURVE",
"191 109 OFFCURVE",
"214 195 CURVE",
"209 140 OFFCURVE",
"197 37 OFFCURVE",
"197 -64 CURVE SMOOTH",
"197 -198 OFFCURVE",
"218 -327 OFFCURVE",
"304 -327 CURVE SMOOTH"
);
},
{
closed = 1;
nodes = (
"293 -301 OFFCURVE",
"276 -271 OFFCURVE",
"269 -184 CURVE SMOOTH",
"266 -151 OFFCURVE",
"265 -114 OFFCURVE",
"265 -74 CURVE SMOOTH",
"265 -45 OFFCURVE",
"266 -14 OFFCURVE",
"267 17 CURVE",
"331 2 OFFCURVE",
"364 -97 OFFCURVE",
"364 -172 CURVE SMOOTH",
"364 -176 OFFCURVE",
"364 -180 OFFCURVE",
"364 -184 CURVE SMOOTH",
"360 -263 OFFCURVE",
"338 -301 OFFCURVE",
"317 -301 CURVE SMOOTH"
);
},
{
closed = 1;
nodes = (
"112 78 OFFCURVE",
"102 88 OFFCURVE",
"99 120 CURVE SMOOTH",
"98 128 OFFCURVE",
"98 138 OFFCURVE",
"98 150 CURVE SMOOTH",
"98 241 OFFCURVE",
"120 431 OFFCURVE",
"179 431 CURVE SMOOTH",
"217 431 OFFCURVE",
"228 397 OFFCURVE",
"228 359 CURVE SMOOTH",
"228 338 OFFCURVE",
"224 315 OFFCURVE",
"221 297 CURVE SMOOTH",
"208 227 OFFCURVE",
"190 160 OFFCURVE",
"157 103 CURVE SMOOTH",
"150 90 OFFCURVE",
"136 78 OFFCURVE",
"123 78 CURVE SMOOTH"
);
}
);
width = 331;
}
);
note = q;
unicode = 0071;
},
{
glyphname = r;
lastChange = "2021-05-05 07:33:14 +0000";
layers = (
{
anchors = (
{
name = bottom;
position = "{86, 0}";
},
{
name = top;
position = "{144, 434}";
}
);
layerId = "68CC9319-F234-4FBF-AF6F-F394745E3D3F";
paths = (
{
closed = 1;
nodes = (
"269 -5 OFFCURVE",
"325 42 OFFCURVE",
"325 135 CURVE SMOOTH",
"325 140 LINE SMOOTH",
"325 148 OFFCURVE",
"323 151 OFFCURVE",
"320 151 CURVE SMOOTH",
"317 151 OFFCURVE",
"313 147 OFFCURVE",
"312 142 CURVE SMOOTH",
"304 113 OFFCURVE",
"281 29 OFFCURVE",
"239 29 CURVE SMOOTH",
"204 29 OFFCURVE",
"194 81 OFFCURVE",
"194 140 CURVE SMOOTH",
"194 202 OFFCURVE",
"206 272 OFFCURVE",
"209 289 CURVE SMOOTH",
"218 335 OFFCURVE",
"232 378 OFFCURVE",
"248 412 CURVE",
"231 419 OFFCURVE",
"218 422 OFFCURVE",
"207 422 CURVE SMOOTH",
"173 422 OFFCURVE",
"161 395 OFFCURVE",
"151 384 CURVE SMOOTH",
"148 381 OFFCURVE",
"142 380 OFFCURVE",
"134 380 CURVE SMOOTH",
"120 380 OFFCURVE",
"99 385 OFFCURVE",
"83 397 CURVE",
"83 424 OFFCURVE",
"60 497 OFFCURVE",
"33 497 CURVE SMOOTH",
"31 497 LINE SMOOTH",
"16 497 OFFCURVE",
"9 480 OFFCURVE",
"9 461 CURVE SMOOTH",
"9 435 OFFCURVE",
"24 403 OFFCURVE",
"57 389 CURVE",
"57 378 LINE SMOOTH",
"57 309 OFFCURVE",
"39 179 OFFCURVE",
"7 87 CURVE",
"5 83 OFFCURVE",
"5 79 OFFCURVE",
"5 76 CURVE SMOOTH",
"5 70 OFFCURVE",
"8 67 OFFCURVE",
"12 67 CURVE SMOOTH",
"16 67 OFFCURVE",
"22 71 OFFCURVE",
"25 80 CURVE SMOOTH",
"50 152 OFFCURVE",
"73 278 OFFCURVE",
"81 375 CURVE",
"95 362 OFFCURVE",
"115 351 OFFCURVE",
"152 349 CURVE",
"146 325 OFFCURVE",
"125 232 OFFCURVE",
"125 147 CURVE SMOOTH",
"125 67 OFFCURVE",
"144 -5 OFFCURVE",
"211 -5 CURVE SMOOTH"
);
}
);
width = 287;
}
);
note = r;
unicode = 0072;
},
{
glyphname = s;
lastChange = "2021-05-05 07:33:14 +0000";
layers = (
{
anchors = (
{
name = bottom;
position = "{138, -11}";
},
{
name = top;
position = "{188, 453}";
}
);
layerId = "68CC9319-F234-4FBF-AF6F-F394745E3D3F";
paths = (
{
closed = 1;
nodes = (
"188 -11 OFFCURVE",
"226 24 OFFCURVE",
"245 67 CURVE",
"297 70 OFFCURVE",
"338 89 OFFCURVE",
"353 119 CURVE SMOOTH",
"354 121 OFFCURVE",
"355 124 OFFCURVE",
"355 126 CURVE SMOOTH",
"355 132 OFFCURVE",
"351 136 OFFCURVE",
"347 136 CURVE SMOOTH",
"345 136 OFFCURVE",
"343 135 OFFCURVE",
"342 133 CURVE SMOOTH",
"334 120 OFFCURVE",
"324 109 OFFCURVE",
"305 101 CURVE SMOOTH",
"290 95 OFFCURVE",
"272 92 OFFCURVE",
"253 91 CURVE",
"259 110 OFFCURVE",
"261 130 OFFCURVE",
"261 148 CURVE SMOOTH",
"261 153 LINE SMOOTH",
"261 221 OFFCURVE",
"212 311 OFFCURVE",
"204 378 CURVE SMOOTH",
"203 385 OFFCURVE",
"203 393 OFFCURVE",
"203 400 CURVE SMOOTH",
"203 428 OFFCURVE",
"209 454 OFFCURVE",
"224 455 CURVE SMOOTH",
"229 455 OFFCURVE",
"231 458 OFFCURVE",
"231 462 CURVE SMOOTH",
"231 465 OFFCURVE",
"229 468 OFFCURVE",
"223 469 CURVE SMOOTH",
"220 469 OFFCURVE",
"216 470 OFFCURVE",
"213 470 CURVE SMOOTH",
"194 470 OFFCURVE",
"172 463 OFFCURVE",
"157 453 CURVE SMOOTH",
"112 423 OFFCURVE",
"95 360 OFFCURVE",
"82 312 CURVE SMOOTH",
"70 270 OFFCURVE",
"55 214 OFFCURVE",
"38 165 CURVE",
"35 169 OFFCURVE",
"31 172 OFFCURVE",
"30 172 CURVE SMOOTH",
"29 172 LINE SMOOTH",
"18 172 OFFCURVE",
"13 158 OFFCURVE",
"13 142 CURVE SMOOTH",
"13 131 OFFCURVE",
"15 119 OFFCURVE",
"19 112 CURVE",
"17 101 OFFCURVE",
"17 90 OFFCURVE",
"17 87 CURVE SMOOTH",
"17 13 OFFCURVE",
"63 -11 OFFCURVE",
"123 -11 CURVE SMOOTH"
);
},
{
closed = 1;
nodes = (
"63 22 OFFCURVE",
"40 45 OFFCURVE",
"40 85 CURVE SMOOTH",
"40 88 OFFCURVE",
"41 92 OFFCURVE",
"41 96 CURVE",
"68 83 OFFCURVE",
"114 74 OFFCURVE",
"163 70 CURVE",
"163 69 OFFCURVE",
"162 68 OFFCURVE",
"162 67 CURVE",
"151 38 OFFCURVE",
"124 24 OFFCURVE",
"100 22 CURVE SMOOTH",
"98 22 OFFCURVE",
"97 22 OFFCURVE",
"96 22 CURVE SMOOTH"
);
},
{
closed = 1;
nodes = (
"148 107 OFFCURVE",
"127 115 OFFCURVE",
"110 123 CURVE SMOOTH",
"91 131 OFFCURVE",
"71 140 OFFCURVE",
"56 150 CURVE",
"77 209 OFFCURVE",
"96 271 OFFCURVE",
"112 328 CURVE SMOOTH",
"120 357 OFFCURVE",
"135 410 OFFCURVE",
"145 411 CURVE",
"143 402 OFFCURVE",
"142 392 OFFCURVE",
"142 382 CURVE SMOOTH",
"142 340 OFFCURVE",
"158 288 OFFCURVE",
"168 226 CURVE SMOOTH",
"172 200 OFFCURVE",
"175 174 OFFCURVE",
"175 149 CURVE SMOOTH",
"175 133 OFFCURVE",
"174 117 OFFCURVE",
"171 102 CURVE"
);
}
);
width = 315;
}
);
note = s;
unicode = 0073;
},
{
glyphname = t;
lastChange = "2021-05-05 07:33:14 +0000";
layers = (
{
anchors = (
{
name = bottom;
position = "{152, 0}";
},
{
name = center;
position = "{90, 217}";
},
{
name = top;
position = "{111, 598}";
},
{
name = topright;
position = "{218, 585}";
}
);
layerId = "68CC9319-F234-4FBF-AF6F-F394745E3D3F";
paths = (
{
closed = 1;
nodes = (
"178 -5 OFFCURVE",
"213 82 OFFCURVE",
"217 135 CURVE SMOOTH",
"217 137 OFFCURVE",
"217 138 OFFCURVE",
"217 139 CURVE SMOOTH",
"217 148 OFFCURVE",
"215 151 OFFCURVE",
"212 151 CURVE SMOOTH",
"209 151 OFFCURVE",
"206 147 OFFCURVE",
"204 142 CURVE SMOOTH",
"195 113 OFFCURVE",
"186 86 OFFCURVE",
"176 67 CURVE SMOOTH",
"161 38 OFFCURVE",
"149 29 OFFCURVE",
"138 29 CURVE SMOOTH",
"137 29 LINE SMOOTH",
"104 29 OFFCURVE",
"101 108 OFFCURVE",
"101 161 CURVE SMOOTH",
"101 170 OFFCURVE",
"101 177 OFFCURVE",
"101 184 CURVE SMOOTH",
"102 249 OFFCURVE",
"106 331 OFFCURVE",
"113 405 CURVE",
"193 405 LINE SMOOTH",
"201 405 OFFCURVE",
"205 413 OFFCURVE",
"205 420 CURVE SMOOTH",
"205 426 OFFCURVE",
"202 431 OFFCURVE",
"196 431 CURVE SMOOTH",
"116 431 LINE",
"123 507 OFFCURVE",
"132 571 OFFCURVE",
"139 594 CURVE",
"129 596 OFFCURVE",
"119 598 OFFCURVE",
"111 598 CURVE SMOOTH",
"82 598 OFFCURVE",
"64 585 OFFCURVE",
"58 570 CURVE SMOOTH",
"49 548 OFFCURVE",
"42 493 OFFCURVE",
"37 431 CURVE",
"8 431 LINE SMOOTH",
"1 431 OFFCURVE",
"-4 422 OFFCURVE",
"-4 415 CURVE SMOOTH",
"-4 410 OFFCURVE",
"-2 405 OFFCURVE",
"4 405 CURVE SMOOTH",
"35 405 LINE",
"28 313 OFFCURVE",
"25 215 OFFCURVE",
"24 192 CURVE SMOOTH",
"24 187 OFFCURVE",
"24 183 OFFCURVE",
"24 177 CURVE SMOOTH",
"24 112 OFFCURVE",
"38 -5 OFFCURVE",
"118 -5 CURVE SMOOTH"
);
}
);
width = 180;
}
);
note = t;
unicode = 0074;
},
{
glyphname = u;
lastChange = "2021-05-05 07:33:14 +0000";
layers = (
{
anchors = (
{
name = bottom;
position = "{155, 0}";
},
{
name = ogonek;
position = "{407, 10}";
},
{
name = top;
position = "{207, 434}";
},
{
name = topright;
position = "{257, 419}";
}
);
layerId = "68CC9319-F234-4FBF-AF6F-F394745E3D3F";
paths = (
{
closed = 1;
nodes = (
"126 -4 OFFCURVE",
"155 16 OFFCURVE",
"178 51 CURVE SMOOTH",
"195 78 OFFCURVE",
"207 114 OFFCURVE",
"216 149 CURVE",
"220 83 OFFCURVE",
"241 -4 OFFCURVE",
"310 -4 CURVE SMOOTH",
"370 -4 OFFCURVE",
"405 83 OFFCURVE",
"409 136 CURVE SMOOTH",
"409 138 OFFCURVE",
"409 139 OFFCURVE",
"409 140 CURVE SMOOTH",
"409 149 OFFCURVE",
"407 152 OFFCURVE",
"404 152 CURVE SMOOTH",
"401 152 OFFCURVE",
"398 148 OFFCURVE",
"396 143 CURVE SMOOTH",
"387 114 OFFCURVE",
"379 88 OFFCURVE",
"369 69 CURVE SMOOTH",
"354 40 OFFCURVE",
"341 31 OFFCURVE",
"331 31 CURVE SMOOTH",
"330 31 LINE SMOOTH",
"297 31 OFFCURVE",
"292 110 OFFCURVE",
"292 163 CURVE SMOOTH",
"292 266 OFFCURVE",
"309 386 OFFCURVE",
"325 431 CURVE",
"314 434 OFFCURVE",
"304 435 OFFCURVE",
"295 435 CURVE SMOOTH",
"265 435 OFFCURVE",
"245 421 OFFCURVE",
"241 405 CURVE SMOOTH",
"229 350 OFFCURVE",
"221 266 OFFCURVE",
"209 199 CURVE SMOOTH",
"196 130 OFFCURVE",
"171 52 OFFCURVE",
"133 52 CURVE SMOOTH",
"111 52 OFFCURVE",
"103 93 OFFCURVE",
"103 148 CURVE SMOOTH",
"103 191 OFFCURVE",
"107 241 OFFCURVE",
"113 288 CURVE SMOOTH",
"121 355 OFFCURVE",
"135 416 OFFCURVE",
"139 431 CURVE",
"128 434 OFFCURVE",
"118 435 OFFCURVE",
"109 435 CURVE SMOOTH",
"79 435 OFFCURVE",
"61 421 OFFCURVE",
"55 405 CURVE SMOOTH",
"39 362 OFFCURVE",
"28 255 OFFCURVE",
"28 167 CURVE SMOOTH",
"28 128 OFFCURVE",
"30 92 OFFCURVE",
"35 69 CURVE SMOOTH",
"46 19 OFFCURVE",
"71 -4 OFFCURVE",
"100 -4 CURVE SMOOTH"
);
}
);
width = 371;
}
);
note = u;
unicode = 0075;
},
{
glyphname = v;
lastChange = "2021-05-05 07:33:14 +0000";
layers = (
{
layerId = "68CC9319-F234-4FBF-AF6F-F394745E3D3F";
paths = (
{
closed = 1;
nodes = (
"236 -2 OFFCURVE",
"322 281 OFFCURVE",
"322 411 CURVE SMOOTH",
"322 431 OFFCURVE",
"320 448 OFFCURVE",
"315 459 CURVE SMOOTH",
"308 474 OFFCURVE",
"297 480 OFFCURVE",
"285 480 CURVE SMOOTH",
"265 480 OFFCURVE",
"245 464 OFFCURVE",
"245 448 CURVE SMOOTH",
"245 445 OFFCURVE",
"245 442 OFFCURVE",
"247 439 CURVE SMOOTH",
"262 413 OFFCURVE",
"268 370 OFFCURVE",
"268 325 CURVE SMOOTH",
"268 266 OFFCURVE",
"258 203 OFFCURVE",
"249 166 CURVE SMOOTH",
"235 112 OFFCURVE",
"209 63 OFFCURVE",
"186 63 CURVE SMOOTH",
"148 63 OFFCURVE",
"141 240 OFFCURVE",
"141 283 CURVE SMOOTH",
"141 288 LINE",
"141 309 LINE SMOOTH",
"141 371 OFFCURVE",
"134 420 OFFCURVE",
"100 420 CURVE SMOOTH",
"99 420 LINE SMOOTH",
"83 420 OFFCURVE",
"68 413 OFFCURVE",
"58 402 CURVE",
"58 371 OFFCURVE",
"55 306 OFFCURVE",
"48 261 CURVE SMOOTH",
"40 199 OFFCURVE",
"26 149 OFFCURVE",
"8 87 CURVE SMOOTH",
"7 83 OFFCURVE",
"6 79 OFFCURVE",
"6 76 CURVE SMOOTH",
"6 70 OFFCURVE",
"9 67 OFFCURVE",
"13 67 CURVE SMOOTH",
"17 67 OFFCURVE",
"23 74 OFFCURVE",
"26 83 CURVE SMOOTH",
"45 141 OFFCURVE",
"63 198 OFFCURVE",
"73 258 CURVE",
"79 140 OFFCURVE",
"88 -2 OFFCURVE",
"146 -2 CURVE SMOOTH"
);
}
);
width = 352;
}
);
note = v;
unicode = 0076;
},
{
glyphname = w;
lastChange = "2021-05-05 07:33:14 +0000";
layers = (
{
anchors = (
{
name = bottom;
position = "{204, 0}";
},
{
name = top;
position = "{272, 434}";
}
);
layerId = "68CC9319-F234-4FBF-AF6F-F394745E3D3F";
paths = (
{
closed = 1;
nodes = (
"161 -5 OFFCURVE",
"213 125 OFFCURVE",
"224 175 CURVE",
"228 74 OFFCURVE",
"260 7 OFFCURVE",
"308 -3 CURVE SMOOTH",
"314 -4 OFFCURVE",
"319 -5 OFFCURVE",
"324 -5 CURVE SMOOTH",
"382 -5 OFFCURVE",
"422 60 OFFCURVE",
"438 103 CURVE SMOOTH",
"464 173 OFFCURVE",
"478 271 OFFCURVE",
"478 348 CURVE SMOOTH",
"478 397 OFFCURVE",
"473 438 OFFCURVE",
"461 459 CURVE SMOOTH",
"452 476 OFFCURVE",
"438 482 OFFCURVE",
"426 482 CURVE SMOOTH",
"409 482 OFFCURVE",
"393 470 OFFCURVE",
"393 456 CURVE SMOOTH",
"393 452 OFFCURVE",
"394 448 OFFCURVE",
"397 444 CURVE SMOOTH",
"427 401 OFFCURVE",
"435 320 OFFCURVE",
"435 252 CURVE SMOOTH",
"435 219 OFFCURVE",
"433 190 OFFCURVE",
"431 169 CURVE SMOOTH",
"426 128 OFFCURVE",
"401 39 OFFCURVE",
"352 39 CURVE SMOOTH",
"309 39 OFFCURVE",
"299 161 OFFCURVE",
"297 190 CURVE SMOOTH",
"296 210 OFFCURVE",
"295 230 OFFCURVE",
"295 251 CURVE SMOOTH",
"295 273 OFFCURVE",
"296 295 OFFCURVE",
"297 317 CURVE SMOOTH",
"299 358 OFFCURVE",
"305 398 OFFCURVE",
"315 404 CURVE SMOOTH",
"318 406 OFFCURVE",
"320 408 OFFCURVE",
"320 410 CURVE SMOOTH",
"320 413 OFFCURVE",
"317 415 OFFCURVE",
"313 415 CURVE SMOOTH",
"287 415 OFFCURVE",
"247 408 OFFCURVE",
"240 396 CURVE SMOOTH",
"231 382 OFFCURVE",
"226 364 OFFCURVE",
"223 344 CURVE SMOOTH",
"213 272 OFFCURVE",
"208 198 OFFCURVE",
"179 131 CURVE SMOOTH",
"164 96 OFFCURVE",
"147 78 OFFCURVE",
"133 78 CURVE SMOOTH",
"118 78 OFFCURVE",
"106 98 OFFCURVE",
"101 142 CURVE SMOOTH",
"99 158 OFFCURVE",
"98 177 OFFCURVE",
"98 196 CURVE SMOOTH",
"98 285 OFFCURVE",
"117 394 OFFCURVE",
"146 402 CURVE",
"146 411 LINE",
"142 411 OFFCURVE",
"138 412 OFFCURVE",
"134 412 CURVE SMOOTH",
"46 412 OFFCURVE",
"30 307 OFFCURVE",
"26 237 CURVE SMOOTH",
"25 227 OFFCURVE",
"25 211 OFFCURVE",
"25 193 CURVE SMOOTH",
"25 168 OFFCURVE",
"26 137 OFFCURVE",
"29 108 CURVE SMOOTH",
"33 67 OFFCURVE",
"44 -5 OFFCURVE",
"87 -5 CURVE SMOOTH"
);
}
);
width = 491;
}
);
note = w;
unicode = 0077;
},
{
glyphname = x;
lastChange = "2021-05-05 07:33:19 +0000";
layers = (
{
layerId = "68CC9319-F234-4FBF-AF6F-F394745E3D3F";
paths = (
{
closed = 1;
nodes = (
"18 -92 OFFCURVE",
"22 -90 OFFCURVE",
"24 -84 CURVE SMOOTH",
"56 -1 OFFCURVE",
"91 66 OFFCURVE",
"124 122 CURVE",
"143 57 OFFCURVE",
"171 -16 OFFCURVE",
"234 -16 CURVE SMOOTH",
"286 -16 OFFCURVE",
"321 27 OFFCURVE",
"340 80 CURVE SMOOTH",
"346 97 OFFCURVE",
"355 131 OFFCURVE",
"360 155 CURVE SMOOTH",
"362 166 OFFCURVE",
"358 173 OFFCURVE",
"353 173 CURVE SMOOTH",
"349 173 OFFCURVE",
"344 169 OFFCURVE",
"343 159 CURVE",
"331 115 OFFCURVE",
"315 41 OFFCURVE",
"277 22 CURVE SMOOTH",
"273 20 OFFCURVE",
"268 19 OFFCURVE",
"264 19 CURVE SMOOTH",
"220 19 OFFCURVE",
"187 129 OFFCURVE",
"167 190 CURVE",
"203 242 OFFCURVE",
"235 280 OFFCURVE",
"256 308 CURVE SMOOTH",
"284 345 OFFCURVE",
"302 381 OFFCURVE",
"302 387 CURVE SMOOTH",
"302 389 LINE SMOOTH",
"302 409 OFFCURVE",
"289 417 OFFCURVE",
"278 417 CURVE SMOOTH",
"275 417 OFFCURVE",
"272 417 OFFCURVE",
"270 416 CURVE",
"265 415 OFFCURVE",
"241 379 OFFCURVE",
"214 334 CURVE SMOOTH",
"193 300 OFFCURVE",
"173 267 OFFCURVE",
"154 234 CURVE",
"129 325 OFFCURVE",
"121 407 OFFCURVE",
"119 434 CURVE SMOOTH",
"118 444 OFFCURVE",
"113 451 OFFCURVE",
"106 451 CURVE SMOOTH",
"104 451 OFFCURVE",
"102 451 OFFCURVE",
"100 450 CURVE SMOOTH",
"77 439 OFFCURVE",
"63 428 OFFCURVE",
"54 406 CURVE SMOOTH",
"51 398 OFFCURVE",
"49 392 OFFCURVE",
"48 384 CURVE SMOOTH",
"48 380 LINE SMOOTH",
"48 374 OFFCURVE",
"49 368 OFFCURVE",
"49 362 CURVE SMOOTH",
"49 269 OFFCURVE",
"31 160 OFFCURVE",
"8 89 CURVE SMOOTH",
"7 87 OFFCURVE",
"7 82 OFFCURVE",
"7 80 CURVE SMOOTH",
"7 72 OFFCURVE",
"10 67 OFFCURVE",
"15 67 CURVE SMOOTH",
"18 67 OFFCURVE",
"21 70 OFFCURVE",
"23 76 CURVE SMOOTH",
"43 128 OFFCURVE",
"60 209 OFFCURVE",
"70 282 CURVE",
"80 246 OFFCURVE",
"94 200 OFFCURVE",
"111 155 CURVE",
"73 83 OFFCURVE",
"38 10 OFFCURVE",
"7 -69 CURVE SMOOTH",
"6 -72 OFFCURVE",
"5 -75 OFFCURVE",
"5 -78 CURVE SMOOTH",
"5 -86 OFFCURVE",
"10 -92 OFFCURVE",
"15 -92 CURVE SMOOTH"
);
}
);
width = 315;
}
);
note = x;
unicode = 0078;
},
{
glyphname = y;
lastChange = "2021-05-05 07:33:14 +0000";
layers = (
{
anchors = (
{
name = bottom;
position = "{340, 0}";
},
{
name = top;
position = "{178, 434}";
}
);
layerId = "68CC9319-F234-4FBF-AF6F-F394745E3D3F";
paths = (
{
closed = 1;
nodes = (
"179 -368 OFFCURVE",
"275 -237 OFFCURVE",
"275 42 CURVE SMOOTH",
"275 54 LINE SMOOTH",
"275 76 OFFCURVE",
"338 116 OFFCURVE",
"362 118 CURVE SMOOTH",
"367 118 OFFCURVE",
"370 124 OFFCURVE",
"370 128 CURVE SMOOTH",
"370 132 OFFCURVE",
"369 135 OFFCURVE",
"365 136 CURVE SMOOTH",
"364 136 OFFCURVE",
"362 137 OFFCURVE",
"360 137 CURVE SMOOTH",
"345 137 OFFCURVE",
"315 121 OFFCURVE",
"277 99 CURVE",
"277 110 LINE SMOOTH",
"277 139 OFFCURVE",
"275 196 OFFCURVE",
"275 254 CURVE SMOOTH",
"275 329 OFFCURVE",
"279 406 OFFCURVE",
"300 424 CURVE SMOOTH",
"302 426 OFFCURVE",
"304 428 OFFCURVE",
"304 430 CURVE SMOOTH",
"304 433 OFFCURVE",
"300 436 OFFCURVE",
"289 436 CURVE SMOOTH",
"277 436 LINE SMOOTH",
"258 436 OFFCURVE",
"228 433 OFFCURVE",
"211 403 CURVE SMOOTH",
"196 377 OFFCURVE",
"198 343 OFFCURVE",
"197 314 CURVE SMOOTH",
"193 244 OFFCURVE",
"172 148 OFFCURVE",
"133 92 CURVE SMOOTH",
"127 84 OFFCURVE",
"122 80 OFFCURVE",
"118 80 CURVE SMOOTH",
"107 80 OFFCURVE",
"101 102 OFFCURVE",
"97 125 CURVE SMOOTH",
"94 144 OFFCURVE",
"93 169 OFFCURVE",
"93 196 CURVE SMOOTH",
"93 276 OFFCURVE",
"105 377 OFFCURVE",
"125 425 CURVE",
"126 426 OFFCURVE",
"126 427 OFFCURVE",
"126 428 CURVE SMOOTH",
"126 432 OFFCURVE",
"122 432 OFFCURVE",
"118 433 CURVE SMOOTH",
"112 434 OFFCURVE",
"106 434 OFFCURVE",
"100 434 CURVE SMOOTH",
"69 434 OFFCURVE",
"52 423 OFFCURVE",
"41 396 CURVE SMOOTH",
"24 353 OFFCURVE",
"23 279 OFFCURVE",
"21 237 CURVE SMOOTH",
"21 229 OFFCURVE",
"20 217 OFFCURVE",
"20 203 CURVE SMOOTH",
"20 140 OFFCURVE",
"27 30 OFFCURVE",
"53 7 CURVE SMOOTH",
"61 0 OFFCURVE",
"68 -3 OFFCURVE",
"76 -3 CURVE SMOOTH",
"107 -3 OFFCURVE",
"137 44 OFFCURVE",
"147 67 CURVE SMOOTH",
"174 127 OFFCURVE",
"193 183 OFFCURVE",
"204 242 CURVE",
"209 171 OFFCURVE",
"212 86 OFFCURVE",
"212 60 CURVE",
"154 24 OFFCURVE",
"51 -49 OFFCURVE",
"4 -138 CURVE SMOOTH",
"-19 -182 OFFCURVE",
"-35 -231 OFFCURVE",
"-35 -272 CURVE SMOOTH",
"-35 -327 OFFCURVE",
"-7 -368 OFFCURVE",
"67 -368 CURVE SMOOTH"
);
},
{
closed = 1;
nodes = (
"26 -347 OFFCURVE",
"10 -317 OFFCURVE",
"10 -273 CURVE SMOOTH",
"10 -243 OFFCURVE",
"18 -205 OFFCURVE",
"36 -166 CURVE SMOOTH",
"84 -61 OFFCURVE",
"181 16 OFFCURVE",
"213 35 CURVE",
"210 -34 OFFCURVE",
"197 -347 OFFCURVE",
"59 -347 CURVE SMOOTH",
"56 -347 LINE SMOOTH"
);
}
);
width = 331;
}
);
note = y;
unicode = 0079;
},
{
glyphname = z;
lastChange = "2021-05-05 07:33:14 +0000";
layers = (
{
anchors = (
{
name = bottom;
position = "{165, -356}";
},
{
name = center;
position = "{179, 217}";
},
{
name = top;
position = "{222, 434}";
}
);
layerId = "68CC9319-F234-4FBF-AF6F-F394745E3D3F";
paths = (
{
closed = 1;
nodes = (
"240 -367 OFFCURVE",
"344 -129 OFFCURVE",
"344 34 CURVE SMOOTH",
"344 57 OFFCURVE",
"342 80 OFFCURVE",
"337 99 CURVE",
"361 110 OFFCURVE",
"384 117 OFFCURVE",
"406 119 CURVE SMOOTH",
"410 119 OFFCURVE",
"412 123 OFFCURVE",
"412 127 CURVE SMOOTH",
"412 131 OFFCURVE",
"410 135 OFFCURVE",
"405 135 CURVE SMOOTH",
"395 135 LINE SMOOTH",
"375 135 OFFCURVE",
"353 131 OFFCURVE",
"331 122 CURVE",
"314 168 OFFCURVE",
"277 187 OFFCURVE",
"239 187 CURVE SMOOTH",
"201 187 OFFCURVE",
"161 168 OFFCURVE",
"136 135 CURVE",
"144 157 OFFCURVE",
"155 181 OFFCURVE",
"160 191 CURVE SMOOTH",
"203 279 OFFCURVE",
"259 359 OFFCURVE",
"274 381 CURVE",
"313 395 OFFCURVE",
"342 425 OFFCURVE",
"346 447 CURVE",
"346 452 LINE SMOOTH",
"346 466 OFFCURVE",
"336 480 OFFCURVE",
"318 480 CURVE SMOOTH",
"285 480 OFFCURVE",
"268 441 OFFCURVE",
"266 413 CURVE",
"262 411 OFFCURVE",
"258 410 OFFCURVE",
"254 410 CURVE SMOOTH",
"225 410 OFFCURVE",
"179 448 OFFCURVE",
"143 457 CURVE SMOOTH",
"135 459 OFFCURVE",
"128 460 OFFCURVE",
"122 460 CURVE SMOOTH",
"89 460 OFFCURVE",
"73 435 OFFCURVE",
"64 398 CURVE SMOOTH",
"48 334 OFFCURVE",
"52 266 OFFCURVE",
"38 200 CURVE SMOOTH",
"29 160 OFFCURVE",
"19 120 OFFCURVE",
"7 86 CURVE SMOOTH",
"5 82 OFFCURVE",
"5 78 OFFCURVE",
"5 75 CURVE SMOOTH",
"5 69 OFFCURVE",
"8 66 OFFCURVE",
"12 66 CURVE SMOOTH",
"16 66 OFFCURVE",
"22 70 OFFCURVE",
"25 79 CURVE SMOOTH",
"36 110 OFFCURVE",
"47 153 OFFCURVE",
"57 199 CURVE SMOOTH",
"66 242 OFFCURVE",
"72 285 OFFCURVE",
"81 327 CURVE SMOOTH",
"87 356 OFFCURVE",
"97 374 OFFCURVE",
"127 374 CURVE SMOOTH",
"135 374 OFFCURVE",
"145 373 OFFCURVE",
"156 370 CURVE SMOOTH",
"165 368 OFFCURVE",
"179 365 OFFCURVE",
"195 365 CURVE SMOOTH",
"217 365 OFFCURVE",
"241 371 OFFCURVE",
"255 393 CURVE SMOOTH",
"227 347 OFFCURVE",
"75 121 OFFCURVE",
"75 53 CURVE SMOOTH",
"75 50 OFFCURVE",
"76 48 OFFCURVE",
"76 46 CURVE SMOOTH",
"78 34 OFFCURVE",
"85 28 OFFCURVE",
"93 28 CURVE SMOOTH",
"118 28 OFFCURVE",
"136 58 OFFCURVE",
"136 94 CURVE SMOOTH",
"136 99 LINE",
"150 118 OFFCURVE",
"175 132 OFFCURVE",
"200 132 CURVE SMOOTH",
"224 132 OFFCURVE",
"248 119 OFFCURVE",
"260 83 CURVE",
"168 25 OFFCURVE",
"86 -69 OFFCURVE",
"46 -138 CURVE SMOOTH",
"27 -170 OFFCURVE",
"10 -222 OFFCURVE",
"10 -268 CURVE SMOOTH",
"10 -321 OFFCURVE",
"33 -367 OFFCURVE",
"105 -367 CURVE SMOOTH"
);
},
{
closed = 1;
nodes = (
"73 -345 OFFCURVE",
"56 -317 OFFCURVE",
"56 -273 CURVE SMOOTH",
"56 -245 OFFCURVE",
"63 -210 OFFCURVE",
"78 -173 CURVE SMOOTH",
"110 -95 OFFCURVE",
"176 -11 OFFCURVE",
"267 55 CURVE",
"270 37 OFFCURVE",
"272 17 OFFCURVE",
"272 -4 CURVE SMOOTH",
"272 -148 OFFCURVE",
"203 -345 OFFCURVE",
"101 -345 CURVE SMOOTH"
);
}
);
width = 358;
}
);
note = z;
unicode = 007A;
},
{
glyphname = braceleft;
lastChange = "2021-05-05 07:33:14 +0000";
layers = (
{
layerId = "68CC9319-F234-4FBF-AF6F-F394745E3D3F";
paths = (
{
closed = 1;
nodes = (
"264 -105 OFFCURVE",
"299 -103 OFFCURVE",
"339 -98 CURVE SMOOTH",
"350 -97 OFFCURVE",
"353 -92 OFFCURVE",
"353 -86 CURVE SMOOTH",
"353 -79 OFFCURVE",
"347 -71 OFFCURVE",
"341 -71 CURVE SMOOTH",
"340 -71 LINE SMOOTH",
"303 -79 OFFCURVE",
"273 -82 OFFCURVE",
"248 -82 CURVE SMOOTH",
"168 -82 OFFCURVE",
"146 -46 OFFCURVE",
"146 2 CURVE SMOOTH",
"146 65 OFFCURVE",
"184 148 OFFCURVE",
"184 199 CURVE SMOOTH",
"184 203 OFFCURVE",
"184 207 OFFCURVE",
"183 211 CURVE SMOOTH",
"179 238 OFFCURVE",
"141 274 OFFCURVE",
"102 288 CURVE",
"140 301 OFFCURVE",
"174 337 OFFCURVE",
"183 362 CURVE SMOOTH",
"185 369 OFFCURVE",
"186 376 OFFCURVE",
"186 384 CURVE SMOOTH",
"186 431 OFFCURVE",
"148 496 OFFCURVE",
"148 549 CURVE SMOOTH",
"148 603 OFFCURVE",
"187 644 OFFCURVE",
"340 644 CURVE SMOOTH",
"346 644 OFFCURVE",
"354 653 OFFCURVE",
"354 661 CURVE SMOOTH",
"354 666 OFFCURVE",
"350 671 OFFCURVE",
"339 671 CURVE SMOOTH",
"117 671 OFFCURVE",
"57 621 OFFCURVE",
"57 561 CURVE SMOOTH",
"57 492 OFFCURVE",
"137 410 OFFCURVE",
"137 380 CURVE SMOOTH",
"136 321 OFFCURVE",
"35 326 OFFCURVE",
"35 287 CURVE SMOOTH",
"35 247 OFFCURVE",
"136 252 OFFCURVE",
"137 193 CURVE SMOOTH",
"137 163 OFFCURVE",
"61 67 OFFCURVE",
"61 -8 CURVE SMOOTH",
"61 -62 OFFCURVE",
"100 -105 OFFCURVE",
"235 -105 CURVE SMOOTH"
);
}
);
width = 356;
}
);
note = braceleft;
unicode = 007B;
},
{
glyphname = bar;
lastChange = "2021-05-05 07:33:14 +0000";
layers = (
{
layerId = "68CC9319-F234-4FBF-AF6F-F394745E3D3F";
paths = (
{
closed = 1;
nodes = (
"167 -67 OFFCURVE",
"184 -59 OFFCURVE",
"185 -40 CURVE SMOOTH",
"185 -28 OFFCURVE",
"186 -9 OFFCURVE",
"186 13 CURVE SMOOTH",
"186 100 OFFCURVE",
"183 253 OFFCURVE",
"183 407 CURVE SMOOTH",
"183 504 OFFCURVE",
"186 601 OFFCURVE",
"187 683 CURVE SMOOTH",
"187 687 OFFCURVE",
"182 689 OFFCURVE",
"175 689 CURVE SMOOTH",
"152 689 OFFCURVE",
"107 673 OFFCURVE",
"107 662 CURVE SMOOTH",
"107 661 LINE SMOOTH",
"118 608 OFFCURVE",
"123 468 OFFCURVE",
"123 325 CURVE SMOOTH",
"123 179 OFFCURVE",
"118 30 OFFCURVE",
"107 -35 CURVE",
"107 -39 LINE SMOOTH",
"107 -56 OFFCURVE",
"128 -67 OFFCURVE",
"149 -67 CURVE SMOOTH"
);
}
);
width = 336;
}
);
note = bar;
unicode = 007C;
},
{
glyphname = braceright;
lastChange = "2021-05-05 07:33:14 +0000";
layers = (
{
layerId = "68CC9319-F234-4FBF-AF6F-F394745E3D3F";
paths = (
{
closed = 1;
nodes = (
"281 -105 OFFCURVE",
"320 -62 OFFCURVE",
"320 -8 CURVE SMOOTH",
"320 67 OFFCURVE",
"244 163 OFFCURVE",
"244 193 CURVE SMOOTH",
"245 252 OFFCURVE",
"347 247 OFFCURVE",
"347 287 CURVE SMOOTH",
"347 326 OFFCURVE",
"245 321 OFFCURVE",
"244 380 CURVE SMOOTH",
"244 410 OFFCURVE",
"324 492 OFFCURVE",
"324 561 CURVE SMOOTH",
"324 621 OFFCURVE",
"265 671 OFFCURVE",
"43 671 CURVE SMOOTH",
"32 671 OFFCURVE",
"28 666 OFFCURVE",
"28 661 CURVE SMOOTH",
"28 653 OFFCURVE",
"36 644 OFFCURVE",
"41 644 CURVE SMOOTH",
"195 644 OFFCURVE",
"233 602 OFFCURVE",
"233 549 CURVE SMOOTH",
"233 496 OFFCURVE",
"196 431 OFFCURVE",
"196 384 CURVE SMOOTH",
"196 376 OFFCURVE",
"197 369 OFFCURVE",
"199 362 CURVE SMOOTH",
"208 337 OFFCURVE",
"241 301 OFFCURVE",
"280 288 CURVE",
"240 274 OFFCURVE",
"203 238 OFFCURVE",
"199 211 CURVE SMOOTH",
"198 207 OFFCURVE",
"198 203 OFFCURVE",
"198 199 CURVE SMOOTH",
"198 148 OFFCURVE",
"236 65 OFFCURVE",
"236 2 CURVE SMOOTH",
"236 -46 OFFCURVE",
"213 -82 OFFCURVE",
"133 -82 CURVE SMOOTH",
"108 -82 OFFCURVE",
"78 -79 OFFCURVE",
"41 -71 CURVE SMOOTH",
"40 -71 LINE SMOOTH",
"35 -71 OFFCURVE",
"28 -79 OFFCURVE",
"28 -86 CURVE SMOOTH",
"28 -92 OFFCURVE",
"32 -97 OFFCURVE",
"43 -98 CURVE SMOOTH",
"83 -103 OFFCURVE",
"117 -105 OFFCURVE",
"147 -105 CURVE SMOOTH"
);
}
);
width = 356;
}
);
note = braceright;
unicode = 007D;
},
{
glyphname = asciitilde;
lastChange = "2021-05-05 07:33:14 +0000";
layers = (
{
layerId = "68CC9319-F234-4FBF-AF6F-F394745E3D3F";
paths = (
{
closed = 1;
nodes = (
"61 527 LINE",
"78 538 OFFCURVE",
"66 573 OFFCURVE",
"106 583 CURVE SMOOTH",
"112 584 OFFCURVE",
"118 585 OFFCURVE",
"124 585 CURVE SMOOTH",
"175 585 OFFCURVE",
"225 536 OFFCURVE",
"269 536 CURVE SMOOTH",
"277 536 OFFCURVE",
"286 538 OFFCURVE",
"294 542 CURVE",
"293 542 LINE",
"330 562 OFFCURVE",
"359 621 OFFCURVE",
"359 643 CURVE SMOOTH",
"359 646 LINE",
"358 648 OFFCURVE",
"357 648 OFFCURVE",
"356 648 CURVE SMOOTH",
"348 648 OFFCURVE",
"337 598 OFFCURVE",
"313 592 CURVE",
"304 588 OFFCURVE",
"295 586 OFFCURVE",
"285 586 CURVE SMOOTH",
"236 586 OFFCURVE",
"180 636 OFFCURVE",
"136 636 CURVE SMOOTH",
"128 636 OFFCURVE",
"120 634 OFFCURVE",
"113 630 CURVE SMOOTH",
"79 610 OFFCURVE",
"55 556 OFFCURVE",
"55 535 CURVE SMOOTH",
"55 530 OFFCURVE",
"57 527 OFFCURVE",
"60 527 CURVE SMOOTH"
);
}
);
width = 408;
}
);
note = asciitilde;
unicode = 007E;
},
{
glyphname = Euro;
lastChange = "2021-05-05 07:33:14 +0000";
layers = (
{
layerId = "68CC9319-F234-4FBF-AF6F-F394745E3D3F";
paths = (
{
closed = 1;
nodes = (
"448 -10 OFFCURVE",
"545 41 OFFCURVE",
"599 131 CURVE SMOOTH",
"608 146 OFFCURVE",
"615 162 OFFCURVE",
"620 180 CURVE SMOOTH",
"621 185 OFFCURVE",
"623 190 OFFCURVE",
"623 196 CURVE SMOOTH",
"623 212 OFFCURVE",
"616 231 OFFCURVE",
"609 231 CURVE SMOOTH",
"604 231 OFFCURVE",
"599 225 OFFCURVE",
"594 211 CURVE SMOOTH",
"588 192 OFFCURVE",
"563 150 OFFCURVE",
"550 134 CURVE SMOOTH",
"492 60 OFFCURVE",
"423 22 OFFCURVE",
"362 22 CURVE SMOOTH",
"282 22 OFFCURVE",
"214 84 OFFCURVE",
"195 201 CURVE SMOOTH",
"191 227 OFFCURVE",
"188 253 OFFCURVE",
"188 280 CURVE",
"388 280 LINE SMOOTH",
"398 280 OFFCURVE",
"404 290 OFFCURVE",
"407 295 CURVE SMOOTH",
"408 297 OFFCURVE",
"408 300 OFFCURVE",
"408 303 CURVE SMOOTH",
"408 309 OFFCURVE",
"405 316 OFFCURVE",
"397 316 CURVE SMOOTH",
"191 316 LINE",
"193 341 OFFCURVE",
"197 364 OFFCURVE",
"203 388 CURVE",
"418 388 LINE SMOOTH",
"428 388 OFFCURVE",
"434 398 OFFCURVE",
"437 403 CURVE",
"438 406 OFFCURVE",
"438 408 OFFCURVE",
"438 412 CURVE SMOOTH",
"438 418 OFFCURVE",
"435 424 OFFCURVE",
"427 424 CURVE SMOOTH",
"214 424 LINE",
"263 564 OFFCURVE",
"369 664 OFFCURVE",
"454 664 CURVE SMOOTH",
"504 664 OFFCURVE",
"519 636 OFFCURVE",
"519 599 CURVE SMOOTH",
"519 592 OFFCURVE",
"520 583 OFFCURVE",
"518 575 CURVE",
"518 572 OFFCURVE",
"516 568 OFFCURVE",
"516 565 CURVE SMOOTH",
"516 543 OFFCURVE",
"528 533 OFFCURVE",
"540 533 CURVE SMOOTH",
"556 533 OFFCURVE",
"578 553 OFFCURVE",
"578 592 CURVE SMOOTH",
"578 675 OFFCURVE",
"503 699 OFFCURVE",
"437 699 CURVE SMOOTH",
"433 699 LINE SMOOTH",
"277 699 OFFCURVE",
"161 574 OFFCURVE",
"118 424 CURVE",
"41 424 LINE SMOOTH",
"31 424 OFFCURVE",
"25 414 OFFCURVE",
"22 409 CURVE SMOOTH",
"21 407 OFFCURVE",
"21 404 OFFCURVE",
"21 402 CURVE SMOOTH",
"21 394 OFFCURVE",
"24 388 OFFCURVE",
"34 388 CURVE SMOOTH",
"110 388 LINE",
"105 364 OFFCURVE",
"102 339 OFFCURVE",
"101 316 CURVE",
"42 316 LINE SMOOTH",
"31 316 OFFCURVE",
"25 306 OFFCURVE",
"22 300 CURVE SMOOTH",
"21 297 OFFCURVE",
"21 295 OFFCURVE",
"21 292 CURVE SMOOTH",
"21 286 OFFCURVE",
"24 280 OFFCURVE",
"34 280 CURVE SMOOTH",
"100 280 LINE",
"101 250 OFFCURVE",
"105 221 OFFCURVE",
"112 193 CURVE SMOOTH",
"146 52 OFFCURVE",
"248 -10 OFFCURVE",
"353 -10 CURVE SMOOTH"
);
}
);
width = 624;
}
);
note = Euro;
unicode = 20AC;
},
{
glyphname = quotesinglbase;
lastChange = "2021-05-05 07:33:14 +0000";
layers = (
{
layerId = "68CC9319-F234-4FBF-AF6F-F394745E3D3F";
paths = (
{
closed = 1;
nodes = (
"109 -115 OFFCURVE",
"113 -113 OFFCURVE",
"118 -109 CURVE SMOOTH",
"154 -76 OFFCURVE",
"177 -13 OFFCURVE",
"177 41 CURVE SMOOTH",
"177 71 OFFCURVE",
"165 96 OFFCURVE",
"124 96 CURVE SMOOTH",
"98 96 OFFCURVE",
"76 75 OFFCURVE",
"76 48 CURVE SMOOTH",
"76 21 OFFCURVE",
"98 0 OFFCURVE",
"124 0 CURVE SMOOTH",
"130 0 OFFCURVE",
"136 1 OFFCURVE",
"142 3 CURVE",
"142 0 OFFCURVE",
"143 -3 OFFCURVE",
"143 -7 CURVE SMOOTH",
"143 -27 OFFCURVE",
"135 -61 OFFCURVE",
"104 -100 CURVE SMOOTH",
"102 -103 OFFCURVE",
"101 -106 OFFCURVE",
"101 -108 CURVE SMOOTH",
"101 -112 OFFCURVE",
"103 -115 OFFCURVE",
"107 -115 CURVE SMOOTH"
);
}
);
width = 199;
}
);
note = quotesinglbase;
unicode = 201A;
},
{
glyphname = florin;
lastChange = "2021-05-05 07:33:14 +0000";
layers = (
{
layerId = "68CC9319-F234-4FBF-AF6F-F394745E3D3F";
paths = (
{
closed = 1;
nodes = (
"-37 -284 LINE",
"-28 -284 LINE SMOOTH",
"142 -284 OFFCURVE",
"163 -125 OFFCURVE",
"163 26 CURVE SMOOTH",
"163 407 LINE",
"226 407 LINE SMOOTH",
"234 407 OFFCURVE",
"238 415 OFFCURVE",
"238 422 CURVE SMOOTH",
"238 428 OFFCURVE",
"236 433 OFFCURVE",
"229 433 CURVE SMOOTH",
"163 433 LINE",
"163 445 LINE SMOOTH",
"163 532 OFFCURVE",
"165 645 OFFCURVE",
"207 701 CURVE SMOOTH",
"228 729 OFFCURVE",
"248 743 OFFCURVE",
"279 743 CURVE SMOOTH",
"306 743 OFFCURVE",
"336 731 OFFCURVE",
"359 705 CURVE SMOOTH",
"361 703 OFFCURVE",
"363 702 OFFCURVE",
"364 702 CURVE SMOOTH",
"367 702 OFFCURVE",
"368 707 OFFCURVE",
"368 712 CURVE SMOOTH",
"368 717 LINE",
"362 758 OFFCURVE",
"311 763 OFFCURVE",
"278 763 CURVE SMOOTH",
"146 763 OFFCURVE",
"96 634 OFFCURVE",
"96 519 CURVE SMOOTH",
"96 433 LINE",
"45 433 LINE SMOOTH",
"38 433 OFFCURVE",
"33 425 OFFCURVE",
"33 417 CURVE SMOOTH",
"33 412 OFFCURVE",
"36 407 OFFCURVE",
"41 407 CURVE SMOOTH",
"96 407 LINE",
"96 32 LINE SMOOTH",
"96 -69 OFFCURVE",
"91 -266 OFFCURVE",
"-49 -266 CURVE SMOOTH",
"-54 -266 LINE",
"-56 -266 LINE SMOOTH",
"-75 -266 OFFCURVE",
"-92 -258 OFFCURVE",
"-106 -241 CURVE",
"-107 -239 OFFCURVE",
"-108 -238 OFFCURVE",
"-110 -238 CURVE SMOOTH",
"-112 -238 OFFCURVE",
"-115 -241 OFFCURVE",
"-115 -244 CURVE SMOOTH",
"-115 -245 OFFCURVE",
"-114 -246 OFFCURVE",
"-114 -247 CURVE SMOOTH",
"-113 -251 OFFCURVE",
"-110 -256 OFFCURVE",
"-107 -260 CURVE SMOOTH",
"-92 -276 OFFCURVE",
"-68 -284 OFFCURVE",
"-41 -284 CURVE SMOOTH"
);
}
);
width = 280;
}
);
note = florin;
unicode = 0192;
},
{
glyphname = quotedblbase;
lastChange = "2021-05-05 07:33:14 +0000";
layers = (
{
layerId = "68CC9319-F234-4FBF-AF6F-F394745E3D3F";
paths = (
{
closed = 1;
nodes = (
"246 -115 OFFCURVE",
"251 -113 OFFCURVE",
"256 -109 CURVE SMOOTH",
"283 -88 OFFCURVE",
"316 -18 OFFCURVE",
"316 35 CURVE SMOOTH",
"316 69 OFFCURVE",
"302 96 OFFCURVE",
"262 96 CURVE SMOOTH",
"235 96 OFFCURVE",
"214 75 OFFCURVE",
"214 48 CURVE SMOOTH",
"214 21 OFFCURVE",
"235 0 OFFCURVE",
"262 0 CURVE SMOOTH",
"268 0 OFFCURVE",
"273 1 OFFCURVE",
"279 3 CURVE",
"279 0 OFFCURVE",
"280 -3 OFFCURVE",
"280 -7 CURVE SMOOTH",
"280 -27 OFFCURVE",
"272 -61 OFFCURVE",
"241 -100 CURVE SMOOTH",
"239 -103 OFFCURVE",
"238 -106 OFFCURVE",
"238 -109 CURVE SMOOTH",
"238 -112 OFFCURVE",
"240 -115 OFFCURVE",
"243 -115 CURVE SMOOTH"
);
},
{
closed = 1;
nodes = (
"109 -115 OFFCURVE",
"113 -113 OFFCURVE",
"118 -109 CURVE SMOOTH",
"154 -76 OFFCURVE",
"177 -13 OFFCURVE",
"177 41 CURVE SMOOTH",
"177 71 OFFCURVE",
"165 96 OFFCURVE",
"124 96 CURVE SMOOTH",
"98 96 OFFCURVE",
"76 75 OFFCURVE",
"76 48 CURVE SMOOTH",
"76 21 OFFCURVE",
"98 0 OFFCURVE",
"124 0 CURVE SMOOTH",
"130 0 OFFCURVE",
"136 1 OFFCURVE",
"142 3 CURVE",
"142 0 OFFCURVE",
"143 -3 OFFCURVE",
"143 -7 CURVE SMOOTH",
"143 -27 OFFCURVE",
"135 -61 OFFCURVE",
"104 -100 CURVE SMOOTH",
"102 -103 OFFCURVE",
"101 -106 OFFCURVE",
"101 -108 CURVE SMOOTH",
"101 -112 OFFCURVE",
"103 -115 OFFCURVE",
"107 -115 CURVE SMOOTH"
);
}
);
width = 366;
}
);
note = quotedblbase;
unicode = 201E;
},
{
glyphname = ellipsis;
lastChange = "2021-05-05 07:33:14 +0000";
layers = (
{
layerId = "68CC9319-F234-4FBF-AF6F-F394745E3D3F";
paths = (
{
closed = 1;
nodes = (
"475 -5 OFFCURVE",
"497 16 OFFCURVE",
"497 43 CURVE SMOOTH",
"497 70 OFFCURVE",
"475 91 OFFCURVE",
"449 91 CURVE SMOOTH",
"422 91 OFFCURVE",
"401 70 OFFCURVE",
"401 43 CURVE SMOOTH",
"401 16 OFFCURVE",
"422 -5 OFFCURVE",
"449 -5 CURVE SMOOTH"
);
},
{
closed = 1;
nodes = (
"153 -5 OFFCURVE",
"174 16 OFFCURVE",
"174 43 CURVE SMOOTH",
"174 70 OFFCURVE",
"153 91 OFFCURVE",
"126 91 CURVE SMOOTH",
"99 91 OFFCURVE",
"78 70 OFFCURVE",
"78 43 CURVE SMOOTH",
"78 16 OFFCURVE",
"99 -5 OFFCURVE",
"126 -5 CURVE SMOOTH"
);
},
{
closed = 1;
nodes = (
"313 -5 OFFCURVE",
"335 16 OFFCURVE",
"335 43 CURVE SMOOTH",
"335 70 OFFCURVE",
"313 91 OFFCURVE",
"287 91 CURVE SMOOTH",
"260 91 OFFCURVE",
"239 70 OFFCURVE",
"239 43 CURVE SMOOTH",
"239 16 OFFCURVE",
"260 -5 OFFCURVE",
"287 -5 CURVE SMOOTH"
);
}
);
width = 523;
}
);
note = ellipsis;
unicode = 2026;
},
{
glyphname = dagger;
lastChange = "2021-05-05 07:33:14 +0000";
layers = (
{
layerId = "68CC9319-F234-4FBF-AF6F-F394745E3D3F";
paths = (
{
closed = 1;
nodes = (
"247 -67 OFFCURVE",
"251 -65 OFFCURVE",
"251 -59 CURVE SMOOTH",
"251 -56 LINE",
"246 -32 OFFCURVE",
"244 1 OFFCURVE",
"243 20 CURVE SMOOTH",
"241 53 OFFCURVE",
"241 87 OFFCURVE",
"241 122 CURVE SMOOTH",
"241 224 OFFCURVE",
"247 331 OFFCURVE",
"255 431 CURVE",
"294 436 OFFCURVE",
"401 434 OFFCURVE",
"401 445 CURVE SMOOTH",
"401 446 LINE",
"395 460 OFFCURVE",
"325 465 OFFCURVE",
"258 467 CURVE",
"265 530 OFFCURVE",
"271 604 OFFCURVE",
"279 658 CURVE",
"273 674 OFFCURVE",
"255 681 OFFCURVE",
"237 681 CURVE SMOOTH",
"218 681 OFFCURVE",
"200 673 OFFCURVE",
"199 661 CURVE SMOOTH",
"197 626 OFFCURVE",
"196 548 OFFCURVE",
"194 465 CURVE",
"166 465 OFFCURVE",
"111 463 OFFCURVE",
"85 459 CURVE SMOOTH",
"68 456 OFFCURVE",
"62 448 OFFCURVE",
"62 440 CURVE SMOOTH",
"62 427 OFFCURVE",
"76 412 OFFCURVE",
"87 412 CURVE SMOOTH",
"105 412 OFFCURVE",
"156 416 OFFCURVE",
"193 420 CURVE",
"193 390 OFFCURVE",
"192 359 OFFCURVE",
"192 328 CURVE SMOOTH",
"192 196 OFFCURVE",
"196 60 OFFCURVE",
"203 -8 CURVE SMOOTH",
"205 -29 OFFCURVE",
"209 -67 OFFCURVE",
"239 -67 CURVE SMOOTH"
);
}
);
width = 436;
}
);
note = dagger;
unicode = 2020;
},
{
glyphname = daggerdbl;
lastChange = "2021-05-05 07:33:14 +0000";
layers = (
{
layerId = "68CC9319-F234-4FBF-AF6F-F394745E3D3F";
paths = (
{
closed = 1;
nodes = (
"247 -67 OFFCURVE",
"251 -65 OFFCURVE",
"251 -59 CURVE SMOOTH",
"251 -56 LINE",
"246 -32 OFFCURVE",
"244 1 OFFCURVE",
"243 20 CURVE SMOOTH",
"241 55 OFFCURVE",
"240 91 OFFCURVE",
"240 127 CURVE SMOOTH",
"240 174 OFFCURVE",
"242 222 OFFCURVE",
"244 270 CURVE",
"289 274 OFFCURVE",
"389 278 OFFCURVE",
"389 289 CURVE SMOOTH",
"389 290 LINE",
"383 304 OFFCURVE",
"314 308 OFFCURVE",
"246 310 CURVE",
"255 431 LINE",
"294 436 OFFCURVE",
"401 434 OFFCURVE",
"401 445 CURVE SMOOTH",
"401 446 LINE",
"395 460 OFFCURVE",
"325 465 OFFCURVE",
"258 467 CURVE",
"265 530 OFFCURVE",
"271 604 OFFCURVE",
"279 658 CURVE",
"273 674 OFFCURVE",
"255 681 OFFCURVE",
"237 681 CURVE SMOOTH",
"218 681 OFFCURVE",
"200 673 OFFCURVE",
"199 661 CURVE SMOOTH",
"197 626 OFFCURVE",
"196 548 OFFCURVE",
"194 465 CURVE",
"166 465 OFFCURVE",
"111 463 OFFCURVE",
"85 459 CURVE SMOOTH",
"68 456 OFFCURVE",
"62 448 OFFCURVE",
"62 440 CURVE SMOOTH",
"62 427 OFFCURVE",
"76 412 OFFCURVE",
"87 412 CURVE SMOOTH",
"105 412 OFFCURVE",
"156 416 OFFCURVE",
"193 420 CURVE",
"192 386 OFFCURVE",
"192 349 OFFCURVE",
"192 313 CURVE",
"183 313 LINE SMOOTH",
"152 313 OFFCURVE",
"104 309 OFFCURVE",
"81 305 CURVE SMOOTH",
"64 302 OFFCURVE",
"58 294 OFFCURVE",
"58 286 CURVE SMOOTH",
"58 272 OFFCURVE",
"73 257 OFFCURVE",
"83 257 CURVE SMOOTH",
"100 257 OFFCURVE",
"155 262 OFFCURVE",
"193 266 CURVE",
"194 155 OFFCURVE",
"197 49 OFFCURVE",
"203 -8 CURVE SMOOTH",
"205 -29 OFFCURVE",
"209 -67 OFFCURVE",
"239 -67 CURVE SMOOTH"
);
}
);
width = 436;
}
);
note = daggerdbl;
unicode = 2021;
},
{
glyphname = circumflex;
lastChange = "2021-05-05 07:33:14 +0000";
layers = (
{
layerId = "68CC9319-F234-4FBF-AF6F-F394745E3D3F";
paths = (
{
closed = 1;
nodes = (
"309 534 OFFCURVE",
"319 536 OFFCURVE",
"319 539 CURVE SMOOTH",
"319 540 OFFCURVE",
"319 540 OFFCURVE",
"318 541 CURVE SMOOTH",
"281 585 OFFCURVE",
"245 631 OFFCURVE",
"209 676 CURVE",
"202 676 LINE",
"198 673 OFFCURVE",
"117 582 OFFCURVE",
"81 541 CURVE SMOOTH",
"80 540 OFFCURVE",
"80 540 OFFCURVE",
"80 539 CURVE SMOOTH",
"80 537 OFFCURVE",
"85 536 OFFCURVE",
"91 536 CURVE SMOOTH",
"99 536 OFFCURVE",
"107 537 OFFCURVE",
"111 541 CURVE SMOOTH",
"137 567 OFFCURVE",
"168 590 OFFCURVE",
"196 617 CURVE",
"263 541 LINE SMOOTH",
"268 536 OFFCURVE",
"284 534 OFFCURVE",
"297 534 CURVE SMOOTH"
);
}
);
width = 408;
}
);
note = circumflex;
unicode = 02C6;
},
{
glyphname = perthousand;
lastChange = "2021-05-05 07:33:14 +0000";
layers = (
{
layerId = "68CC9319-F234-4FBF-AF6F-F394745E3D3F";
paths = (
{
closed = 1;
nodes = (
"93 -9 OFFCURVE",
"105 -4 OFFCURVE",
"110 5 CURVE SMOOTH",
"200 171 OFFCURVE",
"356 421 OFFCURVE",
"455 586 CURVE",
"456 587 OFFCURVE",
"456 589 OFFCURVE",
"456 590 CURVE SMOOTH",
"456 597 OFFCURVE",
"442 601 OFFCURVE",
"426 601 CURVE SMOOTH",
"408 601 OFFCURVE",
"389 596 OFFCURVE",
"384 587 CURVE",
"354 562 OFFCURVE",
"318 543 OFFCURVE",
"276 543 CURVE SMOOTH",
"257 543 OFFCURVE",
"236 547 OFFCURVE",
"214 557 CURVE",
"200 572 OFFCURVE",
"180 581 OFFCURVE",
"153 581 CURVE SMOOTH",
"76 581 OFFCURVE",
"30 508 OFFCURVE",
"30 444 CURVE SMOOTH",
"30 392 OFFCURVE",
"59 346 OFFCURVE",
"126 346 CURVE SMOOTH",
"197 346 OFFCURVE",
"240 420 OFFCURVE",
"240 485 CURVE SMOOTH",
"240 498 OFFCURVE",
"238 511 OFFCURVE",
"234 523 CURVE",
"247 520 OFFCURVE",
"261 519 OFFCURVE",
"276 519 CURVE SMOOTH",
"302 519 OFFCURVE",
"328 523 OFFCURVE",
"354 531 CURVE",
"265 368 OFFCURVE",
"148 154 OFFCURVE",
"68 6 CURVE SMOOTH",
"67 4 OFFCURVE",
"66 2 OFFCURVE",
"66 1 CURVE SMOOTH",
"66 -6 OFFCURVE",
"74 -9 OFFCURVE",
"82 -9 CURVE SMOOTH"
);
},
{
closed = 1;
nodes = (
"432 38 OFFCURVE",
"476 112 OFFCURVE",
"476 177 CURVE SMOOTH",
"476 227 OFFCURVE",
"449 272 OFFCURVE",
"389 272 CURVE SMOOTH",
"312 272 OFFCURVE",
"266 199 OFFCURVE",
"266 135 CURVE SMOOTH",
"266 84 OFFCURVE",
"295 38 OFFCURVE",
"362 38 CURVE SMOOTH"
);
},
{
closed = 1;
nodes = (
"332 63 OFFCURVE",
"319 97 OFFCURVE",
"319 135 CURVE SMOOTH",
"319 187 OFFCURVE",
"342 247 OFFCURVE",
"386 247 CURVE SMOOTH",
"411 247 OFFCURVE",
"424 211 OFFCURVE",
"424 171 CURVE SMOOTH",
"424 120 OFFCURVE",
"403 63 OFFCURVE",
"360 63 CURVE SMOOTH"
);
},
{
closed = 1;
nodes = (
"96 372 OFFCURVE",
"83 406 OFFCURVE",
"83 444 CURVE SMOOTH",
"83 496 OFFCURVE",
"106 556 OFFCURVE",
"150 556 CURVE SMOOTH",
"175 556 OFFCURVE",
"188 520 OFFCURVE",
"188 480 CURVE SMOOTH",
"188 429 OFFCURVE",
"167 372 OFFCURVE",
"124 372 CURVE SMOOTH"
);
},
{
closed = 1;
nodes = (
"669 38 OFFCURVE",
"713 112 OFFCURVE",
"713 177 CURVE SMOOTH",
"713 227 OFFCURVE",
"687 272 OFFCURVE",
"626 272 CURVE SMOOTH",
"550 272 OFFCURVE",
"503 199 OFFCURVE",
"503 135 CURVE SMOOTH",
"503 84 OFFCURVE",
"533 38 OFFCURVE",
"599 38 CURVE SMOOTH"
);
},
{
closed = 1;
nodes = (
"569 63 OFFCURVE",
"556 97 OFFCURVE",
"556 135 CURVE SMOOTH",
"556 187 OFFCURVE",
"579 247 OFFCURVE",
"623 247 CURVE SMOOTH",
"648 247 OFFCURVE",
"661 211 OFFCURVE",
"661 171 CURVE SMOOTH",
"661 120 OFFCURVE",
"640 63 OFFCURVE",
"597 63 CURVE SMOOTH"
);
}
);
width = 740;
}
);
note = perthousand;
unicode = 2030;
},
{
glyphname = guilsinglleft;
lastChange = "2021-05-05 07:33:14 +0000";
layers = (
{
layerId = "68CC9319-F234-4FBF-AF6F-F394745E3D3F";
paths = (
{
closed = 1;
nodes = (
"291 128 OFFCURVE",
"294 134 OFFCURVE",
"295 140 CURVE SMOOTH",
"295 148 OFFCURVE",
"293 159 OFFCURVE",
"288 167 CURVE SMOOTH",
"198 310 LINE",
"214 327 OFFCURVE",
"295 414 OFFCURVE",
"307 429 CURVE SMOOTH",
"312 434 OFFCURVE",
"315 441 OFFCURVE",
"315 446 CURVE SMOOTH",
"315 450 LINE SMOOTH",
"315 456 OFFCURVE",
"313 459 OFFCURVE",
"310 459 CURVE SMOOTH",
"308 459 OFFCURVE",
"306 458 OFFCURVE",
"303 456 CURVE",
"303 456 OFFCURVE",
"162 349 OFFCURVE",
"142 329 CURVE SMOOTH",
"138 325 OFFCURVE",
"137 317 OFFCURVE",
"137 307 CURVE SMOOTH",
"137 292 OFFCURVE",
"140 275 OFFCURVE",
"147 270 CURVE",
"153 263 OFFCURVE",
"256 144 OFFCURVE",
"275 131 CURVE SMOOTH",
"278 129 OFFCURVE",
"282 128 OFFCURVE",
"284 128 CURVE SMOOTH"
);
}
);
width = 415;
}
);
note = guilsinglleft;
unicode = 2039;
},
{
glyphname = OE;
lastChange = "2021-05-05 07:33:14 +0000";
layers = (
{
layerId = "68CC9319-F234-4FBF-AF6F-F394745E3D3F";
paths = (
{
closed = 1;
nodes = (
"914 -56 OFFCURVE",
"1056 5 OFFCURVE",
"1119 78 CURVE SMOOTH",
"1147 110 OFFCURVE",
"1160 146 OFFCURVE",
"1160 179 CURVE SMOOTH",
"1160 232 OFFCURVE",
"1124 276 OFFCURVE",
"1057 276 CURVE SMOOTH",
"1055 276 LINE SMOOTH",
"979 276 OFFCURVE",
"873 232 OFFCURVE",
"812 163 CURVE SMOOTH",
"797 146 OFFCURVE",
"791 132 OFFCURVE",
"791 125 CURVE SMOOTH",
"791 121 OFFCURVE",
"793 119 OFFCURVE",
"796 119 CURVE SMOOTH",
"799 119 OFFCURVE",
"805 123 OFFCURVE",
"811 130 CURVE SMOOTH",
"880 210 OFFCURVE",
"967 243 OFFCURVE",
"1030 243 CURVE SMOOTH",
"1079 243 OFFCURVE",
"1113 224 OFFCURVE",
"1113 193 CURVE SMOOTH",
"1113 178 OFFCURVE",
"1105 161 OFFCURVE",
"1089 142 CURVE SMOOTH",
"1054 101 OFFCURVE",
"969 50 OFFCURVE",
"873 26 CURVE SMOOTH",
"837 17 OFFCURVE",
"786 8 OFFCURVE",
"739 8 CURVE SMOOTH",
"670 8 OFFCURVE",
"608 27 OFFCURVE",
"608 91 CURVE SMOOTH",
"608 95 OFFCURVE",
"608 100 OFFCURVE",
"609 105 CURVE",
"628 136 OFFCURVE",
"642 169 OFFCURVE",
"652 203 CURVE",
"723 299 OFFCURVE",
"859 336 OFFCURVE",
"970 336 CURVE SMOOTH",
"981 336 LINE SMOOTH",
"995 336 OFFCURVE",
"1022 367 OFFCURVE",
"1022 388 CURVE SMOOTH",
"1022 399 OFFCURVE",
"1015 407 OFFCURVE",
"995 407 CURVE SMOOTH",
"991 407 LINE",
"950 399 OFFCURVE",
"914 396 OFFCURVE",
"883 396 CURVE SMOOTH",
"769 396 OFFCURVE",
"719 442 OFFCURVE",
"719 495 CURVE SMOOTH",
"719 594 OFFCURVE",
"843 652 OFFCURVE",
"933 652 CURVE SMOOTH",
"998 652 OFFCURVE",
"1043 618 OFFCURVE",
"1043 579 CURVE SMOOTH",
"1043 541 OFFCURVE",
"1000 498 OFFCURVE",
"893 477 CURVE SMOOTH",
"883 475 OFFCURVE",
"879 471 OFFCURVE",
"879 467 CURVE SMOOTH",
"879 462 OFFCURVE",
"885 458 OFFCURVE",
"894 458 CURVE SMOOTH",
"896 458 OFFCURVE",
"898 459 OFFCURVE",
"900 459 CURVE",
"1050 488 OFFCURVE",
"1113 551 OFFCURVE",
"1113 606 CURVE SMOOTH",
"1113 660 OFFCURVE",
"1053 707 OFFCURVE",
"955 707 CURVE SMOOTH",
"833 707 OFFCURVE",
"683 640 OFFCURVE",
"683 500 CURVE SMOOTH",
"683 403 OFFCURVE",
"769 389 OFFCURVE",
"845 376 CURVE",
"787 366 OFFCURVE",
"719 334 OFFCURVE",
"666 287 CURVE",
"667 296 OFFCURVE",
"667 305 OFFCURVE",
"667 314 CURVE SMOOTH",
"667 368 OFFCURVE",
"657 419 OFFCURVE",
"637 462 CURVE",
"646 488 OFFCURVE",
"652 516 OFFCURVE",
"652 548 CURVE SMOOTH",
"652 636 OFFCURVE",
"592 704 OFFCURVE",
"464 704 CURVE SMOOTH",
"242 704 OFFCURVE",
"119 504 OFFCURVE",
"106 312 CURVE",
"70 332 OFFCURVE",
"42 362 OFFCURVE",
"42 403 CURVE SMOOTH",
"42 428 OFFCURVE",
"59 458 OFFCURVE",
"75 465 CURVE SMOOTH",
"80 467 OFFCURVE",
"82 471 OFFCURVE",
"82 474 CURVE SMOOTH",
"82 478 OFFCURVE",
"80 482 OFFCURVE",
"75 482 CURVE SMOOTH",
"74 482 OFFCURVE",
"72 481 OFFCURVE",
"71 481 CURVE",
"45 472 OFFCURVE",
"4 445 OFFCURVE",
"4 396 CURVE SMOOTH",
"4 334 OFFCURVE",
"45 294 OFFCURVE",
"104 272 CURVE",
"105 109 OFFCURVE",
"188 -37 OFFCURVE",
"359 -37 CURVE SMOOTH",
"454 -37 OFFCURVE",
"527 3 OFFCURVE",
"578 62 CURVE",
"598 -11 OFFCURVE",
"672 -56 OFFCURVE",
"764 -56 CURVE SMOOTH"
);
},
{
closed = 1;
nodes = (
"237 -14 OFFCURVE",
"184 107 OFFCURVE",
"184 246 CURVE SMOOTH",
"184 254 LINE",
"203 252 OFFCURVE",
"223 251 OFFCURVE",
"243 251 CURVE SMOOTH",
"362 251 OFFCURVE",
"524 294 OFFCURVE",
"603 399 CURVE",
"607 380 OFFCURVE",
"608 360 OFFCURVE",
"608 339 CURVE SMOOTH",
"608 176 OFFCURVE",
"500 -14 OFFCURVE",
"356 -14 CURVE SMOOTH"
);
},
{
closed = 1;
nodes = (
"225 276 OFFCURVE",
"206 278 OFFCURVE",
"186 282 CURVE",
"198 471 OFFCURVE",
"300 681 OFFCURVE",
"467 681 CURVE SMOOTH",
"521 681 OFFCURVE",
"603 646 OFFCURVE",
"603 555 CURVE SMOOTH",
"603 542 OFFCURVE",
"601 530 OFFCURVE",
"600 518 CURVE",
"568 553 OFFCURVE",
"524 574 OFFCURVE",
"468 574 CURVE SMOOTH",
"459 574 LINE SMOOTH",
"452 574 OFFCURVE",
"448 570 OFFCURVE",
"448 567 CURVE SMOOTH",
"448 565 OFFCURVE",
"449 564 OFFCURVE",
"452 563 CURVE SMOOTH",
"517 549 OFFCURVE",
"560 511 OFFCURVE",
"584 461 CURVE",
"529 334 OFFCURVE",
"365 276 OFFCURVE",
"240 276 CURVE SMOOTH"
);
}
);
width = 1167;
}
);
note = OE;
unicode = 0152;
},
{
glyphname = quoteleft;
lastChange = "2021-05-05 07:33:14 +0000";
layers = (
{
layerId = "68CC9319-F234-4FBF-AF6F-F394745E3D3F";
paths = (
{
closed = 1;
nodes = (
"80 506 OFFCURVE",
"102 528 OFFCURVE",
"102 554 CURVE SMOOTH",
"102 581 OFFCURVE",
"80 602 OFFCURVE",
"54 602 CURVE SMOOTH",
"48 602 OFFCURVE",
"42 601 OFFCURVE",
"37 599 CURVE",
"36 602 OFFCURVE",
"36 607 OFFCURVE",
"36 612 CURVE SMOOTH",
"36 632 OFFCURVE",
"44 664 OFFCURVE",
"74 703 CURVE SMOOTH",
"76 706 OFFCURVE",
"77 709 OFFCURVE",
"77 712 CURVE SMOOTH",
"77 715 OFFCURVE",
"76 717 OFFCURVE",
"72 717 CURVE SMOOTH",
"70 717 OFFCURVE",
"65 715 OFFCURVE",
"60 711 CURVE SMOOTH",
"32 689 OFFCURVE",
"-1 619 OFFCURVE",
"-1 567 CURVE SMOOTH",
"-1 533 OFFCURVE",
"13 506 OFFCURVE",
"54 506 CURVE SMOOTH"
);
}
);
width = 105;
}
);
note = quoteleft;
unicode = 2018;
},
